<mxfile host="app.diagrams.net" modified="2023-09-20T23:34:23.645Z" agent="Mozilla/5.0 (Windows NT 10.0; Win64; x64) AppleWebKit/537.36 (KHTML, like Gecko) Chrome/116.0.0.0 Safari/537.36" etag="EqKe4wRM1dZ5EBPOVgLD" version="21.7.5" type="google" pages="2">
  <diagram id="07fea595-8f29-1299-0266-81d95cde20df" name="Aprendizado Não-Supervisionado">
    <mxGraphModel grid="1" page="1" gridSize="10" guides="1" tooltips="1" connect="1" arrows="1" fold="1" pageScale="1" pageWidth="1169" pageHeight="827" background="#ffffff" math="0" shadow="0">
      <root>
        <mxCell id="0" />
        <mxCell id="1" parent="0" />
        <mxCell id="M5F4NphquDwM7b2h-o3e-205" style="edgeStyle=orthogonalEdgeStyle;rounded=0;orthogonalLoop=1;jettySize=auto;html=1;entryX=0;entryY=0.25;entryDx=0;entryDy=0;" edge="1" parent="1" source="-ahfKaxS1cheRaKLeXaz-218" target="M5F4NphquDwM7b2h-o3e-206">
          <mxGeometry relative="1" as="geometry" />
        </mxCell>
        <mxCell id="-ahfKaxS1cheRaKLeXaz-218" value="" style="whiteSpace=wrap;shadow=0;fontColor=#FFFFFF;fontFamily=Helvetica;fontStyle=0;html=1;fontSize=12;plain-purple;strokeColor=#2f5b7c;fillColor=#2f5b7c;gradientColor=none;spacing=6;verticalAlign=middle;" vertex="1" parent="1">
          <mxGeometry x="150" y="-630" width="120" height="80" as="geometry" />
        </mxCell>
        <mxCell id="-ahfKaxS1cheRaKLeXaz-219" value="" style="whiteSpace=wrap;shadow=0;fontColor=#FFFFFF;fontFamily=Helvetica;fontStyle=0;html=1;fontSize=12;plain-purple;strokeColor=#2f5b7c;fillColor=none;gradientColor=none;spacing=6;verticalAlign=middle;" vertex="1" parent="1">
          <mxGeometry x="150" y="-600" width="120" height="50" as="geometry" />
        </mxCell>
        <mxCell id="-ahfKaxS1cheRaKLeXaz-221" value="Multiple features Datasets" style="text;whiteSpace=wrap;align=center;fontStyle=1;fontSize=10;fontColor=#FCFCFC;verticalAlign=middle;" vertex="1" parent="1">
          <mxGeometry x="160" y="-630" width="100" height="30" as="geometry" />
        </mxCell>
        <mxCell id="-ahfKaxS1cheRaKLeXaz-222" value="mfeat-fac&#xa;mfeat-fou&#xa;mfeat-zer" style="text;whiteSpace=wrap;align=center;fontSize=10;fillColor=default;" vertex="1" parent="1">
          <mxGeometry x="150" y="-600" width="120" height="50" as="geometry" />
        </mxCell>
        <mxCell id="M5F4NphquDwM7b2h-o3e-204" value="Partição Fuzzy em 10 Grupos" style="whiteSpace=wrap;shadow=0;fontColor=#FFFFFF;fontFamily=Helvetica;fontStyle=0;html=1;fontSize=12;plain-purple;strokeColor=none;fillColor=#2f5b7c;gradientColor=none;spacing=6;verticalAlign=middle;" vertex="1" parent="1">
          <mxGeometry x="470" y="-630" width="120" height="40" as="geometry" />
        </mxCell>
        <mxCell id="M5F4NphquDwM7b2h-o3e-206" value="KFCM-K-W.2&lt;br&gt; " style="shape=document;whiteSpace=wrap;verticalAlign=middle;strokeColor=none;fillColor=#12aab5;shadow=0;fontColor=#FFFFFF;fontFamily=Helvetica;fontStyle=0;html=1;fontSize=12;spacing=6;spacingBottom=22;" vertex="1" parent="1">
          <mxGeometry x="310" y="-630" width="120" height="60" as="geometry" />
        </mxCell>
        <mxCell id="M5F4NphquDwM7b2h-o3e-207" style="edgeStyle=orthogonalEdgeStyle;rounded=0;orthogonalLoop=1;jettySize=auto;html=1;entryX=0.75;entryY=0;entryDx=0;entryDy=0;exitX=0.25;exitY=0;exitDx=0;exitDy=0;" edge="1" parent="1" source="M5F4NphquDwM7b2h-o3e-206" target="M5F4NphquDwM7b2h-o3e-206">
          <mxGeometry relative="1" as="geometry">
            <mxPoint x="280" y="-580" as="sourcePoint" />
            <mxPoint x="360" y="-605" as="targetPoint" />
            <Array as="points">
              <mxPoint x="380" y="-660" />
              <mxPoint x="440" y="-660" />
            </Array>
          </mxGeometry>
        </mxCell>
        <mxCell id="M5F4NphquDwM7b2h-o3e-208" value="50 Execuções" style="text;html=1;strokeColor=none;fillColor=none;align=center;verticalAlign=middle;whiteSpace=wrap;rounded=0;fontSize=9;fontStyle=1" vertex="1" parent="1">
          <mxGeometry x="325" y="-680" width="90" height="20" as="geometry" />
        </mxCell>
        <mxCell id="M5F4NphquDwM7b2h-o3e-209" value="Seleção de Melhor resultado &lt;br&gt;&lt;font style=&quot;font-size: 8px;&quot;&gt;(Função Objetivo da Eq. 13)&lt;/font&gt;" style="whiteSpace=wrap;shadow=0;fontColor=#FFFFFF;fontFamily=Helvetica;fontStyle=0;html=1;fontSize=12;plain-purple;strokeColor=none;fillColor=#2f5b7c;gradientColor=none;spacing=6;verticalAlign=middle;" vertex="1" parent="1">
          <mxGeometry x="630" y="-630" width="120" height="40" as="geometry" />
        </mxCell>
        <mxCell id="M5F4NphquDwM7b2h-o3e-210" style="edgeStyle=orthogonalEdgeStyle;rounded=0;orthogonalLoop=1;jettySize=auto;html=1;entryX=0;entryY=0.5;entryDx=0;entryDy=0;exitX=1;exitY=0.5;exitDx=0;exitDy=0;" edge="1" parent="1" source="M5F4NphquDwM7b2h-o3e-206" target="M5F4NphquDwM7b2h-o3e-204">
          <mxGeometry relative="1" as="geometry">
            <mxPoint x="280" y="-580" as="sourcePoint" />
            <mxPoint x="320" y="-605" as="targetPoint" />
          </mxGeometry>
        </mxCell>
        <mxCell id="M5F4NphquDwM7b2h-o3e-211" style="edgeStyle=orthogonalEdgeStyle;rounded=0;orthogonalLoop=1;jettySize=auto;html=1;entryX=0;entryY=0.5;entryDx=0;entryDy=0;exitX=1;exitY=0.5;exitDx=0;exitDy=0;" edge="1" parent="1" source="M5F4NphquDwM7b2h-o3e-204" target="M5F4NphquDwM7b2h-o3e-209">
          <mxGeometry relative="1" as="geometry">
            <mxPoint x="440" y="-590" as="sourcePoint" />
            <mxPoint x="480" y="-600" as="targetPoint" />
          </mxGeometry>
        </mxCell>
        <mxCell id="M5F4NphquDwM7b2h-o3e-213" value="Modified Partition Coefficient&lt;br&gt; " style="shape=document;whiteSpace=wrap;verticalAlign=middle;strokeColor=none;fillColor=#12aab5;shadow=0;fontColor=#FFFFFF;fontFamily=Helvetica;fontStyle=0;html=1;fontSize=12;spacing=6;spacingBottom=22;" vertex="1" parent="1">
          <mxGeometry x="270" y="-510" width="120" height="60" as="geometry" />
        </mxCell>
        <mxCell id="M5F4NphquDwM7b2h-o3e-214" style="edgeStyle=orthogonalEdgeStyle;rounded=0;orthogonalLoop=1;jettySize=auto;html=1;entryX=0.5;entryY=0;entryDx=0;entryDy=0;exitX=0.5;exitY=1;exitDx=0;exitDy=0;dashed=1;dashPattern=8 8;" edge="1" parent="1" source="M5F4NphquDwM7b2h-o3e-204" target="M5F4NphquDwM7b2h-o3e-213">
          <mxGeometry relative="1" as="geometry">
            <mxPoint x="440" y="-590" as="sourcePoint" />
            <mxPoint x="480" y="-600" as="targetPoint" />
          </mxGeometry>
        </mxCell>
        <mxCell id="M5F4NphquDwM7b2h-o3e-215" style="edgeStyle=orthogonalEdgeStyle;rounded=0;orthogonalLoop=1;jettySize=auto;html=1;entryX=0;entryY=0.5;entryDx=0;entryDy=0;exitX=0.5;exitY=1;exitDx=0;exitDy=0;dashed=1;dashPattern=8 8;" edge="1" parent="1" source="-ahfKaxS1cheRaKLeXaz-222" target="M5F4NphquDwM7b2h-o3e-213">
          <mxGeometry relative="1" as="geometry">
            <mxPoint x="540" y="-580" as="sourcePoint" />
            <mxPoint x="540" y="-500" as="targetPoint" />
          </mxGeometry>
        </mxCell>
        <mxCell id="M5F4NphquDwM7b2h-o3e-216" value="Comentar Resultado" style="whiteSpace=wrap;shadow=0;fontColor=#FFFFFF;fontFamily=Helvetica;fontStyle=0;html=1;fontSize=12;plain-purple;strokeColor=none;fillColor=#2f5b7c;gradientColor=none;spacing=6;verticalAlign=middle;" vertex="1" parent="1">
          <mxGeometry x="430" y="-510" width="120" height="40" as="geometry" />
        </mxCell>
        <mxCell id="M5F4NphquDwM7b2h-o3e-217" style="edgeStyle=orthogonalEdgeStyle;rounded=0;orthogonalLoop=1;jettySize=auto;html=1;entryX=0;entryY=0.5;entryDx=0;entryDy=0;exitX=1;exitY=0.5;exitDx=0;exitDy=0;" edge="1" parent="1" source="M5F4NphquDwM7b2h-o3e-213" target="M5F4NphquDwM7b2h-o3e-216">
          <mxGeometry relative="1" as="geometry">
            <mxPoint x="400" y="-600" as="sourcePoint" />
            <mxPoint x="440" y="-600" as="targetPoint" />
          </mxGeometry>
        </mxCell>
        <mxCell id="M5F4NphquDwM7b2h-o3e-218" value="Produção de Partição Crisp em 10 Grupos&lt;br&gt; " style="shape=document;whiteSpace=wrap;verticalAlign=middle;strokeColor=none;fillColor=#12aab5;shadow=0;fontColor=#FFFFFF;fontFamily=Helvetica;fontStyle=0;html=1;fontSize=12;spacing=6;spacingBottom=22;" vertex="1" parent="1">
          <mxGeometry x="550" y="-430" width="120" height="60" as="geometry" />
        </mxCell>
        <mxCell id="M5F4NphquDwM7b2h-o3e-219" value="Comentar Resultado" style="whiteSpace=wrap;shadow=0;fontColor=#FFFFFF;fontFamily=Helvetica;fontStyle=0;html=1;fontSize=12;plain-purple;strokeColor=none;fillColor=#2f5b7c;gradientColor=none;spacing=6;verticalAlign=middle;" vertex="1" parent="1">
          <mxGeometry x="870" y="-430" width="120" height="40" as="geometry" />
        </mxCell>
        <mxCell id="M5F4NphquDwM7b2h-o3e-220" style="edgeStyle=orthogonalEdgeStyle;rounded=0;orthogonalLoop=1;jettySize=auto;html=1;entryX=0;entryY=0.5;entryDx=0;entryDy=0;exitX=1;exitY=0.5;exitDx=0;exitDy=0;" edge="1" parent="1" source="M5F4NphquDwM7b2h-o3e-218" target="M5F4NphquDwM7b2h-o3e-223">
          <mxGeometry relative="1" as="geometry">
            <mxPoint x="680" y="-520" as="sourcePoint" />
            <mxPoint x="720" y="-520" as="targetPoint" />
          </mxGeometry>
        </mxCell>
        <mxCell id="M5F4NphquDwM7b2h-o3e-221" style="edgeStyle=orthogonalEdgeStyle;rounded=0;orthogonalLoop=1;jettySize=auto;html=1;entryX=0.5;entryY=0;entryDx=0;entryDy=0;exitX=0.5;exitY=1;exitDx=0;exitDy=0;dashed=1;dashPattern=8 8;" edge="1" parent="1" source="M5F4NphquDwM7b2h-o3e-204" target="M5F4NphquDwM7b2h-o3e-218">
          <mxGeometry relative="1" as="geometry">
            <mxPoint x="540" y="-580" as="sourcePoint" />
            <mxPoint x="340" y="-500" as="targetPoint" />
            <Array as="points">
              <mxPoint x="530" y="-550" />
              <mxPoint x="610" y="-550" />
            </Array>
          </mxGeometry>
        </mxCell>
        <mxCell id="M5F4NphquDwM7b2h-o3e-222" style="edgeStyle=orthogonalEdgeStyle;rounded=0;orthogonalLoop=1;jettySize=auto;html=1;entryX=0;entryY=0.5;entryDx=0;entryDy=0;exitX=0.5;exitY=1;exitDx=0;exitDy=0;dashed=1;dashPattern=8 8;" edge="1" parent="1" source="-ahfKaxS1cheRaKLeXaz-222" target="M5F4NphquDwM7b2h-o3e-218">
          <mxGeometry relative="1" as="geometry">
            <mxPoint x="220" y="-540" as="sourcePoint" />
            <mxPoint x="280" y="-470" as="targetPoint" />
          </mxGeometry>
        </mxCell>
        <mxCell id="M5F4NphquDwM7b2h-o3e-223" value="Calculo do Índice de Rand Corrigido&lt;br&gt; " style="shape=document;whiteSpace=wrap;verticalAlign=middle;strokeColor=none;fillColor=#12aab5;shadow=0;fontColor=#FFFFFF;fontFamily=Helvetica;fontStyle=0;html=1;fontSize=12;spacing=6;spacingBottom=22;" vertex="1" parent="1">
          <mxGeometry x="710" y="-430" width="120" height="60" as="geometry" />
        </mxCell>
        <mxCell id="M5F4NphquDwM7b2h-o3e-224" style="edgeStyle=orthogonalEdgeStyle;rounded=0;orthogonalLoop=1;jettySize=auto;html=1;entryX=0;entryY=0.5;entryDx=0;entryDy=0;exitX=1;exitY=0.5;exitDx=0;exitDy=0;" edge="1" parent="1" source="M5F4NphquDwM7b2h-o3e-223" target="M5F4NphquDwM7b2h-o3e-219">
          <mxGeometry relative="1" as="geometry">
            <mxPoint x="680" y="-390" as="sourcePoint" />
            <mxPoint x="720" y="-390" as="targetPoint" />
          </mxGeometry>
        </mxCell>
        <mxCell id="M5F4NphquDwM7b2h-o3e-225" value="Apresentar Protótipos de cada grupo" style="whiteSpace=wrap;shadow=0;fontColor=#FFFFFF;fontFamily=Helvetica;fontStyle=0;html=1;fontSize=12;plain-purple;strokeColor=none;fillColor=#2f5b7c;gradientColor=none;spacing=6;verticalAlign=middle;" vertex="1" parent="1">
          <mxGeometry x="830" y="-670" width="120" height="40" as="geometry" />
        </mxCell>
        <mxCell id="M5F4NphquDwM7b2h-o3e-226" value="Apresentar Vetor de largura de cada grupo" style="whiteSpace=wrap;shadow=0;fontColor=#FFFFFF;fontFamily=Helvetica;fontStyle=0;html=1;fontSize=12;plain-purple;strokeColor=none;fillColor=#2f5b7c;gradientColor=none;spacing=6;verticalAlign=middle;" vertex="1" parent="1">
          <mxGeometry x="830" y="-610" width="120" height="40" as="geometry" />
        </mxCell>
        <mxCell id="M5F4NphquDwM7b2h-o3e-227" value="Apresentar Matriz de confusão da partição crisp X partição a priori" style="whiteSpace=wrap;shadow=0;fontColor=#FFFFFF;fontFamily=Helvetica;fontStyle=0;html=1;fontSize=12;plain-purple;strokeColor=none;fillColor=#2f5b7c;gradientColor=none;spacing=6;verticalAlign=middle;" vertex="1" parent="1">
          <mxGeometry x="830" y="-550" width="160" height="40" as="geometry" />
        </mxCell>
        <mxCell id="M5F4NphquDwM7b2h-o3e-228" style="edgeStyle=orthogonalEdgeStyle;rounded=0;orthogonalLoop=1;jettySize=auto;html=1;entryX=0;entryY=0.5;entryDx=0;entryDy=0;exitX=1;exitY=0.5;exitDx=0;exitDy=0;" edge="1" parent="1" source="M5F4NphquDwM7b2h-o3e-209" target="M5F4NphquDwM7b2h-o3e-225">
          <mxGeometry relative="1" as="geometry">
            <mxPoint x="600" y="-600" as="sourcePoint" />
            <mxPoint x="640" y="-600" as="targetPoint" />
          </mxGeometry>
        </mxCell>
        <mxCell id="M5F4NphquDwM7b2h-o3e-229" style="edgeStyle=orthogonalEdgeStyle;rounded=0;orthogonalLoop=1;jettySize=auto;html=1;entryX=0;entryY=0.5;entryDx=0;entryDy=0;exitX=1;exitY=0.5;exitDx=0;exitDy=0;" edge="1" parent="1" source="M5F4NphquDwM7b2h-o3e-209" target="M5F4NphquDwM7b2h-o3e-226">
          <mxGeometry relative="1" as="geometry">
            <mxPoint x="760" y="-600" as="sourcePoint" />
            <mxPoint x="840" y="-640" as="targetPoint" />
          </mxGeometry>
        </mxCell>
        <mxCell id="M5F4NphquDwM7b2h-o3e-230" style="edgeStyle=orthogonalEdgeStyle;rounded=0;orthogonalLoop=1;jettySize=auto;html=1;exitX=1;exitY=0.5;exitDx=0;exitDy=0;entryX=0;entryY=0.25;entryDx=0;entryDy=0;" edge="1" parent="1" source="M5F4NphquDwM7b2h-o3e-209" target="M5F4NphquDwM7b2h-o3e-227">
          <mxGeometry relative="1" as="geometry">
            <mxPoint x="760" y="-600" as="sourcePoint" />
            <mxPoint x="830" y="-540" as="targetPoint" />
            <Array as="points">
              <mxPoint x="790" y="-610" />
              <mxPoint x="790" y="-540" />
            </Array>
          </mxGeometry>
        </mxCell>
        <mxCell id="M5F4NphquDwM7b2h-o3e-231" style="edgeStyle=orthogonalEdgeStyle;rounded=0;orthogonalLoop=1;jettySize=auto;html=1;entryX=0;entryY=0.75;entryDx=0;entryDy=0;exitX=1;exitY=0.25;exitDx=0;exitDy=0;" edge="1" parent="1" source="M5F4NphquDwM7b2h-o3e-218" target="M5F4NphquDwM7b2h-o3e-227">
          <mxGeometry relative="1" as="geometry">
            <mxPoint x="760" y="-600" as="sourcePoint" />
            <mxPoint x="840" y="-520" as="targetPoint" />
            <Array as="points">
              <mxPoint x="690" y="-415" />
              <mxPoint x="690" y="-520" />
            </Array>
          </mxGeometry>
        </mxCell>
        <mxCell id="ViJQnv-lOq2HxlMQcMpX-7" style="edgeStyle=orthogonalEdgeStyle;rounded=0;orthogonalLoop=1;jettySize=auto;html=1;exitX=1;exitY=0.5;exitDx=0;exitDy=0;entryX=0;entryY=0.25;entryDx=0;entryDy=0;" edge="1" parent="1" source="ViJQnv-lOq2HxlMQcMpX-1" target="ViJQnv-lOq2HxlMQcMpX-5">
          <mxGeometry relative="1" as="geometry" />
        </mxCell>
        <mxCell id="ViJQnv-lOq2HxlMQcMpX-1" value="" style="shape=image;verticalLabelPosition=bottom;labelBackgroundColor=default;verticalAlign=top;aspect=fixed;imageAspect=0;image=data:image/png,iVBORw0KGgoAAAANSUhEUgAAA0AAAABSCAYAAAB9lbRPAAAAAXNSR0IArs4c6QAAAARnQU1BAACxjwv8YQUAAAAJcEhZcwAAEnQAABJ0Ad5mH3gAAED7SURBVHhe7d0HWFPX+wfwb8Rt0OJfVJAgyhCLinsgWrTOqrhq0daiOFpt695aR90VWhXbaq24B9SiVRw4UIv+wAEqCi4EGcpUEIjKzPnfm9wgYoCAENb7eZ48XE7WTXLvOee9Z4kYB4QQQgghhJQEFoUzc+zwU4MN8FzUFbWf38XFoJrorHsBgz+PxdprS9GjbhXhwaRwUhHhNhNdD7bHObfJsKgpEtJJfuhoI4QQQgghJUekj37z5qPtvt/xT7AUKXfd8P2Qkei7IACj/pyEbhT8FBlL+B/+WB2PhStHU/BTCNQCRAghhBBCSlgqIo4swuhzPeC6ZTgMq1Jl/YOxBPj9MgVLMAeH53RBXfpK1UYBECGEEEIIKXkZYbhyKQ1t+7SAmCrrxSAN0deuIs7MGpY6WkIaUQcFQIQQQgghhJBKgzpdEkIIIYQQQioNCoAIIYQQQgghlQYFQIQQQgghhJBKgwIgQgghhBBCSKVBARAhhBBCCCGk0qAAiBBCCCGEEFJpUABECCGEEEIIqTQoACKEEEIIIYRUGhQAEUIIIYQQQioNCoAIIYQQQgghlQYFQIQQQgghpJJKRYTbHIzd9wAZQgopHizhEpaPdMLV5CwhpeygAIgQQgghhFRCDJkRp7Bu9Uv0tzJENSGVFA+RjgX6tLqAZdv9kMyExDKCAiBCCCGEEFL5sGh4bdqIgHFTMNK4tpBIio1IF9bfToLBrxtx8J5USCwbKAAihBBCCCGVTBYSr+zE0tM2WD2hPSj8KRki/QFYuFoLK9ccQ0hG2WkGogCIEEIIIYRULq8DsG/VXnw0ww496msJiaT41YbpMHvYXdqIX848RVkJgSgAIoQQQgghlchrPHL9BUv8+mCKbQsa+1PCRPW7YuxsXWydtx0XE8rGhAgUABFCCCGEkEqDJfhip+NpGM35GgP0KfwpefXQbsSXGPZ0P5z/fVgmZtujAIgQQgghhFQSSbi50wk/P7DC5MGtCzn2Jw3RXqvRW9sQ/R33YvfUHtAW6aPzrOOIyCxj05yVMVWa9cbEsWIcm/sbPKJKPwSiAIgQQiqNLEjvHcbCof0weOxgdKz/CWZ7lkSfbIbMaC+sHdoS2gO34PzFLXDorA+R9mCs9X1eZvqAE0I+hKbyk+LForzw+1pPiIfZYXBrsZCqJpaGNElPfPWpFp74x0Fvngee+c5E1U37cT40TXgQUUmkh56jhkAv0RVOB2/jtZBcWigAIoSQSoEhI/QfTLc7gWZrDsNjvysO7puK/mY6EAmPKD4ypGZJ0GOABaQh13A7fSC2+HjAsdFN/HefAiBCyj9N5ifF6TWCPd1xONEYQ0Zbo1lha8GiujBqWh0xATXRe+yX6N/8I9RtagJTxCMhJVN4EFGtCup2HYLvW2XA1+U4rpbyWCAKgAghpFJIgv+hbfD8bBzGtKrHVVLEMBs0mivA6wj3FyctiA0aANFR0Pnsa0zobwJx2mskpzdEyyY6VPAQUu5pMj8pRsl+2O94HFLxJxjarUmRgjUWF467YUb4WFJP8X/qK+7baIJG9WksUYFqt8SnozsCD/Zjy8lQyITk0kDlECGEVAayGNzzjkHP9s2hLSSVKJaAsDtxsDBvAr6awOLCcCfSCOYSjbw7IaQkaTo/KRaZiPM+gt8eSIFPbdBZUl1ILwyG9GchuCY2RXP9mtz/mYgP8oe3VRe0aVKU11MDS0bomc1w6NwfTv5lazHRwquH1j0/gQRh+HebJ+6ml15/AAqACCGkMpC9QkJIBmpU09JMF5XX0Qi+KUaHZrrQ4ioNr5+G4KaOCZo1riE8gBBSbmk6PykOLBIXD55AIvTQz7YTmhZpx7OQEBWBMFMTSOpzOZs0AG5/3YLdnMGwqF7M30RmPO6ddcGCIV1gPGAmdt9IF+4oz0SoY9kTY/S4TZ8jOHEzSZFcCigAIoSQykBLF817VMPNgCdIZowrWwNw6kpYiU1HyhKi8ChSD80b84OM0xEX9hiRFk1R780LSGkQECHlm4bzk+IgC76InYdCuK3OGN7VsIgV4FREhT4Eko9izYTP0bv9bAR9tgGrhjdDVeERxSMWZ1fOxiavODSzm4H5NnzEUEHUtUDvLyy5jUv4/ehNJCtSNY4CIEIIqQxETdBv7kJ0PDQI9ao0gdV8b4iN9UpoAcDc3UQYMjIyIb59GqcfpKNmublkTAhRSaP5SXFIxeMrnjjLb0rawqJpLXlq4SUi/G4kjKc44eCef3Dx0X/Y9m0XNCj2PK0R+q3ch+0/L8KUrwehi2HhJusu2z6CWYdW8q3ofefhl1w6I4FEjCNsE0IIIYQQUrHIHmDnwN6YeDYaOjM88XhTf9QX7iqUTH84mdvh7oaL2DNCIiSWtEgcGdcLI/dK4OjngbkdCjl1dxmUdW8bbCym4go6YL6XJ37u3UC4R3OoBYgQQgghhFRYssc+cOOCH0CCnh2MoaNILiQpHrnvg2tILHw9vPEoldoPikqrqQV6yeNHfxy6dB+v5KmaRQEQIYQQQgipoDIRG3gDPvLtpuhkqlvEiRvEMLPbBD+Wgke7voIZ9eUtutoSWFgZyTcjj1/DgzTNB5MUABFCCCGEkArqJe5fuwH5BNLidrA0Lv9dyMo9kS7MrcwV2wHXERCeptjWIAqACCGEEEJIxZT1DIHnHiq2236M5vW1FNukFNWEpIWF0BXxLq4/SpBvaRIFQIQQUq4xZEadwKyW2hCJRMV6qz/1BOJU9kxIQ9SJ+Wip4jkfdmuNqSeecZ+oksl8igu/OOFI6GshoQLIfIbL2//AkUfqL9zIEv2w+xd3BEmzhJTKKguJV//CigN3SmHK+NLIT0oWi3oAn1uK41CnQzM0zi/+SbwMp3GD0VFb9Wco/M0Mvb5YALdHqcIbEAUt1JOYwEK+/QBnAiK4UkWzKAAihJByTYSq+gOw+PfZ6CSkwHQG3MPfgJ/kU/2bDBnxD3H1vCs2z7SFMfcyifuP4mKkqsX3akB/0Cz8vtBG+F8M0ynuCM+QqXjd/G6piH94DeddN2HmIL47RCD2H7yCyMoUAXHBj9eqpTjR4gvYNq8gU93yn8lxD6L7jMcIM/W7G4l0OmLcBF0cX3agkgdBWtDpMgrDE37D9F2aDoJKIz8pSQyvw+4L43/EMGreGPXk23nQ6YG5ezxw9cFRTFEuvTPIEZ5+fvBT6+aNvTM6CE+0haPfNVz4+2fYmfHLAZCctHQNYCFkD2E3ghGl6XyfO1AJIYSUd7IX7IbjUMaVJ3wxwnTsdrEHb2TCnYWVyqJ8fmf2pqZsjGsoy+tVZElXmWNfifz9uFoSs3MJZG+E+wot4xnzcXZgpuIJzDU8TUis6FJY4FY7pjfejXHBo5BW3qWzKI95bNjWu9xWUaSzZ+4z2IDN/uyVkFJZyZJ82Jpu1myW57M8z8ESUwr5SclIZaF7vxLyKGNm7x4hpBckgrnbGyueZ+/OooTUgqUwP0cbxfOMHZlfhpD8QZT7YsMc/VKEtAogw485GiuOL0iWM2+pZo8MagEihJCKQFQfHaYsxVpbxcw6iW4/Yf5fN4t49bgG9LpNxLpfh+HWzosIzmOdOlHdjpjiuBC28qt4wXCb8RP+CngpL9EKrao+uk1dgV8nPcbO86EonaXx1MWQGe2FtUNbQnvgFpy/uAUOnfUh0h6MNZ5X4Ll5Mjpri6DdeyP8pHl9EobUoINYPC8Js3/oD8OqFWRGqde3cWDtUwzpbSIsisl/V77YucwBvUz4blVm6LXMC8/l96lSDfo2A9HCaS8uxGUKaZUTf36Nn9sau2c646ymv4tSyE9KRipiI8KFbQlaNy3aBNilimUhI41vEc1EWkYFahmt2hDNu/Ntg5zICEQlaPYYL9kASBYBzzn9oC3vB6kNs9HbEaAsDGRhODKxvdBHUh+dfziGiMwInFk8DCbv9J/MeTPBuCORiufLpSHa7zCcZg7P1V+Ty2BHb8TlxCzIIk9hTi/Dt/f1+xP3MvI4g9kznJjaWnhsrv3Nx7vv0Rajt3GZhPK+CHdMNBP60mr3wA8eYaoLduk1OPVWvkZ7TDzy/uNYhBu+1K6P7s63kbsROec+qC50uULo+T1cPLITzk5OcOJv2w7C81p4KfQxJkWS+5xx2KnW8UnKmcx43Lt4BDudhfPUaRsOeN5AhBpdgkTi9pi8YTns5GV8GI4vXoVt/glFC0j4bm79x2NerVPwvJvXOA4tiC3tsWGzvWIwq/QwV6HfDf/kIhbSVSXoP3Ucau06h7vpee11GuL9D2DRYq7MKNHDPxkBO1fA6WSwijxShtQsCXoMsIA05Bpupw/EFh8PODb6D3t2X4VoyC/wueSIRhfvIoQrh1RikTj1y0YctxoF23Z5dMphyQg9s5kLrvrDyV/9sTSlKSvYFwefmsG0SQ0hJQG+W+dj4g5dLLz+ErKUk5hrUUBXv3pNYN70Cs7feiEk5CEzFv77fsLif/MoV8sshtcBezDH6RRC8z2vuWCwz+eYnLQdP+29BU2PENN8flISkhH1iF//h6eL+tpVhe1ygqtHn1kyE0vcwrh/rmD99AVwCXipuK+sKHI+VQsfNf5I2H6CyDgNjwISWoJKTqovW23Eny8OzDUiR4O47AXzXdOPS2/HxrsEsBRly1f2479l7lHKtsNUFnf9d2ank6P5MiOSea0ZyYxhzmyX7mHn/cK518hkKeG+7NCCAUyc/XwZ95JrmBGf48hvg9jm26qbEGWxHmyKjvJxufY3Xznew86VReRoxVM0YeswmE5mLoEv82n6lbFXfk6sG/8aKpsCM1iU+xRFc7T1VhaUKSRnUza7DmCOfi+FNCUZe/NwPxtvKmYQd2Kj5q1ijo6r2LxRnbjXk7Bey86yqArT/aJiy/Bz5I557hgYupeF0k9W8bwJYnvHt+POYz3WYdRsttpxA1s9z451EIOJe61i56NShQfm5w0Ld5/BTOX5GHfrtIx5xRW1HwaXp0bcZw/jC3jfjFDmPqWDkHfqsE4Lz7G4oh6fshQWERDM4lXmSaks6vw65rBcQ3mW7CULdJnDpuYso7K9YN5LuzGdGZ7cFkfqzZZKOrD5XvHcP1ksyWsR09NbxLySsvh7c5Gx9KBtrC/3O/dzuc89OpeMOBZ0ZgebP8hc+E5Lo+sL99s/PMu2zR/KjHN35ZElsVDvA2ypraKLkLjbOuYj/5x8OfVtrq4/McxzhiX3OHM2aL4L83r4gntUQfguP+bMeutdbi/ywNUBzi//gS0/H6nG65VF3PcbuIdNnbqHBabk+Sk58cxrPndu6c1jni/ye1xJKYX8pDhl3mab23F1H/n+56xXFqQsdYEroz44n8rxXXH5w7cez4R0zSj5LnBa1VBDPuNGdVTLbuLPRPzlbVi87j76Om7FZoc2ECvvyn58TjWg22k81m4dhvrV+TtTEXHcCVOW+MPCeT8O/GSPTzsYcq+hBbFhV4xe/ReOOXWArnyRKhH3ktWhBWPY2PAD03zg9t/j91pQgAxEXzkFt5pWsLHiR77l3N+CKN+DU6Masp/GYnD511VYd7cnHA+uh4NFvXwW3xKhdksrDGrFhTiRtxEU/kZIF7BY+J+7omhZunIBV0NyzSjCvde9KyFAq56wbllXSFRiyEyOQ3i0KRx2HMCBDT9i7twfscHtH+xxqIOLK1diq6/mpyAkhZWF5Ocx4H8po06m0Ff38CTlR2YKYsMTYeqwEX8fcMKSufOwZMM+HN8zFdUu/owftl5DsvDQvNWEoe1s/Dqzm+LfG7/i+7WeiMrky5nC4vJUiTnMGiiv5uehqhFsl67ATHO+L1wibqxfhrUnI7icvghEYkjamKDBe/kvV254/4JxW+pjzsI+0NNElzFRPVg4zMbQwKWY/ncwV0rkwBIQdicOFuZN5IOqWVwY7kQ2RwsD/jtIR0zYY0S3NoGBWFUxm4w7p/7FOXTG8K6GubpixOLsytnY5BWHZnYzMN9GORJbw5Jv49hpb1zZdwwh3ZtDX37hPAvSRyewduICHIr/GNPcue/EzxH572EDdJ88D1M6JeHkhon4tEV3jHTyRSJ/OCZ6YUHr+TiToKoVhCuTpWl8zeh9XHnnvXoGtjSejIWfGqCcXdMXcOeWxZdYMfQ+vpn+D0Lz6pkCHbTtbQOdaA+4XSqNGRJLIT8pTiwT6clCq4SkMXTr5jcFHFFfceRT1VC/URNhOwNv0ovYc6CohECo5GQPcnrbIpMR7s6mmOow85ke7Fnuq3jvPV6FVz5sdSsuom+1lvm+KvgqoOKquQ1b5+LI+nEfGVbO7HZarufJQpnrGGOmN38r2y6P+gtzpUD5HtxrZ18pUF416cZmeoSreYVKcUWRO0vZ0L3B77YWJXmx+XpiZmRsJG+1yX2/svVKstSbSYW0gqWzCFcH7v3ErN3m23lfaSNlxBv20GWU6uODVGiyCFdmx+cv7Taz22qeqLKES2xZJx3ueOHz03bMwfVREQelqyuTJXivYp3k78fdTKcy15DiG8Yuiz3NZpn3Yqt9E4UUTZGx9IcubKjOl8zlYY7PI2/xsWQzPGO4f2Tcv8uZRGeOcJVecdVeb74XS5I/OJfUG8zRkivD8mwhUirlwc8vPNkMrlwxWu3LUvlJKrbOYQ7Lj7KHebZYCL0hVPRikKU8ZhdcFrBBxnxPhGnMI45/jTT2MvGViryM/9yWeeRzGSzWcwEzf6f8z2Ap8dEsKioq+xad+IZ7LlffSHn+Nj0+pey1FqUHMZeh3Gd1Ccrz/Mzijj++7iIez9UvSinj13x+Ukyi3Jm9Mk8qVIsMtQCpr6j5lNBiLPw+xo5+Gj0/NT4JApPexNZpc+DWfgMOrxoI/UJfxWN4fecSXAOlkAy3Ruva6j+/auu+mDCGC1N8juDEzSQhVYFFXscxDwm+H94N/yekFV0WpAE7MW3cKbTfthWrBhmqeYXqI1ja2EAPkfC6cAcx/CEhJ0Oy33nsix6IxRtmwYq//7R/jqliZUgJ9MGxxA4YY9MSdYTUgolQtVp1YZuUfa8RG/aU+9sQLZp8lE9rIqloRFWrobDXTEU61pjzxzL0lU9QcAu7pq7Gvocl2fdeCzrW3+EPx6GQv2XwVkxd/DcepmZnVB8gCTf3bsbG+sMxuH2O8TIsCY+OLEHv9yYcyEL8ienQFrXElBNRQlpRiVDNtBfGDLiGues9s6dqZQlReBSph+aNFS0+cWGPEWlhAkk9LS5Lfo6w2y/R2giIDkuWl+45ycLv4FwA91sYG6JxHY0Xw2rLinkC/0QjdKr/DEfnr8IZ05nYvmIYzMR5XUUXocbHXfFF5mOExQn9LLIe4uS+63heszl6TZiPBV+2Boz00KD6E3jMHoKu63zx3oiGtGe4722A3m0av5/Pvb6FvT8dRP3JA9E+u/x/hfDjS/GJvj705TcrTPWI5L53htTAvzBUnjYIi08XsVUyL5lxCDiyEbNG95KPXdbuOBzT1/wFN7edcF6zAFO+GAfngsZEVDNBnzEd4DX3N3hEvdPGmK1KgyZoqQNIz/jhfkrpjHbSWH7CkvHk4k4sGP0dtuUe68Ji4fvLFIxeeBj3Kv1aUeRDaTbn5buEOS3F8pSJOLzxa7TKMxPNjZ9F5gHuPeezrky8CA9GICRob6qHQq2aUEWCbkM/4QpnP7h63c8xoDAdkb5n4WHUD5+2+fAZQlj8ZTjN2oKU2b9j48Qc3fsKVAV1236CL97L6F4i4NIlRFv3RvchvTHcWgdST1/ciVdm5cm45+uLaL1+6N+xvpCmjteICg3l/hqjZ4vGii58pOziCgbFYE4DNGtcQdYLIWpgSIsKRQC3pdOzBSRqn6haqNthPBzXjlIEJIl7MWPaDvgVdYICdbw3c9QyTPvtOpI/MAZiCVex/1dP6FlboFl1ZYbKkBF8Hu5PG6JTRz1ILz5ERHaemcrlbcGQojFM9HJ3CS4CUSO07tkKiYePwusJP1CXIf1ZCK6JTdFcn1/f4xWeBoe+XWSR/7xV0uFz2AdPa9TIVYnPwotHtxXrkjRvCJ0ym/FmISnyMYK4v6Euv+E/6wX4UZ3uZnU74IvZmfAJei7/GvjXSfBeiUFWQzB2qD1+eTkc7m7foUs9I3S0boYM3Y+gLX+cEvfdPriBs1ZfY1hr+ZGbA/dalw/jV9+GsG5lgLeX7+rBwn7p225aHJaRwT1ahCrVqnH7LEGvNc74dezHKLbVWOTd8MbDeuRs7MFoHAp/ittr2sLvx28werQL7mm3Qvfe1mhRv6BvrDqatO6Etomnsc8rj8kc6jaAAV+0R99C4JNc3eM1RgP5Cb8g8LoJ6PvdA/T4dSOmWCoHyAu487Db7BVwSPsZw/LtNviWLOUlYoRtZHflJGVDVeg2NZGvEcVLT36t0cVQNRgAcZX0gz9h0k9XYf5Zf3TTU/d6Jhf8xP8Pm6bMxqlwftxLGuIin3B/q6NendwFS0GqQ9KtH4aIpQh0vYQ7r4WTRxaK8zvPwWi0DdoUokVJpcwAHFw4Gz9dNMJntp0L309dpxX62LXiMrpLuKS8+vH6IbyPhsFqVFeYVDNCt1FWXOZzBZcDhfuzuIzXMwA6Q63QSrsQPyn3uheP+AHmQ2DbqYGQSMqsrBeI9AsDxIYw0NVgH2pSypIReNGLC4Cs8I1tO8Vsa+oSfQTLKavxxxhT+b/Sc79i/m/C+IsSws8cNeXX1Rgj39FInPtpFX67qqwMFwXD6yBfuEfroXULfUXlS06EamYjseg7a+hGRgPGJmiqq6zdJCHyHj9rUjNIGhbHuVIDugaGEEuv4OSNaG6PRKjRdTGepDhjsC4fwdRHj5U+SNjUn9viaJljwukIpFz4EZ++V9YpgzPAyExf8fgy6Q2e3PVHIvcb+vtnwkBfR82eDPXQfuIPMDx6RDEboNbH+PqvE7h+/QT2HzuBf53nYcTH/HhY/nt4ytVJG777uiwaF91i8N2qITB8rzhLQtD/riAayrFWOVQ1xKBFyzBLPg4tDMfmOsE18Cr2rvwNd20XYuP0btD5wOI9J1nwKaz56TT3OxpjyBefoZNhExjb9Mcgeezvg+PPmmDolMno36zgkEuxIGQY/j15E89UnSha/wdJR/6Fw3Av8t3eKxpVkvkJS4Dfph8wdF0VzHBdjEH6/HnzGk9OrMG4cWtwJlKoGot00WmADZ7v+g27rxY8dlmWkoAQYZuUbZHh8WqMcS0+GgyA6sCwVRu0FCfC96dfsDeooKbTPzFSvxpEoiqo1rAH5h0vnqseIok1vhzLBRiBp3DKX3HyyB77wO1sG0we3LpwLUqqcJlwq05mXCHtiZ9WuiGosN0/uJO7jU1n7vkP4HUrAun81bBgP5wKbA+7T0y4EK4OTDt3Ryv4Y9+ZO/KDRRZyHUevNMDQvm2gq3YG/xoh7lux1tcIDivs0aM+tf+UeYnReBzL/W1kCD2Vl40zEX9hOTrzU7g7HMAj/thLvQXn3voQmYzE8hMPECncb9Lrc65QGYevB3eEtuEKXH4lHKd8l6ITGzG1d1t0HPwVxn3Bd+3guxGFC6/NT+c+HSfic171Y8h4tBPD+KnotT/DCu+YQlR2C9rnx1w1qWCyCDd8VZ/vBrUW3tkto+mIcJsI7WH78CR7h5IR4DyM28/R2PZeHpSG+IDz+JfvvuK8E3+fvYP4Agf6Krta8VOTq3lr74wAtS+act9tyAn8svYKTB2m45seuoW86MOpZoox69djiilfMYzExSVr4JKrC3Dx4gIT45FYv2MG5NUk6UksmbMHN5UXnApN6F7G5c6NP6rzfqEVH467XA1H3McchsqadFY8Qq8/5SIMLihqWByXfLWgo2eIRlwF1C/yBferf4g0JD9XfP9aNaqV3ZZ32VMEnHsIsZ09xhrdxuErwdyeq0ek0x3zVreC756z+UzznIjwu3h3XZbMWPjtOYoXX83HF81VlMbyiSf4bsD18ZGK6YxFDftg4abvYc7/k7gL9q2tMPX+UOzZMgGWavc4UQ/LTM/Ri0SQYxKn1LSMt93t+N4v6xww2vlG9hIZ79DRg0kj7q9fJOJUfV0iLVSTv/ArxCS+LkT+WgJKJD9heH1zF6bP80br5fMw0VLo4p18Fdu++RF7957H3Thl90At1G3QmDsCgnAxKJo7F/lJtZwwevTv8KdlIUghaDAA4teLGIu1jnYQS90wb1ZBTaffwj0qA4zJkBHHnQTjlSNzqqCWmO8DnoDQuKTCF0SiRug86FPo4Ap2nAjgqkOpeHzFE2et+uOTlqpHz7DnATh15AiO5Lr9e/mJisqZDizHL4ajrRGkx1djVq7uHwW/VnUYtOsOK65w8Dl5E2GyN3js6wWfVt3R2ZTfPxFqf9wFn+kB0aeu4d7rdMQG3oCPuAcGdFTRX1olfjalTZj83Xm0XfYz1oxULlhHyrKs+KeQ19nzbMavigbNTKCPthj37WCY1ZQhOfA/nIgeDJdjO7FisDkMTD9Gc+5+h3Uu2LNnD/b9vRXLPzFCo1r8kfMaoX8vwtBfkzBohzdunDiAPX+fxgV3B7STNBBemyO9hYCQnMV4Mu4cP4xjfNKgcZjYQ93jkFfQPpuo1WWliqQLbPsZQce6BzooWwHS7+Ff56OQBsbi7SRTDJnpmei2fA7sLXJeQc5C4oWV6G79C3yl2jBoUgXBO8ej+zd/F9DNQgu6g52Rwhg/oYx6t5vTYalmXYzF/4c1kxfBo+0CbF0zDM2rFTr84YhQ1dAWP21RVAx17EZiQItcV8+LXU0YDp+PLbP4LkmmsBvXBy3kx1hRZCAh9pmwnRtDWvgDeEMM048lb1tTEiJxL5g7ILsYo0l2l7lkBO2bhd4m3bHs8vtXjvnvet3oiXD2TxRSVAu5G454YbtoXnExW5ywXXax2Hu47ANY9fsO077vhgCXk7ierG4Fkzvm9HrhBwcLZEnzGHWT9Qov457i8tlbiBdOMZaahnoDJuHLvGZMzUriyrucawHmVhUN+03HJvlxxxOj1Tg7DDDMmYvkfxyoS8u0N76Rt4SE4Jz3HcRlZkEadA2X+YtU4kGYa9chR2ttJl6n1UEzA538x/KFPEZ49gUcVSIRGFuEek+xKoH8hEXhwo7d8BUPx4wvLLMvRGc9CcQ5vte3jiXMJblLggy8ks8axuXprzNQu1kT6NQoah5DKiMNBkA8bVgog4Nzv2Lxdj81+oZzJ5tuF3y76x/M7cCfZDXQmKsw6XABQlBAGF4U+lJIVeh27iNf2Ct633n4PQ+Cp8tVWNn1QMvsgvJdWeHnMH3kSIzMdRu+4xa3FyrUbI3xaxfBVsx3/1iH7TkWDlPntaqYWMGuHxfh+PwPtyKCcfXoTbTK2T2vbhv0/7oDEHgRV+6H4Y63L6RW3dHOQJ0JDfhM+gDmT/oLmO2CA0s1NJ0s+UAyvIqJkDfl59dtJishFoFoCsNGNZEZcQwLHG5h5GHH7CnYs+Ii4Qc96NUXiuHanTB333iYcTkBi/LE6qlPMNFxFgY3rytUQLiK7Ij5+NayjuK1h46FvWU07oYnZh/TLMoLvx9riG9HGEPC71shD6eC9lktorrQN9PL0YTOBVLXjmGrD3dW5ahUsAQ/HN7zESbZWuRq7dXCR53HYbvHZiydMAojRo7DzO9tkbrrEM4Gl06feya9g13zZ+MXfIN/D8xT0ZWqENhLhPgH4qnpDOzYMLYQ4y+Ljr0Mhf/taJhOWY8NhRoLmZvyopcqmYgLf4wwGKBzc93s1pSsqFBc5+Ifo9ZN0TD7fevCvE0zvAxpAqNGKloXMlORVlsCA538v2dxrervdtkqQ7ICnNFeVaujqtt7Lbk5ZSLG9yx2S61hZ22Jtn2HwOrBPzjozXf/U59IbAjTxnl8n/JugrdxbFGP7J4L+T6eJ6oBsV4BnUCz0vDqjXKhCykC12/O1eOkgONAXdXMMHb7cZzY/D1auAxGo2pVoTfxDBp974yjV3ZifrcGb/MvkQH6r/gN60YUcLFRXB3VP6A8Lr7fvwDFnZ8kBuK8WyDwqQ06S5T1mCwkcWVeGFfb67b4K/TObslNR9Tj+4hFC/Rt1YQ756tBr/8i7FxX1AtEpU/l71PEW0E0doyUAxoOgDj5BAfq0YJOy04YwMVCiW4ncDFSnQ4y7xI17IpRk7kAItoTR5z3w82nKyYOMEde4UPVDnPxWNWV3D0j8lj/QISaFl8KrV3H8NPivdkro6v1WlUM0GFQe0Dqj8sHXOF2tiE+62aao8L2EVr1sOayBT8cO/svLh2JQz87K5gU+Gvywc9+TBu+AuFjtlPwU65k4MWzCERDAkvDBnkcq5mI5yqDIXqG0Bddw4ZJ+9Bw0xpMbKUMJIT7VXYf4So8V8/hcMdh+KyNqkHjiuemtxmIwTZi+ARFCt0/pLjzz0Ek2A9AG66O0dJIF7Xk6eoqaJ/VVRP/p98QuPtU0YWEPcX5Xddgu3UdRiEGcYl8hSgD0ZfccbDTCAwwfb/iIxKbwcbGTKioi1CjtjjPPKGkyYOfaeMxI3zEhwc/SEPUyQ2YsE6GOTsWYvg7V8NLSGYETq6cj3WYjB0rbWH4QfmMMP6Gq/gkvcq9LsxrPHsczP01wscSZZCUhYTIxwjm0rqYNM7xG8rw6kUMYvRMYNT4/V9WpNcfK3auwAhVXa9yaGSil+PKflHkXP28eGlZTsdNVeWLqlv2+CVVXuCO91XAuje6GtdE9TYjsGgKsG3dEdxJL1yJXay06sPAgu8rJsWrVBUVM5aEQJdlmLS/MX7cMAOd+DS+x8nigzm6o+d/HBSGqE4jGNR4g5prbiGN+05T/I5h+/ppGGaZY1xT6gO4Tu0Bbe2vsS+0gE6EeXZvVpKgVaN62YF+bsX3++en+PMTxWyDgLH1x5BkZxUMaa+kSDQdj8VftX1b/8l4jPOHLkDa6XMM71wdj1xnorN2MwzfF6x6AolyQOXvU8RbQTRzjJQPmg+A8gkO1CWS9MKk7/mJAA5g6fJ98Isv7LwR9dGxfz8u4LiF31dtgk+/AbA2Ke5KgbgIrV1KdWDe3QaWCMDvP67H2fdmd6sK3TbduCAwEVcWL8D6yPYY1MGggB9TGfw4IWH8jneDHy6Ddlu6FwFppViwkQKkIjYinPubewps/nc9jC1n+QXy0hD3lHtMvVAc/nEhLo1YlWvWJuF++WBxLWRGn8OK5aeF7jzJeHw7ANrtTGGg8ioa/9xoLsBpidZtzBB5Jwxx3OHCEq7h0OGPMX1AY8TcF6NlE51CZioF7bO6qkOnYWMuT5DiTaZidrC9wQPx5eed0EwvDlEvUrl6Txi89oVgvMMnaiwi+wqPbvgipFUXtDXKL6Qr/jFAiuBnAtYmjMaxd4IfKR65OWEnP32y2hhSH/2DJbOPwGztKswtVPfEouL289BazN5hgLUbv0OP7IkJikoL/2fWVj79f0DEcy4Mykk5M2JTGMgnO+AnzfHDEXd+0Wg9mOkrWzJ57y5OyiLc8KW2GRyOhOPNI1dM7awP7eH7EKqyFqW8eGCJwa0/dOHNmqinq5j3LCuNn6ms7GFxN/Dv3jj0c7CBOV//Eemj38xZGHZ/M9a5BXPfhhJD+iN3zPliC/zz67lVbOrDrHNr7m84ImJzX/zMQuLV7Zg+9z90XL4U8+b+iM1rBnElMXdEvtMdPa/jIIL7NIXDIs/i57lH8eLZffj7+2ffAh5F4rnQ9Y+9qo2On3+GRtI6qFMrj8qkMI5NZ3BrNFN1cLEsZKTxR0odNNaprYFzOC8azE9YMsIfPIHRuC/QV0/ZbvYaoUd+w3qvlljuNB5d6mSiesdBGNVIC3Xr1CyNCq2G8PnaHZz91xU7nbdg59/nEFDoei/JreSPl6wMyM9bLtPJyB5QnDM4WInv1p5D9HuDjXM+PheRLnrOWIFlvXQQvPsbdGreA1/MX4dt+/7BkSP/YN+2dVgwfQ1OhPEHCON2IZ3LGjORlqEsaqqgbsc++Fre5KL3butJdkaTz/u/R/keHH7go/JpOVu75i3E2rOROQqO/IhQw7wLbCWK/3S++ARt6777U4kkHTDwU+EBljbobp5j/BJ7Dt+1g7lKWXtM4AorvohVBD8/YDdawrzaLRzY9AucnJy42yrM/Hw4Jj0Vo2EeXQBJGcDiEXyDD4ByTIHNFRChJ1bBtocnGprzg+OliAmNhrhHD1gZiODreR1P3hm/8oYrqPlw5yR+njgeDpMX4aB2Q+FqtmJcQm3derm6hinxr/2GC3AaQ2L6MSTX7+NJihTB/+7G/0aNQHfE5VgTpTAK2md1CdNphkUgKiEBd46fRO0fBqONTgM0acztW1QS0u56YlvcYIzsUvC8WyzuMnZsjsSUn0ajY74zQxbvGCBly8/E3Zlob56Fmwe2COepI9bM/AqfTQrBRw3Vv1jDkq/jtx9+xP+s12DjlPYf0A1NXVlI9tuBH767Dusda+TT2BbHW1Yx6YGxw4wQdiM4ex0eOdkrvIzh2yLvw/uYO9y2LcTISW54Kq8vpSDcexdXYb/H5YE8xTpaem2N0LhKGhewByGm9zeY0KMhXldvg89HtYC0bh3UUlkqCksG6PXDwA+eMbMWDM1byyvmYY+ikO8olOzyKGf5VdIyEXPlJPZnfIqxNs2ESoII1VuMxKq1XXF2xiq4BCbJgwUmfYjDG49A/O1wWH5onKuWmjCxGYJh4nDcCI6X74MCV0GMOIbF41bios7XWDi5I+qKGqDr97PxvbyYzNnjJK/jQP/tscoiceK7jhCZzcaJaNVr8/Bk0kREcrcbG76EVceO6Cjc2rYwhK6erXxCGPyfPuokhSPknVkKc1JOc98O4wZaqm5dVM4A+k5Lp+aVVH6iZdQZo/pKEHLqMgLkk2akIfrCdmyPaAKLoBA84ytV/AQ9R9Zg0tQnGLHnV0XwJaoPozopCAyRvDuZRg5V9Ztz5ZMg5iWyZ8ovTxIvYEn3oVjvm4x6BnqoGrwbo7rPglvoe9NwlI4i51MyvE5K4M5IBePWTaErbGsEVyCXnKxwdnp2X8Zl9NzRK2amdn+y2ynKVa9l7E3gn8xWzN+nxzp9/y8Lz4xhPk5fMVP547k0e0d2PiJVePz7ZCn3mYfjVNaLX1la/hzuZtyL2S91YRdCk+QrSGdFnGSzbSTy+8Q2i9np7NdLZL6rbRjEE5hreFp22u2t9sL7597fvOV8Dy4aYXZb/dnbtXBTWOBWO8V3ILZm3x9/wgp+RZ5iJXGgFZvi8VTFathv2EOXUfL9bLXah72z3nrmXbbVWrFis84MT/Yi58rEKm96rJ/LfTX3i2icLOd58f5NZ4oHi5Uf7PeZSz89Zux4nSX5ObFusGILvGLfHjuyYLZ3qIRJlnozKf//m3AW8OilcL9iJWf5iu/y/3ORv7Yt23xbymShe9lQDGVbr19kjtY/MPdn6SzDz5EZ41vmHiWs4xztyZaOtWf29nndXNht/qEF7TPL4F5qNRur8jX421hm7xIgXz1auV9/XPyHzWz3I/OSr8iv+FzGjp7Me/UgNsY1VMW59C5ZSgBzGW/Feq25zBIKenAxU3yPqn9n+a2fC3uo7okqi2JeC7nzvtMy5hWnmfW1ZXHn2MJOEtZp4TkWV6zfXSZ74fUjM38nv+a9YiH/zGKd5OWIORu04ADzi3vJ5Y18nithNjNdWVAKfxxw5Me/MbPedJJddp7BHLhjIkR5X/ZxksdK5Gm32GYr03xX6y8M5cr+sN7KgpS7kBtXfnouGpp9PIg7fct23E4U7ixBWY/Y3hF9mf3mKyw+92+Y8ZT958jnRRJmbKzHlZFrmfvtWI2u3s5kscxrgRUTj3Fl4cr9S7nKHHsJZbDYjrk8fCNPzgrZy4bJjw3hZsrlV2FB+RwHgqwnzH1CO/kx9a3HMyExtywuCz3NlinfV9VN/vsK5a+9O4sSnvmuFHZ78yAmHsqd2+l5nDQvPNkMHe719BYxr6RSKqlLND/JZCkPj7JltuZM3GEgGznoSzbfxYdFpcezG872rJPNUDaogyXrNeVX5vFQWWYpvFf25BblzuyVv4exI/NTe9cVeYL8eXn+dqrkqG8V6v3yIePytIuX2UPlcSr1ZkslOsx6613umytlH5RPZXA/z7eK74q75Zn/lpCSDYBIKeEyk6BjzHnzIeYblXcASSoYeaZozOzdI7gMM5y5O3CFSc5CNdWXrTaSsKF7g1UEAVKuEB6QdwVb/tpCISN/HWM2YFBfZs0FLq+UmZjRGuabmkcBnpeC9rkw5JWEVmzkqIHMSr5fvJfMd7U1E1vbsJ5G85inPCjKmyL4GcDGb7vK4jKKsA9lBhcYuE5lpuKhzPHGiwKDvmKR/oi5OrRj4r4b2Y2kEiiWZc+Y5yxr1i37ty0k4VgbMMiG6XRzYn6vcnwrGX7M0Vg4Dt+TwWI9F7BWtr+z27krykWVeoM5WopLt0JbjsliT7NZ5gOZo99LIaUQ8jsO3pHKQvfOYat9VVXmlIG3Duu2xoclvfMSaSzWYzbT4yt1fACU8YS52hnlWbmTf5ZWdsyZqzTmtSfKgFk8nquIa+Rkzq0U8hO1pLMIV4f8Aw1l8Mj/HuU1AMpNnl+VkQDog+QMgDT/eUq+CxwpBVoQf2yLadNHo+sHDZ4m5QlLiMKjyIZoqluH7yOJAd9PQutjLth5Wegqwt8flnsMkVJtmH7yGfr6bMPG3f7Z698waRxipFmK164udOGo0QQtewKe/+nCQT6bmjCOx1KCRoXsRlngPheGfLX0QLif1sP07KlUa6C+nh6kVwKQ8f2oXOtdZUH66AL+vRYl75qq6H62AJd7/Iwt33SBrlYKQk+sxey/wwq/L6WK+1wBuzFr0lV0/2MtfuhY/wO6oWUi/uoh7L4al/93wF4iYNsSTLrSGX/8Ngkd637AwFkWi6u7D+Hq81wdhvlxKCt/x6R7f8El4GWhfxPFsdYKtvNm4pvE3fjdMzL7NVj0Y/ip7EbDkBnlifXbtLFp28TiW0umhil6jbUGou/h0dPCT+RT2Yka9sXKf+xw75eDQpcp9eV3HLzF/e7RPjjxchAmdFTR5SwrFGc37cYNaT0YGutB+50TTIbUV6+QCgn6juoMo6wYPL6mhe4GMkQ+fSU8RsBPFrLeDdqbnDA1z+6iWXj55B5uwByjhnRE46KfzEVUCvmJ2oRJULpz4WZktIplSTjyckHYjo1AdKKmupKWFH7dPT+cDbHEgLYGeU6IUT4IdQe5+mjeMO8JPkoCBUCEVAR8pXH/3ziL53gUzBcEItRuPwpzHRLw85RVOBr+FDcO/gMPJOPJrWA8f6/04R5v+Q32HPscUWtt0LBaFYi0u2PCthtIlgmvnXBXWP+nPow7mMH8+wkYZloLqaFnsHv/NSDqMZ7krrTmp6B9jijkIM+qDdG8uzH0Jn2BvtlTqVaF9kdc6SceqGLq65e4tX85vl7vhQjZK9zZuQATd3ti90RLaFcRQVSlHoyHXIdZq4YfUOBrHou/DKdZjng0aSXWjGmJD5nehcVfwq/T3ZBcK7+B11yl5vIfmLX4KSb9uhhjzAo7Diwn7rUu/oHpfz1HLRVBlEjcBg7OP+CjPRuwJ0gxDkU9DOnPQnBNbAjJxzYYM7Updq3fiytx0XjCVUrl98EUBojF0+zZwriKX+gp/Lz6IQb/MfcDZ+LLrS5a9/0MVriOo1cjyu3sVaVHC2KLsXBeUg97lh1EkNpBUP7HwVtZSJJKMHqqjeqZUqv8H5p1NOE2wnBy22b8ecIbfv7+8Lt8Cgc2z8W4SQfQYPwqbJxgidpp6UirmQDff2/gRZ23ZyOTBuPEz864O3gVluY78Usibl+4hES9IbCzaaLxvEjz+UlhZCKDLyZ8PeHzorrqNZa06qFRK2G8tDQd6WqP7S6jWDQu7NiLsCnT8LWq4LxcYchMV4atwoVQTRJaggghhJR3GaHMfUoHJu61gfkkfEhnAhnLiLrMnO3bMfTdxoLy7JLIPS7cnU0xNSqGMVOpLMrnd2ZvKmF9t97Nf6xNRgzzO3urEOOMhK4y7Taz29zXIos6zqaa6jBj243MNyGNJXmvYOb8+E3nqzk+w0sWdMGPRZVUV0ihy2ehxnWRXLjjL+4WO+uXc9xgfvI7Dgp3vshSHrMLe9ayGfaDWAf5OCMxM7YZxb5dsJm5/veQJeZ73GSxlKDL7Ko6XdSTvNh8PZ2id/38EBrPT0pCDPOcYclHPdzNhjn6vR2hnb8y2AVO9pIFukxm5h/8e5QVOb5jflxxkGaPcAqACCGkQkhhD1zsmY6OPXN5oG4h/y5ZSgQL8D3LXDfPYoPkk8sYsWF7H+U9QcqbQOZiZ8p07HaxB2+KUqnJZCkRd5nveVe2eaatYiCteCzbG1IZxi4qJwIaULSxLKQSSGfP3KcyHfMFzDO2JAaT5KcU8pMSIYxvlVeyO7D5XvFCekE0HQDxQeIltnm8lTBxGD+hwCTm7BOjCO7lwc+3rNv47exGXAXJH4VJkOTflXga84jTbFBHARAhhJR7mSzBZwPrlXPGq+K4vTfrWg6yeOazZlB2YV1ct3dm96rwFLOE6o13Y+HletINUhJkST5sTTdrNsvzmZotXMWlFPKTEpPJ4jymCflUXpMAqSDMmirf76F7WajaP8AL5r20m+J5kuXMW6rmE1/5s819jZj5TA/2LCOLvZLPiiphA1zus8zs4Gc3C5RPxJLJUkI82NJZ/7CI8pxtyCckEY4NoVVWk2gMECGElGv8QP3TWDlhJS4WZo1UNeiMHY5e2eOpchJWg19yEsX7lq0w9kvrHKvBV3RiWExywj7D09jkqe46caRSYC9xZ88uPJ70O1b2y7FGUYkrjfykJGmhvsQEpvJtVYspv49Jw3D5z5+x6likIsHrEHadDIaUr6rnh0kRcflv7HS9q/g/cieW/3wUQc8LHs+aFXwFu88Bll1bQa9qFdTu8AOOP7mKww7m4A4EfD3xT/juHo9W2lUhElWFtrE9Lpq1UGNR77JLMSGJYlvcuTn0NTyjg4iPgoRtQgghhGha5lNc2OyKl8O/w4jmqpciJpVJFhKv7sTmkC6Y+2UbDSxgXMElX8AC80+xIZrbtnNFxCG7fC6yxOOy0zLsuJt7kdHaaD1pJeb2yHupzqxHbpi55hSShf+z1f0MSzbZwSyfCj6LcMNXFqPh0Wk5Du2YjUHN65aryXcKjyHt6jqYd1uCMOihn8sFnJ5grtGZ2SgAIoQQQgghFRN7jH3De8Oeb9ExWgPfB4vQtUYZCy9YEoJ2zcPwiX8h2HgkVm9ehxmfmVbg4DcDkW7fwnD0Lm67G5Z6n8DKHsr5yjWDusARQgghhJCKSaSPDgPaK7bD7iE4qqBOcKVAVA8WE7bgv/82wq7KGfw4eAzmHX1SgbvFpiAs6IFiU8cK3S00P6U3BUCEEEIIIaSCqoWmFm2hWA3oAQKfpMi3yp4a0Os5A/vPu2C8jj+2bTyDR+V93da8yOIQfC1Msd3TEmY6ml/SlQIgQgghhBBSQYlQx7Inxujx2w9x5mYYCrnMdglLw/PgUDyXL9IqQlXDbhgyxFhxlxKLweV1DhjtfCPHxDMMqY9c8d2whfAo7MLhpYzF3sNlH35Qlh762XZC01Lo6kcBECGEEEIIqbjqtkH/rztwG1IEXLmPqDIz+l2G5Mvr0cPsU0zaex8ZyII05ArOnsuC7VdWaJ7dMJKJ12l10MxABzWEFJ7sTSoXQzSFrnZVIaU8YHj9+A685JGcNeysjUolGKEAiBBCKhAW/x/WjZ4IZ/9EIUVdaYgPOIK1o0fCyV+d+W+TEbRvFnqbdMeyywlCWlEwZMbfxpG1X6Gzkz9NBU1IGaK5/KSk6aBt796QNwJ5+eBWjBo5TeoDuH73JaZ5hHFhSmEU5rOLUMugPYYNqoljEy1QXVQVenYe0F19ENsmtUZN4VEQGaD/it+wboQJqglJ/HNrW47HH1unomspdCEruhQ8uOYD+QzYfT9F12Y5QzrNoQCIEEIqksxUpNWWwEBH/UKFxf8PWxyGwW7JZux0UzeYqQvzNs3wMqQJjBoVcepmFgvfLd+in90ibNl5HB8SRhFCSoDG8pOSpoX63Qbgaz4Ckt7AtfsvFcn5kaXhNRrBTFes9pTUhf/sIlRrNgTrTtwHPykzf0vxO4hVE7pBr6rwrnwgNrUHtLW/xr5QZVe3TMRfdsJQk/po6+RXxrr0FUAWhYBzgdyGHvqN/gTm1UpnqjsKgAghpAIR6fXHip0rCrWejEi3O6btOo0Lf81AdyGtYDK8ehGDGD0TGDUu4uKGokboNm07LlzYjmndGwmJhJCyQnP5iQbUbY/h39twG/44dOk+XilS81bbEhP+2IhpXRuoHQCVxGdnr2qj4+efoZG0DurUUrb0pCHN4BOM6V4fUm7vylP7Dwu/geNnowHxQEzo07zUAhEKgAghpEJQDIid2lkf2sP3IbRwfTaKIB0xYY8R3doEBuIq8oX8vtQ2g8ORCG5PCCHlm6bzE02ohw7DR6MvtxV59Aruvs47p5J3/RvaEqK2TvBPK90cTfR/+qiTFI4QYxM01VWO9akDA0kVPP0f0L15Q5SfEUDpiLx+CV7clt6kL9BXUsSLZ8WAAiBCCKkQsvCqeht8PqoFpHXroFaJ5+6vERv2FHptjdC4Shpi7gchpvc3mNBDX+2rpYSQskrT+YkmiFCt5UBMcTAHAs/C606SkJ4bQ1qaAfqN6cHPmQBolXaOloqo0Id8pAP9nJFOfDjuhujBTL+ukFAOsGfwPfYf97UOwOyxXVG/FL9aEeM7HBJCCKkAInFkXC/Mb+2GB3Mbw2vZMhwMz2+w7yeY7TIBlspCNfoIxulvQWs/D8ztIBYS8yBfXX0AtvdyxroqZ7EzbSB+nNIHzcUMMWd+xryDj/K5wlYPn8xehwmWdYT/c+53h3J0NZOQikyD+YnG8LOurUKXnk6ouvosri3pBtWd+6TwdxqCjnenIWqPLUSFzdOK87OzMLiN6YUlHf95J3/MCnBGp7a3sSDiT9hJ3k6NUJbxPQW+shgNjz57EeD+NZqXZmDNB0CEEEIqgAw/5mhszOzdI4SEQopyZ/awYY5+KUJCPqTebKnEmA0YZMN0ujkxv1cy4Y6iiGDu9sbM2NGPZQgphJBSpsn8RJPSg5jLUCMGvXnM80WmkJibIk8yWu3LUoWUQinOz57qy1Ybcb/DoessNFIqJGayOI9pTCxZzrylH5L3apKUBW0dwQArtsArlpX2XleIRk1CCCEAi34MvxAJWjfVEVJKDkuIwqPIVrCdNxPfJO7G756RNPaHkApEk/mJRlVrgWHTx8I82gNul56pzreyEvD0LtDFpDFKb5SKIC0daTUT4PvvDbyoo5wYOw3xTyMgbW8Mg9rlpNPx63s4tfcidMZ8h8k9dEu9qzR1gSOEkAqBIe3qOph3C8M6vwWwtqiBoLXLS6jLivBefWOwJXQVJIe+Qtv9XeF9YiIM0mujVtBv1AWOkHJNk/lJKWARODKxP8YlzIP/YQeY5Z6KOf4EpjRfi4anTmBlj7qF79Zb4p89Fmdm9sfkultwf2UPKHPSsisLCRdWoPunfpjo58p9J/WE9FIkbwcihBBSzmWxJO8VzByWzM75KksobP8CWSy74ezATCFhvRYcYyFv8nuBdBbh6sDQbjO7nck9Neo4m2qqw4xtNzLfhLy6lOQlg8Xf2MrsTcVM3OtHdjxE2cWDEFJ6NJmflAYZexP4J7MVD2COfi+FtLcyg7Yya3zF9oYWoQNcSX72jFh2++xl9vDlbbbV2oYt9X4u3FHGyUKZ6xhTZj7rNIstI4cCtQARQgghhJDKhcXj8go7DI38AYEuI6Cf3QiUhYQzC2AyWYxj95ejR50y1MUs0QsLujjg3Edt0HbsPKz5rufbBVPLLIbX/r+iT99gzLi9CXaGym58pYsCIEIIIYQQUumwOE/M+WQzGuw6gEVd6+B5gC+CarWA7oXv8HnULFxb2RPlaJLpsikzBG6Tx+Bglx1wm9IGZSP8oXWACCGEEEJIJSRq+CnmObbEvvX/IjjjJe4eXIwhoz/Hguu98efULhT8fLAsJHjvxupnX2OlfesyE/zwqAWIEEIIIYRUTplPcGTaNJzruwVbRjSjSViKEUu+hl9G/QKs2YY5HeuXqUWyKQAihBBCCCGVFENG2FVcSv8YfczqlalKermXGYVrF5/DrE8b6JSxL5YCIEIIIYQQQkglAfw/u4glCJl93tcAAAAASUVORK5CYII=;" vertex="1" parent="1">
          <mxGeometry x="160" y="-773.48" width="202.93" height="20" as="geometry" />
        </mxCell>
        <mxCell id="ViJQnv-lOq2HxlMQcMpX-5" value="" style="shape=image;verticalLabelPosition=bottom;labelBackgroundColor=default;verticalAlign=top;aspect=fixed;imageAspect=0;image=data:image/png,iVBORw0KGgoAAAANSUhEUgAAAq0AAAAvCAYAAADJu/NRAAAAAXNSR0IArs4c6QAAAARnQU1BAACxjwv8YQUAAAAJcEhZcwAAEnQAABJ0Ad5mH3gAADugSURBVHhe7Z0PXM3X/8dfkT+zi2Vjq4mmsgxf/KptDCv7+rNF9WWW4ZuaWdkXZST5rhhlm9sQ+yqbNsJkVCy2ZsRiyioKIbpSqUvRH12kP/f9O597P9W9t1vd/iDb5/l4fOpzz/3c8zmfc97vc97nfM45b9BfivuUHjqVAJCxbxzJ+FCBJwP51TByYGUHixUUV1LFhzaVMso7vIpsDcaS564UKqyQ8+ENIC+k9BgxTTVg94YNiZNK+S/+5shllHVkLTmZW5JLaCqV6pCVjw85VeQdIj9bC7Lx/IFSCsv58L8A969TYtgnZM3pBtwoIq+C/+IvRPllCncdRiLblfSLpJBKb/5O4rHGBPN5FJFVxl/UQkpTaJu7LYn+yvnYTOT3M+mIeAaZm8+h0PPFTJtai3LKDndVtMm6HRMoKKWpLbeg+080TdR9FaO1kkqvHqVt/vPI3tJQQ5CqDxGZ2jiT94Z9lJLfShVJq5JL0W4WLJ2m5ByRzYcJPDFUJJHYlJOz5lRcHHIqz9hB7xsMI9fwy6y6bArZFOFsyu4tGK3qVFD+7wFkK7Ilv7j8VmzMWpnydAp734LMXcNJUt6mrevmUaMbf8WGq4pK4laQBQxoZPA51hJxMEOk9BYVlLbys8riyNf4r5qPLUQupd+Xv00i61UUV6gshZZTSkliG2aQ+FB4Ygbl5eWxI4GC7ZlRghHkG1Mddpl+F09hHYpmlIug+08wTdf9dswYBckuYd9yJ9jM/gGSHq/C+eN/w4b7wtAZ4j0RiNgbhmCxL+bbv4ybx8Lw5QJHDO03CQt3n4eMZWXboQrl9yv4c4EnlzKUVzZDsOg6fv1qHWIclmLFFDN04IMfPSVIDnwbZoHJqORD2iaEe8lfYYRZIJLrTag+eo5yx2qfDli7Khxn77UpheepgPTXEKyKeROrVjigXwc9PlzgyaAM19PO4BJ6oF+v7mivCNODvuhZPCfSV3xqNTp1QbeO/Pmj5l4iAkeMQ2CyjA9oY+i9gFGf+MJHfytWbU/FPT64ZRQhS/Iqtm31g5OVKQwNDWHYUx+ytBz23Usw799bGWZojtEfe2P5WHP0Zd/rjqD7TzZN1/12JDuL7+c7Y02nRYg98g0+m/tvOAzpCU6kMNYBM96djMlT/g33xSuxYf8pSCUxEDsNAWS/Yf20j+B3KI/rAggIPHbkmccQur0nls0bjz76j6vyqoLs/B6IV8fwn9sunO5vF29GPP+5XvR64DUXN0xN+hERyYV8YBtCfg2HQw/guWWzMalPZz5Q4MlBjvuyEv78LwqV4Pz2DVgd37YHVfS6WcFl8TgkBUcj+Y6cD20JhhgvXol/qeplQRbOSdh/YzOY9FLpQXSxxLzIuRjSFJtV0P0nnKbrfrvTId6Y/cdILHO1QjdFOy/HvZJCRS/LuG9PdOOCamgPUb/xWLx1J0KdzNnneKxbGYGz5W3dbL2N5O3rERgYqH5sT0ax1u93Ibm4SvHN35cnLc/KkHEsGvtGTIX9sO58mDYIlQUp2LdxGT6aaIWuel1hZjsdCwN3IyG7vrEF9puiC/j1u9XwnGYLMz0jWE2cg6Ub9yO14AF/DUcJLoR7Y9LwOdhdBEi8rNBBTw96isMMsyIVXUGGrvFVwwxhZpCHBcyHg5URi4tL87uY5b4JCZp5TneRk/AjAhdOh61ZV3Yti/s9b2zcl4KCmtFrOWQXwrFw0iS4777CJRRWHarTyY5ZkZDyV1ajZ/gaJjsVY8uBVNzhwxRwo9s+78Cs63j4HMltXgeW7kGavA8bl87BxJrnm4Wlm49DqsOIuzzjOHbsG4oP7QejCx+mBpXh1pVkHNm9AUtnLccBaSEyj4YhYMG/YNWVPa/ZeLgH/IAEqXreU1kBLif8gp0bvDEr5Iz6qHmlDNLLpxCzMwjeszarjFSzspXlIPVoJEIDPLH0QDbKpMmIDPRUll1XKzgsWIPdyTdZfHLFd/s2+mCWbX9lWTnMx+rdySplpQ1Wxid21qS/q9W/4Bm4rx7ZYegkExyVkOWk4mjkFgS4f8by6S4Kkn/A8lljYGbmCJ8DEuhqclFZNhJ2B2KhQr5ZHiue+3OEHZVovJ3LQeSsobDyOsbOJQib0oeXQ3dESpvynoLPy5DPeJ3iytUW77mvwHcJeY2+8WheWSshmQRHwz7HAgeuPuHvO2sBNiTcVl4gO4/whVMx3H0HinAMXlZcGXDPWPc56+bbq3jPeyP2pearpElTxnJYnZaEnctdWfkOxkSfaGRW8JlMd9RlXa8/bN+bBfcN8Xw9rkkHGI58B043o3EgSb2DStIY+Izpj662K3BEqqsk6ONpUSeoDiFU5V/HOe5kQB88/5TqN+3QWdSF/UJ3GtN9rlyvJB/G7g1Mx7wPQqpWVqyeGeOOgO0JGvUMk6Vbl5EQ8wM2eC9EiNrIOJf30npkRVN/7rB6LRKBnrV6umD1j0jm9LSmzpul1Em1eqEhmqb7uskTo/IOclKPITI0AO5LWT5V3kTyzs9YvTQAZhNZnZmp+7j7Q9f9I9/spNirJSpz1croatgMFrUhjQu9SNqXw8jpblIgDedKEDMo7Gpbmd9aPS9Rc05rJZWe30ou5iIuy/jDmOzZ8ylnTVQ/MxduTk4hKW180cmj4DHkWc3cnWbMK5VnUriTKQ0RJ7KU1Yec7qfvIndrbs72EHLy30mH4xMpKSmJkuL3kK8NF1733vL8E/S13woSB4fR3og9FLbJl5wVcYBEYzdQyt3qB79LeWl/Uox4suI7Y48wSuDiVhzJlJZ3V3GV7vFxyKlcEk6u5oZk7bmDEiXXKU9yiiICppO55hwneTGdD51D5qKx5LHlZ4pn902MiyKx8zAWtzGNDUpmKVRcSPfzLlJSjJjsuPIz9qCwhOp0siMtj+4rrlOlgvIi3ElkEkDxZSrpy4sgZ4UMsMM5gvL4YJ2R36TEDa58mn+llKvs+dL3k7e1AYtTFzngF3oMEVOSarpUUVuAM5pcliwiL9/PSSwW0xrfOWRrqpRx9bwvo+yYFWTHf2cqTuLlnqOKStN20xI7bv48i9OU3bvmy1uUuOlDshZx9zIkG4/l5LfEj9awe4nXfEputubK34gc6NP1K2muh6/yO/Hn5Os2jkwVaTQhh9A09TnZNboxjrzEX5Kf/xr2mzXk7+VElop7sfTbrqGTmnMRdZYJRtEp2uQ8gs8nO/LyX0IuztPJjl/jIHKLpnz+0oaQl6ZSqAuLXzSBlmw7VHPPILeRLO5hGov6OJ05TmEelor02IkP8nJ4kfLu11OedSijvN/XkZO5Cdl67+J1JIHCvScon0W1fLTOD2xuWTP4RSSw/oR2KOZsZlBixGqWFvPaNuh+HqUlHSSxHTeP05I8wuJqdU3lOavzTWSzkLbEnGTfnaK4nwLJmauDRY4UlFKiuE5dxozpba/l5O3iTDPtLJXPK5pP0fmcHNwlSfhcVk+MJs8dCSTJu06SxL0U4DSkYV2VZ1GEizmZ+Mer1KWc/rsp86BFa0YqKT96viKdBh4xdJsPbR6N6T4ru5Rt5G7D5TtL92gXWrLQi3zXaOqbhh5UZVGMjwP/nWYdVExp4T7aZUVNf5i++fvREm31jN1SWu/vSR78d+r1wnQKTa9JiZJm6r7u8lRJRYkhNW0Q3l5I/t4fkvNMOz5+C3KLzuWvbZhHoftadg+4TXG+w1kkw8k3rgGRqpnQ3pYWrtRntHJUUmHcKn4VHneIyGLhL3STyxt5PsX52SrDPKMpV5cV538LHnGetcRoLYsnf5Mh5BFzgw/Qwv1UCrY3UcTvHZOt0jBx1L8QS15RwXJCFTlVXI8id0MurVNZJaNq4tVW7uqNXy1Ni6+EksRjWbhG55AzRnZso9iC6piqO5LDyTM6S+2+8pLfyW8QV1F9QOFZD/hQRrXBqdkQ10NlShANgyuFZ6uYU9WNNquQPojIrKeTWx/VjapmmsspL+57Eocep7xG5aqY4v1HNt4A1rsAh+V9bjR5WnANiuYCwNqOmbayrNntok7+FdCRJVxFbEJO4ZnsDrXI72dQlCdXv4poWFCKhhyUUW60F1lwcQ4LohTVL7UaWxyscymJoiUKI9+Ahov/rG18myMTJUdoiUIOa8tZXppOsVEHKT5bozHVRk29UPeeVJ5GoQ6c/k1gOlbMB3IoF+s0zxhi5ZcVQe6sITZw2U1ZKvIiLz1PURvWUUhMRm0nrN58bE5Zy6ksSUxDWIPrEHZFpZy5Dv8eComV8p85GlvoWczyYALBwouic1W73ZVUEreSBrF7i94Pp6yam2iRMVYnpMf+RNHxWcrnLUsk8RBWxg5hdFVFCDnDYkfIMRZDfcgoJYilxSmcsmt+V915ZvG1aEeHu5QW7MDSrU3+m4ouui9nqr+cjLmyq2OoN6Bv8isU5sAZu9rKqwFZ0aI/SqroflZUPfUMoyKLouurF5ql+02VpyqWdB8y5PKiptxZ/OnHKCo6gbJ16UA+It1XLMRSgwpx7ex1dmKBgSZdlWHaqJnQ/hKMe3VSBLVt2sNgpBu+8rPlP8twad1KfHEoG4UnNmPRyqMQ2frhO7+3YfTY5kO2NZ6gPCvMw+VrBuj93NN8gCZy3EmMQtBP1yB63x0fjzPW+TWUnr4+P0G8Gj3ov2iJsWNZXxwFKCxt+IWOJk2LrwRZ567y5yrodcfAGc6wfY6PifIQu2Ur4o3HYbKt+rPpdXsFb77zMiu+ZMRfLOJDm077Xr0xGJnIyVd5FdXBHE6hJ1FcfBJbJpugboVSP5QXA/+5wZA6fIi541XT3AGGo1yw+IORMGxUru4g77IUPXo/pzGVSYN6F+CwvDd6HZPsWf7gCpIlqq9E26Pz0yL+vC56nZ+G9okondG9J1d3tkenDu3VXo3qdX4JYybZwJDp0pULOVB/AdsJRqMnwJ61HLiSgZxCXabbcFO27OCxdBoMUIT4Hb/j4gPWBnA0Rya6dEdPxXvWjujA572eqD9sHd/B68ZaJ1+oQdLj+H7jUWDIZMwcq6FjHfrjbecJECEGa39MVp9m0mzuIPXHbxFy5WXM+fcYtbnseqKBcJzvCbfxpqxEGqM5ZV2FwqwMpPKfamFlMvBduNm+wH9uHMo/ji2rY2A8dRJsjVTb0/boNuQNvMNkQhaTiItF1TKhRcZYndDfdhImvt5H+byF2TiXWnfRl57oH5jh9iae4z/XpRN69e4LJOUgv0YE9dChnxNCz+ai+GwQJvdpbpt/DzcyOfuiN17t15OlviXoovt6TPVFTJq1oaJvZy5Akq9S7+p1wtPd61ux14CsaNEfJe3Quc9Ivp65hgs5GvM49XtjdL31Qn3Ur/tNl6d2LOk9lFMsOnWAMuks/v5vwnHiazDurPos2nlUul+3jSmSIDkuBxj5KgYbNbD++sE93Cln/4e8ArNeasnTgFCWeQL7IiMR2Zzj51Tc4uvgRim/jesZXHEPwnCLZ5Vhquj1xEjP5fCzNuAD4rFu/gxM8ViLRANnBAXPxXCDlqnRX45HmWdMcQdPHMJObkEiLeG6ljojLy3GDbyMfkb1NU/FSP3tV1yCMd562xLGjetgG8EAppYW7P9+rFq5E6lF9cwlK03H8f3ngREDYNKF6VxxPqTSTFxITkJC7O84fYMzNLORnFnAmtpm0rMvBpuWoqCkjA/g0WMNaPfOasZZ4zxA5pEo7CkahJkfjod5c1f9yu+i+MZTeKNfL/VKsklUGwCPgtrGQXa/vO78tepGT1behB00mJFv/SbGcaepF5BR3fg+CplQQ47SS0mIYTaw6HUL9OmkWab66GU6ANxqCOlv55HZGje9exb7N3CLHq3w2oBnlGGPjPZ41nQgRiAH+1etwfeptxuZj1gfLN/On8T+IhOMGGiMLlTGZFoKaeYFJCfHI/boaVa3MYoykKkoMx15th8sR7B6e/86rPz+NIp0lid9pupmML1XiJJ76oux9Dp3Q/fOTemaakDFyE3PZycvwMywwW5m47SG7tcYmY+C6nqmAvfLNYW/kXqhXrTp/kOSpwZ5dLqvIX2EB5nncIzd2Nh2IPo2YIvIc6/gVI4Ig6a+gQF1EqhKFYrO7MC/pkzBlOYcC35Dli4PWHkTSd//D1+f7AOnDT5wGqBdEvUMRsLzq09gzX/GlRM4dqYf3LesgPPL9fe0FYthLh/A6mlDn4CtjFqX5udZU+mFMR6fYaFNCXas/RYHr97R2XCVlxaCW5BaL6TslQN9YW3es4kG1uPkaQx81x2ezG69snU2hlpPhfd3J5BTpt6Y0O1cpHOPt3sa+rRrj6cMnoeRUT8MtLLG8LfehVcYM15Yb1wqe9CkzkBdWOeg+D5/3gLoJlJiT0GGIaxifa755cEarkJJK6TnCUfP0AxW3EC9ykj4o5OJaspx41qGYhHf82aGrLtVF+VoPUPnkeSGofxrOMutbzQ1a+JWSa2BHjoOdICP53D2PN9i9tCRcPTeihM5d5uYnxW4nZvN8u0aK6qX0K7dUzAwNIJRv4GwshqBtxy9EKZYGVnCDJomrOjvOADv+nwIC5zB1tlvwtrRB9+dyEaZromTFqL4bmvsIKDCPSmunOYKrKEBBh0RdF9BXd1/SPLUII9O9zWM1gfISv0TqbDE+zYDWHNZH3dxKfYgDhnMwKf/HqZ9xW4N+jCcHMLNnW3ekbEYlo3VRRXZOB72DTaG/go4fwSPd4fCoN5WkHvl/RG+8B7Bf24EkiE7IQKBc9/B0Jcn4b+7674M+uvTxDxrNnroYGID90Ufw+56BEI2bsX+tMLWaVCrbiMn6Ro70Ve8TmsKVJaL5IPbEOTnCddZ7/IrsPtgSliDZnK9NC0+7vW1HcSxhxDqMRYiyX6smT0Kr4yeh5D42lXRVYU3wZkgcI5AnjY94o+MxZbNH5VoTaoKcPX4FdY71tj2RqDVePQyUYnSwgL+vBGaNJJcPzXP+LjQ74OJ4r2ID10IG9ElHFzjilGvTMDckD902vlCSQUKb+ay/6asqLK1lpHyOIrFlk0ZJOgEo4mrEBsfCg8bA0gOfonZo17H6LnfIF5jp4xHBXHTuDib1aQPjHoIbzUfDg9Lnhri0em+utFKUpw5fBrMQsGoQfW9aiFU5h3Ft0FZcA1ehMltYW+0Dn0w6oNPEbo3EG9E/wfjZmxAfM1cDU1Y+nNOYE/kWf4zRzJCPlyFXZK62zpUZRxD+KkSGNstxnrxZD7070YT8oxKkLZ9AV7t2hX9F8Yg/855/LjUkd/64h2siLvRgBF6D5IdC/H6pDXIdvkGP6xdAMeBPR7vqGhlJqIWOsBqoi/23RmIaQtWIyxBigrKRoSzonvbNJoVHzNcDYfjg3X7cDlpN/zsLSBLDMZcu+WIyNZofB5UoBVsgYdP9V6NHUXo0uCbGgGdqKrAA0WV9yKe76ExreuRyQST0446tgeGPfDM0y14zaxJVTkqqh6T4Osb4fUPAvHL5UTs9psMU9kJbJ7risURmWjaOFYVK6qq1umk19AJhq9/gHW/xCNp93LYm5YicbMb7BbvQ3YrD6LqQlV+DpK4kyHGeL6joPetQr26/zDkqT4ene6r/ZJunEFMtAQGTv/Eq/W8aiHZOYT993Okvvc5Ah6r1yFNWKYZv4oJ40wgOxqFX87Xs2Ft2QWELVmqnLi/agnsqzsaRd/DwzcKkur97Xjam0/EEo8P4DTRFpb9evKhfzN0zjNCxZU4HGtvjtcNZLhyOgxezl/hytD/YHu0P2xlv+Cz0JPK+TTaoDycjDiMIgyE3ZhX+H2DdaNd1x6sX9kA7bvj+UHG7OQakjJu6ajIhPK0A/gqJBkY7oHA1R9ivGV/GD8naubIVAvj0+sCQ8v38FnEIcR427D8P4jvDisbRn2jfniDu+bkRVx7qF6rnsELzzzFn7cB2j2NHqZtKD2PCcq7gkTuRYLKyPWjk4lqOsOonzm46uFmhpTpcV1q9ugcbIbeopYbrTXPeO0CruRxiyweF+3Q2dAK7332A47HfAprXMEP3x1Dhk6GIZdvygU6J9NyWskTlTp6nV+E5Xusk3t8D7ytDVD0QwQOZ2jMTdektTsWqGR91QzFNC7Dl1/Esy21WQXdV1BX9x++PNXl0em+yi8rII0/jP2yQXCyG4aedQSKUFlwCt/M98KhgQHY6ftPHVb2clRCGumO2s2Um3g06GJSA7326NCJe+WQj6yCu8owVagQSV//Fx67pTB3X4ZPl/4Xq8VOiozmKNr1GXzDr7CcEKihSXmmhw79J+E/EwfiKVZmomdehfu3IfjvtLEYbjkAnMlY12GFClUluHmee3fU9Ff47boyYwrpuJpXT0Ws1wuvjOQWNF3DoV9PQ6pTG16F25I0nOROzV+CUZeW1rKtFJ9+b9g4joUJpJAU3lWO5vTqj+EjDYCcozh8upWmVGiiGB3tip7dW+HtSree6MsJROEN3LrTgrmNrOF65oX7+OOqxmbZrUz5nXt4PC9UdaEcOX8ewxGmlRYuYzDkaV6uHoVMqNEez/YfCm4SkSzhErKrdzGooRL5kovMnDPACLv/g0lr2EPVz4g/EHFUd+cHDdGysu4EQxs7OJiwU0khSnUyWvXRy2IoRrKznKhjON0SfWgQ5RsbR4eB7LyhXU9447JLD3Tv0ppG6wPkX89i/w0x+GWjmjak2TwS3X+AO/ceZ2eoMbTp/qOSJ1Uene7X/pSu4/jeQygynISpow2ZeNdCsiwkRHyBmQ5fo3Ta/7BlkY2OBitHexgMm4moiAhENOfYMLbBBWG68wDSQ+vwsdd+yMxn4wufd9BHvxsGuiyD2J6rYTiuYJfHFwjXMk1AV0h2FScO/IRDmh4ntMIt7voFmzeG1/HGo85DuC4zHgf2Ha7fi46C5uVZ9QKQ50eNgnVP5XYblXlXWbNiiAEmPfFQ+sY9jNDfpAjXb2nprCjoigG24zGcnRV9H4g1e9I1vHNUU6l4paKkHZ5+pgdLNeO340hW3RKlXrjXJB0VFXKhRIpCtXs0I77KZGxcGIlstfe7ctwtKWalMwQTB/dWjtK274cxrm+z+8Zh7fJNOJStw2IQ/Y54SpHQ65AW6iCtip6yxhZ3dBtJm5fA1XUJNifd1t0w6tIPr9oNUowWh/92TUVXWOe4+BJifozHDZ0i6waj/obsEW610hZKqrRHj75mLJdZ5b8nGkfz6tGVx/lqmssvaSw2fRUFmcgOHk7/V9spbI5MtJB25v+EmyvrHKZGYc8fBWr3I1kq9m6LgczAEe52/evZhqiJtDfHO/OmsKbwGvZ/sR7bm72CvzllLUPyxgBEZqt3lOluCW6xnxtMHIyXal6htEfHp7j3ktp3RmlvPhqunKV7/lss/+o3ZGsstGwOlckhWBiZqZ4fdB8lXB1pYInBL9VXE/PGpZUxeqm0vVT0JzYvnA3XhaFIqnf6XUPIcOMqt1SnO17q1U11xKyZPEzd746+g/ux/+ewJ/Ik8uqZX1P1oIK1po+L+nX/YchTYzwy3ScF3GbI39JUEeetwZe2RURQRMReCg9dR77zHcnS3J48gw+RpLRlWwE/fKo3cG7YI5bhkiNU7QtCdTP46kNk/z9KqfOsjW8az206LAmbyXslmUlhkkY2YK48R8EjuY2BG/EO0trXVV2mMEduo1/2rI5hJNG6I3xz86x6M2fVMqi+3pKWHKl/S+sWORfQxSOWvIBOBtjxHksMyXLqJ+Sv8Ea0iry9F9Gc0ZxHEBGZO2+g36s3Ur+bTEFjlR5VRNYutGrLLooI38J+s5q87Lg8NCBrz210XFJUs7l4lSSMHBWeRIbQVN/NFM7pU3g4xaSzZ2pqfIo8MSYbj2/o1xQJ5eVlUXrcVvK0MSFzlx2Urrrp8/00CuO8kXDPJ7KmqV6rKThsD9PlPRQWvJo94//o9zyVjeRr5IA981Rf2hK+l10bTjti0nX3iKVw6sDLgI4ek5RUUuHJNWTL5ZPIltzXb6O9EbsoVOxB9rYeFHa+uCY/G0YHj1gM+e0Y8lRs+m1HQSkasiW/TtHug9h3hjQ2+Jy6JyqV8oKpPXkovNFwHm68aOESFxrNhWMYOQcdrd2AWy6lGE+uHAxoRNAZUslxRgXdjPYgA+53Y0MorVw9zbXpnEzBaSobkNfoxgTyjTjOe445SYd3fUkunCcb0Uhy33Wxbrk1USZq76+5CbiuyKki7xD52bI8M51MvmG1XnEUXrhEb5Pf4Rz1+rMmv0DG3keoWLeCr6U8k35Zynu/gjnZui2nTdwz7g2jYPEK8v3yEGXzdVy9+cvR5LJWboyu8Dj06xm6mpdH2em/0zbPsSQyd6MwTt9rUGkbzJ3Il9N7ro3dcYjXYc5b346a+lZk6UReAZsobC+rO7jnCPAh77VHKa+6rlaRMfVN5WupSBKTqaqnueyLFLdtEdmIhpFLWJoWHefR6hFLzlQ9gJgZxO6pu4ckVeS3D5O3YnP9YeQZI9VRvxtCF92vpNsxXspN80dsoJQH6tfJb0aTuwH3TJryIKe7KRtorKIeF5Gp3XxSthWfk6/XIlriMpqFc2XpSkG/884cuF81t55RTadmvdAs3W+iPKnef3ggJal5ZdSVR6P7zGitoPzfA5SNB5fg6sPUlpy917MGLJXynxgPUfUYrYWHaQlfeIpD1aNH5UUKncBXVDUHa8Rn7CKJulsKHYxWlYZYFw8PzIiKF09lFctImrv3ioYQq/AQrqs13jS9bPA0O8/4igQjyT++utHjPazU8fakQUuMVqay6aFTtRoCalTcpJSIteRhz7k8ZJWRjQv5hh6lq6WZFOUxneb7rqPQiFhK4V2ussxiiniSQn3nkJ3lELKZ6kbeGw7Q+UIZ5R1ZQ1NtJpCzbygdSi+srYQ5zzTRa8ld4ZrPnGyc/Sg0NoN3X9fE+ColFL3MXcVFoyXZOX9C4l3HWZq1dCK554sKJj8PVxaXBXu+KeTs5k3isFhKL9KUCM7jyQESu3PuDFXzQku8fIWr3nlhVLsJ5dLWZDeuZZQXv40+nWrNl4Uznxf1Sq5WqtJDaZw2I6SaopMkrnbDyQ6RtRttSSlSfqfmspHL3xH04d4MljPVVJeXC9lwbhhZ/tvPX03buPLM28fk6D/kuz6UIo6k8q4HbzEdnKIWn8uW08y84VB3F8o1XtYuoayzx7ccddLpQXslvL5UnKZgp3nkv+UHCt8SQPMV8ss1RvY0x3sDRaXcrKdOYugqExr3h6kD+cRkNdHLGQfLs/wzFLVhKTnbKN1TKtLp+w3FpN3SSKdGfjGDyM5zR22e6ErFbUo/so38Pd5n5WRMlnYzyG2JmMKOpFNRdftV+icF2avm7yL6Sc2zU1PL+j5djfYntxp3l6wjbOdMnuJdFKfmGl2JvPQiRYvnKt15cu0r03N1F+p8vgWvIA+XKSwNFqx+cK77HNryzOfnGsO8msqrP9Eytxm1bngt7cjZU0y74iQNutxWGnJ1BxhqXHQ2wXuREtYuJm5WGljVaWZGTUDcjTp51FQa1v1KKopfW6++VWX/TD716ZsCZf3k62yryGuRpSPN99/Gyuw25UUtYbLhR+tDI+hICu/2uon1TG29oCWdH+6ptT+arfu6ypPm/TkjfQXFZNc7/NMAD1/3+ZHWvwr1jbS2BhU6GK088nw64m3f8KhiG0BefIS8zX3oSEnTm6X6qXbLpup2NJei3ZgyGyyimNtaDKJqWmS0snpBMcLZ3BEigYaQ50aQq8FI8o27xYeooHAHq21U8RGhGDE2r3fESUBAQFfKKTdiLhlYrKC4Ou1CdRuoZRTxcSHo/t+O1pxlLVBNVRFyC6wxfqi2LXbbCoSq2zdQMOUtDO3ammJQhKxzOayz2AcvPsvvLVFViOtpN4GBZjDu/vD25mv30ltwn1OC1V//qjEHVKBFUCFObd2MPaP+DSfrHnxgLQpvZObTsGBiK81TbCrtXsJ498koWh2KaI35hQICArpDd5KwNfAwRnn8C9bdNNuFSpQWF8Pc9d+Y+Er9u7g/UgTd/9vxFzNan0bPvr3Y/3u4Ucyvqn7UcPuU7tiN69NdMLoNb57MbV2249t8TF8wEj2auYhdK5yBeo4ZqKrbWpTk4lJaEdC9CGfD9+JUfZP475WgQLGeS8tek7qgZ4gx8zzg+McaLN91EUIV1hpUoSghFMsCO8Bn6WS8UscHdSVuXauE/bZPMaXfI/OHqIE+eo2ZjRWOSfBdHoHLOrv8ERAQqIFuIeHrAAR2noOlTgNRZ48Q1nm9dncctgU4ol9z3S63OoLu/934ixmtz2DYO/awhhQn98finOwxrOurLIZswAfweotf1d0mIVTeqsCABXPxlqHKSvDWoDAHF67IYDDgRTxXLV0dn0HvocbApWRcNXwdlgbajPkHyIuLwU9SwGD6JLzZtznp0kOHfo4ICHZElocnfMJTm+BvW6AOdBfZsRswd9Zu9A1cjQWva3O3yhqNcR/hP8ONHq+8dzDDlIDP8X6WP9x8wpFaJGxcJyCgK1R2DbFfeWLWViMEbvwIr2uro/WMMG7+Bxje2m1GSxF0/2/FX8xobQfRax8jPGYDZpZuxJRpyxCyLxW3Wmy3VKIg/hss++InxSdJyCp8GpmufSSvQ1+89tqLbdhg5eDcpVritYdR+fSciJBSQuH68ah5kSx6DYtjs0EZe7FsjKYxTyjLjMN28cdwdD6GwZ9uw8+BjujTbMnsBMO3vLBz30Q8SL+FyvZtZUTgCUSPcD+3BP38t2Kj6z8gatNZye1B+U/47gyG3YPruF0plLuAgK7o4R5yb1nAf58YrgO7a+mctmUE3f87ocdNbOXPBQQEBAQEBAQEBNokf7GRVgEBAQEBAQEBgb8igtEqICAgICAgICDQ5uGN1gcoSD2Cg8cvo/gvuXCFUFlwFocOnsDl4idgknbZBWxf6o8fL9R19/fk8ADSuE345IujKGjKQ1TeQU7aH4jZ+T8sd/8MB6TNc8r46GCyJbuOtBM/Y2fwCrgvPQjOUeHDQY6yomtIjf0RwcsXYOmB63x4I1Axrp6IwY/fBcL7o7kISZbxX3AQytJ3YemyPbjwOBYuCggICAgI6IjSaC34Db4j/4mJoz0QltZ8v/ttFylifJ0wfuLbmBZ24TH6CtYNQhe8+NwlfOrohe/TnkTDlRmsR8SY4bgPZNID+k3xy15ZgLT9m7Bg5jys3CxFOR/clqnMP4f9Xy/DzI8/w2ZpPT7LW4U7SI9eD08HJ3y88mdIy3XNV2ZY3z2PvYu9sObbS1A1Wbnv8FQvPHf1czjO34E0wXAVEBAQEGijKI3WrmawmTka5najMKjXY9ke/CHTDf1txsPa/J+wH/Rcm58TodfZBGMWBWLL9OvwcN2IE/Xta9omIVRI9mLR1EiYBP8Pa6YNgYF+E1ZzdjbFhEXzMcuE/9zm0UPnfhOwyPM9PPwkP4Mhzn5YuXA4/1lH9AzQf7wTpk0y5QNUaYfOfd7Coo1rMT1rFVzFJ1D05PWSBAQEBAT+Bijtt84WmBb8Oy4fWIYxhpqbuhPuJX+FEWaBSG6zb2obS6MI/aetx5+Xo7BizItPxnYeei9g1Ce+8NHfilXbU/HEjH/Tdfz61TrEOCzFiilm0Ooi4F4iAkeMQ6Daa2oV2ndAp7brl0ELeizJHfFoktwRXbq1/lZlej1H4ZPVH0F/7XpsP3uHDxUQEBAQEGg7NDroSLKz2C7ejHj+c1vkSUhjc9DrZgWXxeOQFByN5DuPxb9Xk5FnHkPo9p5YNm88+mgbYaUSnN++AavjhQ2g2xbt0e21aVg8NQPBESkQzFYBAQEBgbZGjdFKZQW4kpyCTFm1cSSH7EI4Fk6aBPfdVwCJF6w66EFPjz9mRdYuOKG7yEn4EYELp8PWrCv73ghW73lj474UFKgt7KqELCcVRyO3IECxyOYuCpJ/wPJZY2Bm5gifAxIoTRlCZdEF/PrdanhOs4UZF9/EOVi6cT9SC1TnDDYljWW4deUMkjO1NMfa0u8wHwFhx1h+aLyaV8STjCO7N2DprOXsGQqReTQMAQv+Bauu7J5m4+Ee8AMStM5trIKMGXVhAfPhYGXE7tMVZrbvYpb7JiQUa5sC0AGGI9+B081oHEgq5MOUkDQGPmP6o6vtChyRthUDsAwZx6Kxb8RU2A/rzoepIDuP8IVTMdx9B4pwDF5WXF5Xl5c7IrUuuroH6andWM3nb1erf2GBtvzlFnClHkNkaIByMVTlTSTv/AyzbAfAbCIrp8zasWoqy0bC7kAsVMgWu3fXV/Ge90bsS81nEqoB3VEvX73+sH1vFtw3xKOYv6QOZbk4tXsNFjhYoWu1LG1PYGnS/t69bnqs4LDgc4QdlUDW5Ff13KLDFOzbuAwfTeTuz8nYdCwM3I2E7EbG61laR05+Cze3xCDpCekkCQgICAj8jaCiRAr1ciJLEWvt4EYReRWcvwGGnO7nXaSkGDHZcS2hsQeFJSRRUhJ/pOXRfcVlxXQ+dA6Zi8aSx5afKZ59lxgXRWLnYSw+YxoblEx3FfExik7RJucRJOLigx15+S8hF+fpZGdpyDXNJHKLpnx2mTz/BH3tt4LEwWG0N2IPhW3yJWdr/pqxGyjlrlwZn05pvEVJod40VXEPU3KOyOZ/y1OdfpZW2yVb6XB8IiUl/k4/BbmTtUhE5i5b6XxpJX8xozSFtrnb8s8wmlyWLCIv389JLBbTGt85ZGsq0pJODjmVS8LJ1dyQrD13UKLkOuVJTlFEwHR2b9V810CeRREu5mTiH09lfBBRBeVFuCnuo/WZmoH8fh6lxkZQ6Ho/8nCZQjamBjTI/2Rt2emCPJPCnUxpiDhRJa0qsHukJR0ksZ0xS7cleYTF1ZZV0kXKu8/nV0USiU25Z2My5e9HSxrN30omxiE1MoK3F5K/94fkPNOOl2sLcovOVVwpL02lUJdhJLJZSFtiTrL7nqK4nwLJ2ZzFK3KkoJQSxXVK7pIkfC4rn9HkuSOBJHnXSZK4lwKchhCcIyiPv4qjIklMpty9beaRv99S8l0jZmn+nHzdxinDNXWBpzo9EE2gJdsO1ehPkNtIJmPDyCU0lUpVxYhKKUlsw+LTVu5MH9J3kbsiH4aQk/9OpTxz+Ru/h3xtuHAbEieV8tfXRZ4XQS6ikeQfX8yHCAgICAgItA1AVE6FiRvIvo7RysMaMWeu0TUVU1Idu0pOd5MCaTiGk2d0FjOlapGX/E5+gzhD4AMKz3rAhzJKjtASQ+5erhSeXa4IkpemU2zUQYrPVjbp8ooKZoaoIqeK61HkrvjdVApNV5jLtTSSxorCBAqyN2G/1WzoK6kwbhVZQ0QWntGUW6FqHdyl9NDpzHAwoOHiP9WNDVkc+Rpryy92r9xo8rTgDKsJzACS8eEcJczYGMvCZ1DYVRWTjjOad2yj2AL1J65FRilBEwhO4ZRdk7xqA5jdx3weRWRpNRF1gKW3KJ2OMKPeznQQ2XluoIiTlyivtE4m6kZZPPmbDCGPmBt8gDayKcLZlOVDA8ZTjdHalPytYqLlQ4acHNTkVSWVph+jqOgEylYYxMWsDFheWnhRdK5qnlVSSdxKGsR+K3o/nLKq87kskcRD2L0cwuiqimhwhuaOkGNUwH/mqDFaNYxZFgnlRnuRBffdsCBKUS1meT7F+dmyZ6mrP1SeRqEOnMxOYPmkakA2YLTeT6VghZzbkHdMtnp8uuQ7R2UKBQ0zJafwTJbbAgICAgICbYd23Ctog6EjMOp5NB3KQ+yWrYg3HofJtsZqPuX1ur2CN995GZAlI/5iER/K6NIdPbtwJx3RgZ/zqCfqD1vHd/C6seIL6Onrayxq0YP+i5YYO5Zb/VyAwtKmrAhjvzUYiDdGaVnbTbk4+v1OJGI4Zs8cDSO1OZhdYP72FLwrKkL82igkqL4u7dQF3bRussDuZfQ6Jtmz58YVJEtUX+mXIOvcVf5cBb3uGDjDGbbP1beMpxN69e4LJOUgv2YGgR469HNC6NlcFJ8NwuQ+zVmYU4Gi1O2YP84Gb32Rj/HfH8TetfMxefjLMBSplmQTKMzD5WsG6P3c03xAa6Oav9dwIadEGaygHROtHqzUGJ06QFmU7SHq/yYcJ74G4856oPzj2LI6BsZTJ8HWSDXP2qPbkDfwDrN4ZTGJuFi9W0NhNs6l1l0spif6B2a4vYnn+M8N0wlGoyfAnsWNKxnIKaydBkLS4/h+41FgyGTMHKuuP+jQH287T4AIMVj7Y7IOc0zluJMYhaCfrkH0vjs+HqcRn66074Hegzlxu93mt4YTEBAQEPh70bLdn0rTcXz/eWDEAJh0IZQV50MqzcSF5CQkxP6O0ze4eYfZSM4saJsNYGkGTsVcAkQWsOhT19DS62WKYeYiQHoG5zPv86GN0Rnde3blz1UxgKmlBfu/H6tW7kRqka7zUPXRs68ZTO8VouSe+jxDvc7d0L1zc4qwCrLUb+EychZCit9DxOFNmD+qD5hd1yLkpcW4gZfRz6gzH/IwqM7fCtwvb4pUyVF6/iT2F5lgxEBjdKEyFN+QQpp5AcnJ8Yg9epqlnVGUgUyF3DKe7QfLEQasyNZh5fenUdRcxxvVHTVZOcpr4mDpuZSEGNafE71ugT6dNDNfH71MB8CcnUl/O4/MRh+1GKm//YpLMMZbb1vCuNllaYC+g41xr6DkydmxQkBAQEDgb0GLjFa6nYt0bqXT7mno0649njJ4HkZG/TDQyhrD33oXXmHMoEURpLIH3LveNof8xjWkcOl/vg8MDbSMdCpGnbghaM1RvebwNAa+6w5PZrde2TobQ62nwvu7E8gp03HBi7QQxXdbaXHMvVR85/UFfpKNgHfIMvyrT+sYmfLSQkj487ZHBW7nZkPKynL3tJfQrt1TMDA0glG/gbCyGoG3HL0Qpli1VwLZfT6fOw7Auz4fwgJnsHX2m7B29MF3J7JR1irCXI4b1zIUCwWfNzNkpmJd2vfqjcHcicYIrVboDvIuc7H1hbV5T7Sw/wHpjWLc5c8FBAQEBATaAi0yWqsKb4IzS+EcgTzF/FjtR8Ziyya9qqSyXCQf3IYgP0+4znqXX9HfB1PCWtck0t3Iauqonja4V9t2EMceQqjHWIgk+7Fm9ii8MnoeQuLz6q5af2gQ7p39Fd/+lsPOT+LLt55Hu5oV/NWHEcZ/dwmtZCK3ESpQeDOX/Tdl4pqtVU6Vx1EsthQpf8K92p+4CrHxofCwMYDk4JeYPep1jJ77DeJb7PmqEqWFBfx5I6iN0NZD1W3kJF1jJ/ro1OGJ2uRWQEBAQEBAJ1o2PaCaBxVo7pvTOlRmImqhA6wm+mLfnYGYtmA1whKkqKBsRDhr8+jTfPT0O6Ibf94wz+CFZ57iz1sCM1wNh+ODdftwOWk3/OwtIEsMxly75YjIbqkRpCsPcP3CGWVnY7gvIv5MQlKS5vEzNtq/1ErC0daoYuJa1YSR/04wfP0DrPslHkm7l8PetBSJm91gt3gfsltk1TNZ6KjjCLdhDzzz9F+zNAQEBAQEBHSlRS2hvlE/vMGdnLyIa/daw2ollKcdwFchycyg8kDg6g8x3rI/jJ8TNW9RSSO0Z+l/lRtUu5kNqTZXqVWFuH7uJjvph5d7V4++tQJ6XWBo+R4+iziEGG8boOggvjuc2fDIZqsZLvp4ppeR8nV0VxMMsrSEZZ1jKPo/1/TFXe269kDrditak84w6qdcwHUyLafJ8zX1Or8Iy/dY5+L4HnhbG6Dohwgczijjv20OXHrMoRC/DClUlirWUJV/Hee4k8Fm6C1qpOzbd8fzg4zZyTUkZdxq8XQcwxeewcNaTicgICAgINAcWmYF9eqP4SOZ+ZNzFIdPF7bCvNUq3Jak4SR3av4SjLq0dGZeIzxrhldHcEvGL+FSdt0ZfJQvwZkrMmDEKFiatL7rTOj3ho3jWJhACknh3XqM1koUZGVA0qUHundpHaO15z+GYwJnLSWexeVbrTcxoV3XZ/AC0nE1ryXG3MNCH70shmIkO8uJOobTd5oz3UM5Uu7oMJCdN3UXC03a49n+QzGCnckSLiH7gab2VCJfchFXWPdihN3/waSxotfrhVdGcgv9ruHQr6chbbYyFiHrXA669Oyu3IlBQEBAQECgjdC4FaTfEU9xBk7hdUgLNRrp9v0wxvVtiBCHtcs34RAz/FpmuLbD08/0ALc7EH47juR8HY2ChtLYEO1MMcHNkZkF8Qjdk4hC1cRTMc7uDcdemTnedx+PVzq20ICuTMbGhZHIVptHIcfdkmI8wBBMHNy7ntHkB8i/ngVYGaOXylRFKvoTmxfOhuvCUCRpGyVuAL0+dlixyQ3mRfux5cBltJo/rR5G6G9ShOu3GlrC0x4dn+rA/t+CRFrSCh0d3WlvPhquDibA+W+x/KvfkN3IIrjK5BAsjMxUn29M91HCPZ+BJQa/1LIpI+3M/wk3V2ZopkZhzx8FanlBslTs3RYDmYEj3O36Q+sOa2p0xQDb8RjOzoq+D8SaPen1eNOqVEyPqBfF2wVO3J7lt52rgDR2NSaaDcbEFYdbYAwLCAgICAi0DIXRSnduIVfxvrQA+UUacyuffRlv/JM19EWh+GTeSoTujkBk5G7s/PUyytAF/af/F5tchkF21A8TBtrCacnnCNm+l12zF9tDPsfSpZsQJy3nI1O9Vxau5mkaN+3Q7fV3sXSsMSBdj/cnzoF/aDgid4ciMHAHEm5zjW0qftwRiRNXi2sb+QbTyCAZbuVyq//vQZpfomKkdYCR/TLs8RuF61/Og+vyMBxJSEJyUhyiv1qIqQsSYO33P3z1vjm7spbaZ7iO6/kao4pUAqnkFjvRvBczP6M9MWvxFhxKvQqpNBuXj+/Aqi/2QOTihY/f7MVfpQHdhuSMBCaD+6JXjd1MKE8/jC/Wf4et6wOx5Q9uCkNTEKH/zC8RFTYJeYs9sWR7PDKLyhT5SWWFyLyQhZLmGCcdX4DZazIcO5fDTO36eBavvGHFUnAeIZ8swnKufCMjsHvnb7jML8tvXv5W4c6tfOVr/yuZyNM2XaXDAExf4w8X8yIcXfk2Bo6cjiWrg7E9IhKREdsRsnoZlq47BmmNLStD9Cw3LA49hNTMXEhzLuH49kB8sQVwCfoAb/ao7kWo3DsjF/nl6vemQm4knTvT0C89Y9gHbICfbQ6+/Ggulm//DQnJyUg6vg9f/WcOFsQOgN+elXjfVGXMs15Z1kOX/5uFrwLsWN7GI8jJFjZOixAQGMh0x5/pYRBirnEpTMG24DDE5ShSWwfl2wVDDO5rwGLkKEDyj9txUHIeBz/bi/gbTegUCggICAgItCZU+icF2Vso7BXuEFkvop/UPCxxXoUOkNidc0cpIlMbF/INPUpXVV2bVtyklKhg8vNwpak2FuyaKeTs5k3isFhKL1J6vVJQdJLEdrX3gqkD+cRkURX/tRI5VeSdpFDfOWRnOYRsprqR94YDdL5QRnlH1rD4J5CzbygdSi9U8djTUBoLKSnIiXelyQ7RSPrPT5nq91SkfwN5O9sqrxNZkt0cPwqJSaNCNS9ZDI1nEFm70ZaUIuV3VVkU4+Ogcq8R9OHeDJY6RqWEope500w7S6ULWO4ezp+QeNdx9bzUQH4zmtwNLGnJEVX/S0qvTAr3ny1y41pORemxtM3fg5xszFlcXN4509Lw801z31rDfUoPnUoYG0Jp5fX7U5KXXqRo8VylS1ZTW0V5xl4tUZZns/K3kori15Id7+JV8Rx2KygmW5unMCZf+WcoKngF767WgsmYM7ktEVPYkXQqUinvyqs/0TK3GbVuhi3tyNlTTLviJCquVTXvbUjWLqGUUqqUsKrsn8lH7Xk8aK9E1aMbn54NS8lZUQbcfexpju83FJN2S8OrlY6yHLGWPOw5OVPVhUyK8phO833XUWhELKXkaSvhCroZ7UEGhj50pKQ61ruUHvYBuyeL6/0wSm+gXAUEBAQEBB4metwf1gAKtEkqkBfpgUH/fR77T/liVDfV2RyVkEbOg9GU6whKCceCIdz8iMeP/Op2TBnyA944Fo7Flt35UIEnAspG5Gw7/Lf3/3Bq5WiVnTUqIbt9F/o9urfYAYWAgICAgEBzaY2VPQIPCbqThK2BhzHK41+wVjNYOSpRWlwMc9d/Y+IrbWedd7uX3oL7nBKs/vpXjfm7Am2bKtw5FY7APQPh4fR/GlvB6UP0rGCwCggICAg8XgSjta1Ct5DwdQACO8/BUqeBqLOjJxXi2t1x2BbgiH4d2pA1oWeIMfM84PjHGizfdVE5p1igzUNF8fh62ffo7DMPTq+0jVF7AQEBAQEBVYTpAW0QKruGo19/CvdvumBplBiuA7vzi2KeFB5AekSMGVPjMGSTGH7v/gMG+sIwXdtEjrLso/h6iRe+ecoDURtnYqBI8KglICAgINDWAP4fLaVXXALtaZ8AAAAASUVORK5CYII=;" vertex="1" parent="1">
          <mxGeometry x="415" y="-790" width="145.71" height="10" as="geometry" />
        </mxCell>
        <mxCell id="ViJQnv-lOq2HxlMQcMpX-8" value="" style="shape=image;verticalLabelPosition=bottom;labelBackgroundColor=default;verticalAlign=top;aspect=fixed;imageAspect=0;image=data:image/png,iVBORw0KGgoAAAANSUhEUgAAAkUAAAB0CAYAAACLx0bgAAAAAXNSR0IArs4c6QAAAARnQU1BAACxjwv8YQUAAAAJcEhZcwAAEnQAABJ0Ad5mH3gAAIHISURBVHhe7Z0HYBzF9f+/0kmn3rslS7JsyZJ7793GNr2ETgikh/Tkn0IgFQj80kNIoRoIJYCpphiMMe69yk22ZcnqvUunenf/997unvZOJ1k2NhiYjzS3u1PevJmdnXk723ycBBR94Wrx0dcZp77BteV0aOu+5Odj8mfMaRjx1+P7+GrL/uJ6YsRjzHFN/qwWb3Lw6cQpFJ9pzMfL6eCDxXwcGgcRY17XD13ZNvwUCsVnFn2UVvTB1QGaekNecI350o9hDBmYorkh/pzIFNhf3DOFZJwrUQrFp57BHghGPGPJRpDhGPO6OsAUis8VaqaoX/RqMWaIGHPnaO40T8eZxPVkEGk5ytmIVigUOubjTB1QCsXnFmUUDQY3w+QsekxzDavOVqFQKBSKCxJ1+WywuIyZs7BqjCTKIFIoFAqF4oJFGUWD4VwYM8ogUigUCoXigkYZRQqFQqFQKBSEMooUCoVCoVAoCGUUKRQKhUKhUBDKKFIoFAqFQqEglFGkUCgUCoVCQSijSKFQKBQKhYJQRpFCoVAoFAoFoYwihUKhUCgUCkIZRQqFQqFQKBSEMooUCoVCoVAoCGUUKRQKhUKhUBDKKFIoFAqFQqEglFGkUCgUCoVCQSijSKFQKBQKhYJQRpFCoVAoFAoFoYwihUKhUCgUCkIZRQqFQqFQKBSEMooUCoVCoVAoCGUUKRQKhUKhUBDKKFIoFIrzgdPkdMxeJm+FQnGBoIwihUKh+Jjw8XAKheLCwsdJ6OsKhUKhOFcMpmdVlpFCcUGhZooUCoXifDAYg2ewp6Tq1FWh+FhQRpFCoVB8bLB1427h8JZDW/WOEV0ZRgrFeUcZRQqFQvGxQFaN0957Q5HhCDaKBjSMDJRhpFCcV9Q9RQqFQnG+cOtdyexx9gDddrQ2tcDW3omgyGj4h4TA4qedoVq0iL14650Hc1lOoVCcFWqmSKFQKD4KbLgYzhOzAePDG07U19XirTdX4R8P/h3bt+9AQ7NNOmKeKXIToQwiheJjRxlFCoVCMSi8WSke9GfIsHP0oL2lGVWVFSgrLUVNdTU6OzthpzSGQdRvDoYMhUJxXlFG0RlBXZaTp8B5qW1668UGCBocZ51Qofgcc7YHnjmdpzOQbc0qYQOGXb+Y0vGqEVduVPDxQWRkFKIiIxBktcJisYifiJdYXlDGkELxsaGMIm8YPZRnL8X3A6CTXDc5U7eox+OF3cO5YnnK8oY5T/P6eeO8Z6BQfDxIU6YfPmnRV3mtTwtnjz6eDMc2O1Mkj/gcysd2r3e/Ql0hnMbH4oeg8CgkZWQiOzMLESEh8ONLagPd1qkMIoXiY0UZRf2id1RGfyWdLRlFPuys5KjquMMynL7gGyX99CV3nD2U3tXlee372NNwHyecn0fnr1CcLcbsqQfsZbjBcKbxBUlAP3yM+tJRqB+T3Lm5yepPKMeXGWByclyz0+Uwujxjm49vl1w5hDidHt8Uj2EduC/gpVtgjx2+docprE9Sjw2FQvFxoJ4+84ZHjfCsuQ/3fo52oKUW76xej8N5p9DeTd2Zr9Y9OiiO3ccPti470ocNx9y5c5GRkYqwAE2GjyGzv46uv71w3jpGTW8tA3Mmp1NUofDAs+1+3E3HaMZdnWiqKMfOfQfR2O7A3CWXIDraCitbHsyATZuOb0pfWVqGVW+8gcrqGlj8A+jExocMF3LUCVjIfOn0DcSoKbMxY+5MxIYDVrZoerpga2lDQWEhmpqa4evnDwfl5fT1pX7Bl2Q4ERMVieSkBFpGSW5bKI+1763BnEuvRM6MOYiNCRZ/f3LqyFMoPjmUUeQNc41QD6X1ufTb04rOknxcecPX8N6uvdRFRiLA6gM/Pz5TdMJOHafN1o5Z8xbgx//v/2HhgoWIDudujjBkevZ4mnD3PM187D2kWRHVPSsGwYXSdjvacerIIfzlwX/jeEkN7v/bv5EzMhXBgXq4QR99yYPv62lvw47tO/Dd73wXh48eRUBQsNwEbaUY/g47GU3dqCLj6dLLvoJ7//R3ZGeEIYgDu7tQVVWNTZs2o6y8HFZrIOw9FN9igdPiix6nAyOGpWPcmNFIS0uTHLe++QbWsFF0yZUYRUZRXHSwqKWMIoXik0UZRd4w1wj1ULwpM0XdrUDJSVxxy7dR1xmE62//DjLS4xEY4IDD3k4xfNFFnWFUVDQyMjIQHx8HK/dyHvJcGP6Gn+eeOM+9o1YuHW4GXvM7z0p82vDcZ4q+7daM13riBOaK9BJJuiXyH2w9c3wHX9p24o1nX8KOA8dxw5fvoOMwCWHBWm4iSrKlY5m2HA6n+PmQ4SJ0d6OpoQFHjxxBc0srfHwtEjOYZAb0dKGhohw/ufdB5MxYil/c90dkDwtCkD4TzIK7Orpgt3MvQIZQV5cYRT5+vugmgyrA34JAf+oM+PIehW99exXWvr8Wcy6+AtlTZyGWjCJGGUUKxSeLcTlbYcbolTx7J+5QndSZ0klgXPwQTJ0+C3PmzsW8efPlctmC+fNw0eJFmDp5EhLiYuDPNx94IjK0VcG8biA9NTlvYecSs3y+J8KVsdl9DvHcR56cLlzRi1FXbnXW2740s8QDiXcWbY/bsK8VYSEhCAwKhC8ZINKsOUhbaOh6+Pr6kuFj6gL9/BBBJzRTp03HgoULMW/+fMxfsABz583FtHlzMHP6FDJeosiuIbnUD7iKI/jAGhiAoJAgBIQEICQqDCHhwQgODkREKOkTEEgZWihvSuW0o7SyCoePHcfhI4fJEKsTY4g1OYtSKxSKc4gyik4Dd3xa58fdFVcXd2y+8PcPRFhYJMLCgYAgOpsMC6EOMRDB1CEGBfvD30odLidz7zk1DD+O4NkL8raRqWfYuYQ6Z5n98qagN50/Txj17q0ejH02mH1j7MfPc30a9WSqM61K+jGIPDmLurM7HHCSExvJWxYcII7XNS+B/ehMxhIcBCsZMgGhwQgkIwehYUB4KMLDgum45zuMOBn/mTDvaz6svB1aMvtF9NgRGRePzNGjERkViQDqUliW6owVik8edRz2h1uPp8NPpfj6UZAfHHSm2N3j5Bl3DXOnaLj+YNlGHNcd2ISep/SdA6U/F3C+kreW0fnO7lNJf5XirW14oletk++4/bxi1JO5jRNcJT1kNPStGi91Za5rSjNwfWqR+Y4Ah9NBjp//9ICjsPEzEGajRlwPWVp8aayL8qd1me3pnYVyqW0suVdl5zUb8vTzx9LLr8B9f/wTbr3tS8hIGyohqjNWKD551HHYH0YH56LXw+kyJsidpn/1iisNd9p9TynZ9jq/e4by48eIJX8tI1ZJtDBU4aXZfZ7g8nKFnG4fDKJefCwkyNxGLpT6NPTwdGeKZxouq+HEeKA25uC21os8NU91y0YFJ5cjwJhFYcwyzHA6w4+ju+Xdm6CuqQkVFWVoa2qAvduLYXQ6+jv+XPnRio97mVy46aRj+InyXAh9nS/d8ZK3FQrFBcHpuv3PPdJ/yRr3bFrvpq3Rn7eO0Uhgdp6wAAnjFTrzpI2aqkrs27MPWzfvxBuvrcG2LfvRYeMBhYL7w1CJnYk+3p5x5L0q7OFAZUUpTpwqRWldG7rZy5u+HxeGnoNx5wsZnGWYls3T0p9OXI/60eUt2I3+ZJwvBsrnTPQwx+vT1imQ25gM/hY011ShMO8I6mrq0EXNmp+SN5JLUpe1o9FHBfbQIspmn/x4Xb8/aOLUqbj88sswIn0owsKM5/E/Ik5zhnL099XRgAP6CxQRHMht7AzamUKh+FhQRpE3+vRTnr2cse3RMep9Zm+ojtGXMuwpho4ew9FDZ7M27N23F6+vWoV3330fjz/+FFavXoPWVps8IeOVAbw9XR9YHzqD725twr59+7Bn336UV9bALnr1g1dB55A+8s0l8HTnEa4bfeDiSzDtXd2wdXRT3VC+bEwa2ferBj+F1InuTs2gNTR2DX8u+R8jhhLnitPI044KdlxQrYvh733t2rkDBw4cQFUVtTXyM0T0Voe2ZqR2a44U1G5rQRUZ8TXVlaiuqiKZ1W6uurKKTi6qkJSaioWLF8LP14G6ylrUVlXLSQeH1VbTenWN6FBWXo3auiZp930OM9e2OcDQ1NDwNJijGetmv94VhUJxgaAeye8PrhVXb80b1I13dwKlxbjshm/AGp+Jux/4O3KywhHMj+W6xdfo4+XmwcNCD9DRgtyjBdiy8wCcvoG4+oqryF5xwt/PF1FRofxATB+5AsvyRI9nBLmS8egiGzxKU76+/miur8OW7TtQSWfuI7JyMHX6FPjT+CXn1S7ZfSQJfNLs7vMR8Z4NQQFymY/gMMlYG2Q5CTv29pbsdAoard48QcF+PsalUWcPOjsd2LB1Jxmnbbh06WIEBPLO0M8juCppoavjorvLho3rNyMoIAjjxk1AcESYJOG9zaL9+tFLZGmrGmYPXvcGh3uGeZNvjmOE69XqNb7ux8aNx+3ElM7YH+4FF1+KasR2pTLK0dOFklOnsPLV1zFiZA5mzZ2P2OhwmSflKNzuzBK9qfzwQ3/BD3/wE4RHhVNT8KM8fUUdJ7ULLRvSlyJb6Idl8c3Wxowombiw+Poi0BoAf6sVHZRxWVUdLrnscqx67YXedm9kZlZAjn0b7IUnsfzGbyF2+BTcee+fkTU8UHtPkRHXWLoK7wlFEH3McOR+EygUio8ZZRQNCqoiNiZ0o+jyG78Of5dRFOFhFBnV2fvIrtcuz0Gy6EwWLXV45uXVqG51ImfsZFy8YPLgusiB9hoL8AyXEZ9GAgqz2zqwbc8hfLhlF6ZPnYxJE8fTABXaG03WeLSh+PwYsTZk9EHLwjRw8shoKG8sB8JbGVzpONDsvL3fQB+MKdhX4lBiL/lqxo6+oSMTPxTgoz+eJL8STySiu7UB72/Yhk6Hv7yhfOKoEe6jtg7nahSbdXDYO3Dq5CmcyDuBnm4H5i9djpCwQHRJuFYKLS89pU9v3bIPY+jirSxuGAm8ogcaMkSeSaDkr+NZOYQxB6qF8C9tSxpesh+VxvRoF9cBe3MZ3aRJXII87R027NyxA/v3H0BkdCyuvP5mWAK0Pcf1Yt7D7Ocmh9i16X28tep1hETGosfHHz0OMorkhmc/9Ngd6O7uoqWddLBTi3VQelonIXwk9vR0o7PdhoMHDqCgoBApI0YjbuhwLFqyFN+47VotbyNTk84aVDo2igrydaNoqhhFI4cHkJFFwUZ8czpP5QWOYLQWQox8rxEVCsUnhDKK3OjTG+qQv1ej6G9kFEWajCL+MWRonX0vJuOBA/iTITQeOuor8MCDKxCSMBxzF12M0dmJ8s4SjsP36LrDCU0y+oOjeIbLjAsbOQ7s3LQT2/bloccSghu+cAVSEsO0vlpOrzky4UPlZaOopwddHXbYbF3opEGejST/gCAEBQfSkspIaVwDPctgeMObDrrqLvotAwVIXI5AQmlA67C1o7W9E938imHWwUpn6SFhsFp9tXpib0/5HrA0dkYxuenzO2d43UC2aAAsowHwiedfwdzFl2LhvOmSoK2qDM0tNjKUgtDY7oOYuFgkJAXIpAnL5D3OAzHXyPb1H2LThs24/PqbkDxiBAJop7J67kaRE7aOTnI9cFqsCKWGFHQ6y8AMW3b9DqqafD0zcqyhOa4eznrIrE9vmB5CPr1tVqLJDtZC2KO9pVXe4m4NChXjhmMazgVHZ8RTa2Qrn34Ch47kYcnl1yJrwlREh3L+proh9Fx0eKubktPx19mOtnY7GZn+VGdU9z5WMoacCAkJBP2flg/eegUffLAOIyfNwpIrrkdyhL8YrH6UhWjBmcq+oZVeBagNtsF+8gQZRXdoM0X3kFE04qMYReQkG68RFQrFJ4Tlt4S+rnDh2VHxNvVgDuqYW5rw/MtvwhISjXlLliMuhowDYyBzdXBaJ+8GJTduJnX1hfTT0dKMrTv3wuofhGFpaUhJiEI7ZdPZZYefP78b1wwl4sT9ITK1Vdc6GzfiaIMMivb6Fjz13Iuoqm3AV77xTdI/RC6b9UnHUJrm2lrs2pOLDVt3YceOncg7fADlhcfgHxiE0Oh49Ohld4kw0poxyzRj+JudgazTDw38LaRr7sGDWLd+Pbbt2oFDuQdRXVEFK+UaGhqOwAA/dOlpNTH6vnJ00AYNQnKpRUxCqT5tFoHfYyN7Qv4YDue30NRXlOHYoYNoI4MlMzsHiYnxsDU3478rnsCKp57BG+9+gPv/9k/53t2MGVNhpTrg+R6WyjXBv100eNtsbaioa0JQZALiIoJEBz/RgHWiGqP6zS8swp59+1BdXY2IsFCEh2pvNhY0tTQ4MWP2433K21wO17rh9G3BHOCBfnlJQzPk2WloBiPboZr9RTUlsxsShL07tqIgPx8WMujCw6LkUq/MwBlRODE7VyPWPJJjI9HRYcNrq97BsOE5SE2MdmnGMdxhw4x9/ZCfuxsrHnsUDz70L7z82iqs/WAD1r73AZ55+jkcyzuO2IQkhEdHw0pWMqcwZJrx9+VjwYnWTjsi45MQFx0ucd3br57SLMBOhmtDPZ5d+SaCo4dgzsKliI32g5+3SVRXeXW8KcOVxPB+UigUFwzKKBoQvcOSnpp+eOakuQnPvbwKfqExmLfYZBS5+jb3To63NEe/epD0g8a6wwG73Qf7du/Fe6tX4/jJInTY7YiIikQYnfq6orIORucqHl5GSdOqBsfhmQse7gPQ3NCIl15+C42t7Rg/eQomTxulfdCS6JOUMqsvKsSzzz6Ph/7zOOKHZiBrxHCEB/rg1NG92Lh1J0pr25A2ZrR8cJPHBvk2bl9B3v36wxhJuZKobjoam/Gn//sj3nrrbYRGhiN9+DBEhIej5GQhXvrvc5SxPxLTM+EbyO+P0rLShnYyiny6UUdleGnVu3hxzWbUtnRgzIg0CmfZnTh6YB9eePZpvPrmW9i4ex+Ka5uQmTYUdeWlOLh7J5JShiIzJ0e+gZW7dw/+/eA/UFVTj0uuuRHTaVCcNWcWEuKiYe9qR21dA2ydXQgKDpK66LF3obGxHnsOHUN0YhrSkmNEKz8n60X500bu0RMoLCqG1WpFdnYmyYqlQdZzRNUxCmeGBRpPQGpTOYQ5krHumZDhxJyWl8b7lLWYno5n4KiJitr6K0lpw4G4sGA0NpDBmptHRlE8Gaih/AoeaXGMzNzp0XuxIzCcDL/ODhw4dJxsw2CERSUjNjJANGEncHGMrOSXDJnGKjTU1cAaGIqEpKEYRvt9REYm2fy+SE4agtFjcxAdEw4/StgnWx1bSz1qa2vQ0tGDJGrT8TERUgtub05gJXjDLISNbDKKnqPjJyQ6CXPFKPLvaxR5pnMVSEf2vSmCUUiFQnFB0E8PrHDRp1Pz9Ogft+6uT9/HVe8LP+rgp0yZivHjxlAHHUn52eFPA6M/nXa75WSkdy09BOqb7trxFg9R5Bw25BcU4+33NyKOBpS58+Z5XK7oWy6+T4NnNMIiImnAGYtZs2Zg6qQJGDF0CHZt34aXX3kNJ4s6YONxnhP0Cut1ZwwJMZXNx8eC7h4HIiOjMHHiBMycMQ1zZs5ASmIC9m7fjjWr30XuwcOu4d2VJe8nMkCaG2pwYP9erH1/HY6QEcK1cfz4UTJC96C8ooIMUjvabTb55lVrSwvZFk4Z6MvKShEeHorgEJ7h4e+cO+WdQ00tzSirKENcfBziEuJlMO1q75CbsdvbO0U+ExjEbzYPRHFJMepIHiMHG+tl75QPiH64cSvqG1owMisLGSnJCPSnEbaHKlO/uZxlddBqDxeFHa3zy0LlxYcU5iqrXO7pj9661OC4LJnz6YG9vR0lhfnYs2M71q9bh00bNlF95uHIsWLs3J+PTTuO4GRJoxh6LnSRATFDMHx4Bqx+vvjgvXdwMPeo+LN0N/0M2BgQXQORmpaGGVMnIXf3dmz+cK3EZ9PdM51Ze4vFDzGx8dQOZ2NUzigMz8jA7BkzMSwtFfGxMYiNiqJzliaUV1WhuLgUZcXlKC0qR3lpFepqGkmCduu4g3RgudrlTi0PycdtwxPPQC917jWdGYrglsxzW6FQfNKomaIBMfdy1Hvx22z58tnKN/vOFJ0O7vzcOk3eIOfrh8CQUIybPAnLL70Yc+fOwvD0oQgOssogqN0oquOZ3mwY8SrlIT4ubxqeeHaLzuqrisqwcft+bNt/HIsvuggzJo2QyyJm+W7n1w4nQsLDkZ0zGouXLsPkKRMQFRlCxkkoUqPD8db7G3C8tBajJs9G6pAERPP9HJzcJELw5udJf3VDBplfUCDGjhmLJaTzhCmTEE0DX0RUHCKsVuzbuRu1za0Ii0vAxGkTxMiTGSsRSIO+vQPtjfUoqWhEaztoEM3EsGEZeP7551BcWoqskdn4wnXXYfaceRg/YSJGjRyJ+MhwnDyai6NHDiI5YwRih6QgIjQcYWEh6Olsl6+nv/L6W8g9coLKnYhx2SPRVF0DX18LgsJCYSVDiG8z6elqR2V5GTZv34PMnHEYPzJd9GPaa2qwa/8xbNh+AFlkEM2dNp58u9FBujZVV6OtupYMqVa09Vhg9w+Q+qmvbUVtdT065LJqoMzIyO6XWQfNeb7rpxctnJ/B8uFG5UN1g075qvzJoiq88MY6vPHWO9jwwXvYvWUt8k6cRG5eITbtOYItW7cghAy88Xyjuat9cf0ydgSTwRwfFY5H/v0PdNPxMWrSTDhINzYAOa62L2hNX2gCHLD6+yOG9uUrLz2PBjJcJ8+YD19q88b9YRbOS+LqHiSpsqQIpwpOySxRSVklGaLtyKZ9uG3zFvhb/TB52mSUVVag4GQBCslVV1aScVuG2vpadHV3ISkhFu2trSilfc/3caWmZSCRTkTYThOjT/LTl8a6QBGobA4ybp972Xz5zGOmqE86bxiRTBFPm0ahUHxcqJmi84n5DJ4Hoz5n9Nwb0i7wMpjxjuHHt40Qt6S8bpyOcwQjknmdAzkRf72WhuP9e/big/WbMHb6HKTQYM9YSFCvfA/d+J4XixVhUdEYkpwEnsQQnHYE+vnBn4wAvpTCDz+zYcWpXTJYKBeAnUsfxiMPRhJqq4yXGIhNTERMfDzJYmFcHr43BDJDwY9f92nGIpPK72eFH8VpqK1BIMXJP3IcK196DTPnX4RrbvwSRo6dQEn9yeAJQ2pSIlJioyV5YCCXOwJOKhjPXpD5gC4aFG+57Wb8818P4qc//TGqK0qxf/duHN5/CM89+SyOHz1BA6Q2u8eO1bLSiBlCRh3r2auhBccP5+GN195EWvpIDB+eo/s7UEcyX3hyBa69+BJcsuxiPPLYU7CRAjxT9NBDD+NrX/0W3lm9BjX1zTKIS11J/Wq3RPPMnvgRPCdi6GI4iSwzaHxrsQMlBcfx3Iuv4uXVm5E5egru//3vcfuNV+Doof34kAyNkRNnYvnlV2Ps2DGS2pf3rxhEnKkh1RfhEUEYOzodNls9du3djXby5qbJTn6NdiFJ9P1lDURSYgzGjkyBvb0O6z54Hy0d+p5kNXmpJ9N9UUflLiuvQXBwGNrabDKjFxYSjJKSU8jdvxcVZIQmJQ3BtGkzsHDBIvmY68KFCzFz5kyMzM6CD7WHlpY2MpZqycCsQZetTeSKITYgXBJWRqtnTTuPRKeVoVAoPg14jCaK/tE7Qtf9APq2C1cPriEGCY1o7LhTlSkZc3wdNy8PGaYwz6QO2nN8o69HCh3yZaNAlrRoacAeMoqO5h3DpKlTkZSSIN7a7agGpgy0QHE+fCnP3w++fE8FGyR2JyrqWtDU1o6gwAAMTYqVJ3BEkoeOffHIw8je5O1NhC9ZQD5slfGsl5gpPahrbkV+RTWCIqOQPDRFnyHyTB+A7u4eFBScxO7dO1FeVoqEIUMwcvRYpCfHIyyYb2rmGRYLLBYy8vSjIZINwZShqG9oQrutEz0OJ4qKS8mo3Iide/bA4ehCcmI00oYkICQgADUVtbA1t5G94CN6sA6trR1obLYhPS0d8dGRIlfG1p52HDt6DJu3bEdcYgrpk6SFEXGxMUiIjyadW3G4MA9bN2/A8bxC2m9lKCytRAfJH5o6FBEhPBfVW15uG9zc+KvvvZgr2FiT2LLG+/LEsTy888678gLDoanDMGbCREydNBGdHR0oLCpBN+UwbvwEZI5I0ZJwG3bJMGqc7BtqH6NzslBPxueHVEdUZYKRkzvkK8cQpSeDcc6MqQgO9Mc7b7+N6uo21yU0VzYmkoemY/qsuUhJTces2XMwd+4cRFLdXnHlZVi6/CIyzsIRER6MiNBAubcoPCoMEdHhtD95pk975URUdCwmTpoil+AS4+PET0rhXVmCak6q0r0+++P0MRQKxYWMuRdVuPDSI7vhLczcafKSL13pThhInsFg4pBIitZDjo0iMX3MPbGoQT9ymYQikBFz6vBxMgyK4OtnQVb2CBo45OISRe3Nz+3SmWlV4JuDnTzSOdHWYsOmvUcovR+dfWcia1iCvJKAs+2VYVaoHziq2XnDKAuXUnTQtO6or8ahglMoae1GclYORo0eJbcK9w7TjLbWSMZKwalTyDuyB532TkyfORNBob4y+8PStMy5vrQFE5eQiLSMEaiqrEFzQwt87D5oaWnH6vfX461330NTUz2uunwJLlm6AGlJQxATFoMQazACLH6uS2Q1tU0oLa/FuLHjMHSINviKUVdfj+KSEpRVVCEwNBwBIboRQFauNS4Vl1xxMe747leQTWlqygqxZtWrWPP+GgwZPgK3fuNbWLxkBqIjA2Fva0NtZR1amu3o7KJSUDFcl0KpznykDbBjD3M1G2s9qKyoREH+CUREhCEkOEhCg4NCEUJ6ddntqKiuRigZE0FcsZRJdWkVWpo6JJ4mQy+t0xcpQ8iIJONq9+79IHvZyJageGaLntd5FlJn8uRJiIuJwZ7du1FIbbSFdozE1pOwHL4HiC/npmZmYfaSixCVmIBps6Zj1vxZ8Avxw5U3XY2rycWTocqqCpywVwkNqugY2l+TZ5FBNX8ehiTFaXV/WtwF8XGjuUFgKrpXTheuUHwa8Xb8eTKYOOeSQeanjKJBw72XycnZLjsDo8bJyUBOjmvX0vtkz7mCc+XO3OjQRQvOkj3YBuP8ZdaABq2uHuzZm4vOzh6MGTMWcXHhMnDwGbmTBihO5lkSN6QsFNvCgntQWFyOFS+uQnrWKNxy8w2IjwICKXFvCSm+Uf6PgiTXCyTGJWvMOliw/2AuPti2E0MnTMW0hYuROSJRhmfWQa7uyCwZKdXVhoqqGrnROSQmHkFhwSgoPoV2NiK0GBqGurpHBBlFGSOy0NjYikYyboJpF06fPge//7+/4L/P/Q9//OMDuPvOH2Li5NHobGtBa0MrQgNDER5hdcmsqm5AaVmNGEUpSfGap48DrY0NaGxoJluVTEj/ADhpZ8h+9OV20olgqtCLr1iCmTMnorLoBB7/59/xxuuvIYUMgou/sEy3L3qwdd1q/OxHP8TLK19DeVmdGET8OLwL2geuW38IV1mlSvnHF37+/rBa/Ske169oQcn4LiBfMqD9YbFaaVvzLzpxAt/77vfx0srX0aHPBGlQrZPuocFh8rJKnl1jo0gzXxk9Z0MBl07kQTqGkoETFxuLdlsH8o4eQ21Nj9yTZcDJ5F4pLiCnZXV4aSqbC7O/Ob/+4hN9jkxzfLd0+oYht3elDxzTbV8YcBJPp1B8lvF2HDBm/z5x+kv0ERgwP3c+nhutWYnz0QF4K9xHzsckwFM+Xwpr1t5T5BcSg3lLLqaz3ADTjdZ6TyciuPd2YM/mDXj2iUfxynNP481Vq7F5x0EcOFGFbTt2YfuObdi9cxt27NiOXTt3Yteundi5cxd2UtgO2ua3/7L/7p078OF77+LpRx/GM8+8gO17jwD+kYiPTQRfSWH7TAZLGb/oR97NwwaEE7a6Zjz66H9RS6fg0+ctxJRZE8DvyuPBQF5YJ7oSxtKMDIgsiwNDcGTvbrz21mp0OXxw2VVXyg3bIQHa/TIcQxNBvxS/tbGRzv534cN1H2Dj+vXYu3sPlWMXdu/YTWVit4fKuJvqgcq5ey8Nps0ICiLDIjxEpLjqkHVgZ6GC+lhQkp+P199Zi6KySnzxi7di/qwZiA3xdzUxMfPYGvDxQ1tlNQ7sP4SjJwoxefp0JA0ZguqaWowZOxmxQdq8Fr/9WLMeqBRaASQtfw4iIDAEbTTCt7R0YUhyHEKDAhASFIygwGAEBgRL/Oqyaqxc+QqGZaVj5Khs9FDdHzhwCHWUDz8dlUN+QQHcQLgcdtKpAhu3bMPeowW49NpbMGJ4nGZUsiHJ9/r4WxBMxltPhx1Hjh7HyeIChETGYemlV2HGqCFS11zjRcfysG3nPmRlj8XInByEhZFxo+vPsxjyDiaekTE8Gfbipby3yg/1FRU4fOwkGXB1mDZpHCZPHI3jx07gmZdXycsRb/nSbRiTkYgwqvqI4EAERcRg5NiJiE2MFLGsi+DoRmNNJd56/0Pkl9Vi+VU3Utu0gu+9dz3Cz/CqaVOMbT8rqoqKsSf3BBy+oUhLG4oRqdFi/jK8Z9yS8QpXlb5qlsdV6OZnLDk+hxkN9XRwHFc8XuF9p72n6JmX39ZutF60FDHRlt577TgaK6UvDF3M1d8rU6H4DMIN33QcuDhdu+83/CwOGEMHA09dDAYQ7erXzhuGUrw0K2hsm9254HRyzjo/z4SetWrucXlJztcXjdSR7tm6EY8+8Rz+9cTjeOyJZ7D70CkUltWjoroBZZVVqKiqQiV/4JJdZSW5ClTRgFVBywrarqD1ktIiHD9+BJs3foA3X3kRb618ATWV5ZIbddniZPJK1OAtGlY621FeWY9dB06ixxmEUTljEEidOPfjxsyK13qQAZpnZnhKhWR1O1BeWIj1m3ehvLqGDKJLsWjxAkSHWtwvV3C2OnzTb0trG2rIOJAyUNk0x+tcrnIqL5WTltXkWpoa0NNtXJphDIHk+E7Y7k6UFlXijTXbUd3QIY9iX3fpIgyLC3LVOqutGUS8ZUFxMX8ItBmTx0/EjddcgRFpSdhDhmhVeZXMZHA0pzGnoQthEYw1JBwz+b4TfnFjWxPZM+43LhsEhgdh3PQxiEyIRJed6ox2QktLM5Io3Wwy2IKD9XkPPRHfxM3OQnr6kpHNX3qRrLm+RSH6oWq3BgQgNTUJCdGRaG9tQmH+CZQ29ebt4xdAcoKQmpIMu8OB4iobDhbVoc5m1wZicaaLoobiYs3wrJQfMkdm46pLlyElyorSk0exc/se7D1egrTh2bhs+VLMGjeS9jHQRuUpqShB1uhsJGeki3HBrcNVD1QWJzk7lcFu7yIblnRgby3UO67EFiQlD0FW5ggczc3FyePaaxNYPi9d0RhDKDk3Y0PHVW63RDpe4rthpDHHM+Tpnr1itctn/eEW4k0XheLTDrdro217O3bMeDsGOK7IoB/puHUn27Q6wPFlRBWMJWP4u4WZIphWXfE8HXF+P/NxppIHqAev9CefB0ZdWO8a4S2+W55usT3iUxfd0w4amXHpDd9EQPxI3P3Ag8jJCu3ng7C6hdBWhx3vv4Nf//j7WFfYjJxJy/GjBx7DwpkpGBJG4ZSOnzLrtU7Jw5QvT8PLbIZ84qAN23fsxWtvvIc9+47gt/ffjzlzJstnCjg9Gyjapxj4+gYt65uw5sMD+Oq37sb0uXPwm/t/hfSsOARTZDFmTPn01hnnzyM1DUsOTXJTdQseeuRpNNDgOHXGZCyngTQsKMQwWeTxaddkmYFHvXIrc3tk3MjOE/HnH5LMl3X46TmLBZUFRXjrw11YvXE3li1ZgK/cfAXVG5XTlyufbCZKwrNe/LZqbTj1x1vPvowd27Zj9KRRWHrpEmzcsRt/+9fTuP0bP8bCBbOQGutPKrRSlmwk9L48kOuSVTM1o0HBOZvT94Hvy2qowT/++k/84dEX8dcnX8GSJZMQRUXwlb1I2Jpx8ugR/Plvf0VTSwvCouPw2PPvYOKcy/Cd7/0IN10+Ve7xee3Z5/HwI0/iT3/9B9qouB/u3In69g5cf+XFmJadSoK4DjSTlfWS9sVeXCh+qzO3kZ4u1BSX4pF/P4pjhWXwi4hHRGI6pk+fhmlTJiMtOUL267bN6/D6qy+hstWJa279NpbNHS+iuOZlv3c24Xjubvzmjw/hWEU7HnvxXWQl+4DvUnJvF5S3TGtqq3C2iWLFR45gxXPv4p+PvYovf+2r+PW935VP7hmGOy8H3A0sizndvjLiGZwuvgG3Qzr2e+TbZ3cgZvg0/dtn/jBsXk8kKz0/VzaDzU+huMAxrAZu0vzdZT5eXZiPM+n4aan3/UYQb/Ew4+Bji7ep85ZovMGR9IdG+A1x2lPOJszyecMYV6QD1vMT9Igczv0Ob3IYi3aTYYLCtZzPFy7lBkl/inpjwLi9GbupcFp9zlRhjxTedAqJxJiJk3HbN7+FnOQE5O3bilce+wvKCypkyDL2VS/kwTtRd7480vvSsOAXQrJiMGPOfFx59ZWYOGkcamsrUVbd6Bo8BLncpDW0xqZ6HMs/geb2dgSFhSE6Jgb8wmSS6I54mH1JI25cvoEoP3EcL618UW7G/cIXrsGN116DSDKI+DHx3fuO4bkX3kZVTWtvci6MlwzcDCKmTxwPNCtKDKL6U4XYtm0b2aOF+O43v4rbbyWDiCuPDKLVq9/DS6++hWabw3Wgyg3ZnZ3Ytm8PDubnY9T4iYiOT0TOyGwsmTcLH761Ege2b5Q680EoikoqsfbD9Vi3cSuam226v/HTF65ib3A6V1qvUGh4BKITEhAVFYmWhlq0t/K33hlOZUXesVN4+tnXkD58FG7/6jdw8y03Y9b0Scg/sgevv/gkigqKZdaMGw+/w6nJ1omComK0tbZi+UWLMGyo/jQbGbTV5eWoqGqUp8HYaOQnFqVOZSeRAFs7iovKcOJkEQICgzF2VDaSEyLQ1dqMonx+10+dRE0ekorsnLEICgwhXZ3SbtkZBo/T4YOyygaEh8dg/NjRiAr1ETOzL3rNGJ0XN34iPCxc3nXVY6tHeclJlJe16DfBayn0VB+dcyboDOCqZscYS4XiU44cl9K2yWjh6W4zcpzx8U1HsavP0eA1fW5e1iw+duriaZzzIdNHLveTMz1Fy59d6nPYkge/YZ8fNNIz02CFZMad9JFxU5fF+XM0wzGeSxPn/54iL5kKp/P37ED6i8/xvIWdSb79xXWDMnLdU/QW2Six+j1F1v5f3qg3BmtwAFKTk1BZVYvjR/Nw6sQxRPMbeNNGISwqwHUmL02hT3nYw3AUYLEiJjoSflY/1NbXy2WWoUMSJVRrSmQQ8b0pFLW84CTefHcj9ucVkzE1GxdfOottjN4zb/7pkxfBfmRYtVYUY+XLL+NfDz+GmoZGMhhacJIG5c1bduAVMkR27T1A9loAxuSMRGRYoCt5r0zyoIOG/9gokmD+ISftVzxo3U0HhiPQoqcHHQ0NeHLFCvz3medwmOrOag3A8WMnsWHjZrz73ntYt2ETnBZ/TJ81C0E0EvtybXa24ejxfKzfsh2WoCBcf8P1CAoJQTi56LBQHNq7C031tejstuNkUSmOnyiQD7PyDb9JZLAE8MfMDHQdXWXSVestozv9eOty6Id0bWlsRGVtI4LDo8ngiEdiXDiF2XGCyvfMMyvx/AuvYeHiJbS/liMuIRZHjx7DTjIKi04eQ1iQLxkRVhQWF2PLjn2wdfkgKDQMEyaNx+QpoxETyN0It9NaeQfR9j2HqesJQnxCvPZRWlaQjWZe6epAYX4R/vfiaygqLUWbrRUnThzFwf252L/nAPLzChEbHUvyHGhsbkQH9WYjR49DWpL2rTJtVo5ys9nw+uuryfDyxYzZczFuQjZITYmjtUkTRn0ycu+bL/zsdtRU1+Ptt95GRFQUxk6ahPiUOFhJQP/HhQn27y/MEyPuYOMLlDkd+w7+9pncU5Qs9xTFmu8p8gblIdmY8zqjfBWKCxkea6ivIXfy8BEcOlYIS2gcgqj/ZENHu6+V+tL2TpScLMG2nYdgt0YjMjJADgOZHZebWp2oLK/Abrl/druc/PJnpI4WlKPLNxTx4WHorK5C3q6d2LR1Pzos0QiLCZUTfO3w486BnAj1QXttNY7u2k7nxQ74BcdodwuwOkZUWfFYGo7o02edF4zMPfHizzoLnmGuABNmP1OhBA7rk8abkHOFp2xdIZ5W8A9AxIhsXH3NFbhkERkm7VV4+5UXsHbtOjRTMDcdl+q8YuguInW5/Dl6OdUHgkNDMXX6ZASHBKKzo138XLlrox45BxoaanHyVCECwsIQFR8v7xPiUB7K+iBJDClaPvknT+LwkaMoLi4iQ2gT/vGPB/GD7/0Ad/38bvztT3/BgQMHMWbceITSmb7AVo6rIC6NBL5KaxhBEsdwhCumWxIKJKOorq4eW7Zt1x7ZPplP+T6AH/3ge7jzzjvx+//7M0rKq+SdQkFkk7nGp55u+bzG8JxsLL7kEgRHRIi3NSgYE8aPxlXLFsDR0YLn//ssXnzxDZSWViNj2AjMnjqRDCftMpqrkozysKeh3xkeNVJuV3qLfGR22fKlaK6vQVV5CXsK+w8ewZ59h9FltyIkIgbWwBB5QmxU9ghMGZ+NiEAfbN/6IXIP7kUNpW1tt2HVO6tJrA+WzJ0g36DT6Ca7sFlu0l+16m2sW78FtnZjRsqgG3Zbh3yaJDA4HGVlFVi/bi22b/kQO7duwqrXX8c///EvbNqwBXl5J1BRUYPExERER4SLHPnOndz504XGplYcp04vLm4I5s2ZhRDqBzmOUXVuGJ7cTn1YYQv8AoIQExmKqGAL2pvrUFlR4bpnSbIxcNu4APBawF4kmH/MTqH4tGIckHIc0qjFnYC9C52V5Xj7zTfxwgsvorisEl38HSLuQNubgcYa5OfmYtUrr+GXv/ytnMi5DgM5M+5EXWUF1q1bjxUrnsS//vUvPPPf/+K3v7sHv7//j3jn3XVoa+lAZVERXiL/b3/z21j11hq0dZrGMRajKUVYUF9XjbffeJVOst7BwaMnwCMk9yeex5+RwpPze0+RC9HahI9Mf7GXn3nwIWcYCH3GHY5sLhRvGzL1tIJbPiY803piDjdwi0eaebmnaFRWKIKMe4rMuORxifRSNdfj9RdfwP333IPDpc1YcNWX8P277sW0SUMQRuMDV4UME2ZZMkepC+PvcujfQbDbu9HSapNPPoQGB0r2WiyS4myhjS6sffFV/PCeh9FsGYLvf/97+NHXlkserpkiAzfdaUMCHXDaWtDQ2IjGlnb00ADGj2vzM+S+/D0yEhQQQgNZbDT4+56muRWCZIiBZM7Fx2UUGd68rXsZJwy6BwmXA4aW3d2oqapEa1s72YR+lK/+xSoZUH0QFBKMMDJ6wsID5JINtSxK3o12WxfaupywsEEaGqjJZxx2dDfzY+Nd6CBZdl8r/K3+8p6e4CC3Z6V6YZ28BvTDgPFJPyoTX7L7zyMrMGbMaFzzhavlhmwbHen1dc1k6PYgPoHKFBYAh6ODjNsWtNK+dtgdCLD6oKQoH/sPHMaho6dQ39yNCVOm4iIysrJGpkD7xj51AV2taGzsxHvrd+JkcRW+8bXbEBtpXNSiHqWugjqxl/DyqjW4/es/QBYZkH7+tI/o7K7H7kdhq/CXv/wLv7zrx4iKCEB52SlMnbMA46fNwpCYILGfuSm21VVh995D2E6d3eRp07D4onkyre1mFMk+JdiDGyAvJZC7KnKdXThJxuAXb/wS7MGRuOHbP8J137wZsaQu72UrZSaXX10CP254n9lM9xRNxZ33/gUjR1jldQ3eONMmo1B8eqCDmO839Q1Ad0sznnr6WVTXNyFz9DhcdMlliAqifqGhDvt3bsbrr7xB/VUJWmzdOHCqGr/80z/x5RsXSV/tSydmDUUFeG/jLqx88wPMnTsbV122HIF+TmzbfYBOEo/B1y8QP7j9RkT6O/D2ypfwjZ/fizvuuh/f/vFXQN2jyOF7mrhb4U6HxyFHWz2qTuXjT/96GoEx6bjjRz+lvg8yez0YBhntbOGuQe8ReZCTjk3r3Liz4y7RKIzRg3Bsl7+etC8UyvHZufW+OkaY2XnDFGY2DWW937wHgSs/FsIbvKto94XHYfbcGbj1lqsQGeqHTWtX438rnkBxYaNxa7RWbrO++n0XgsvI8IHFYkVkRKQYRJqPB3YaTOtr5QV8PoFBsIaGShzNlNDxLKcE0I/kaYEPDVDRQ9KRMTJHvtE1cuQIjMwehsyRqRiVk4rhqdGI7mMQESLTlQuhrfOvqwgm+vqRB+vAhk9AEOJSMzAsZzSGjxyJ7JxM5OSMQA7pkZOdjvSh8Yhhg4jyFPuRDTc6WINCwxEbHYGoMN0g4jCpXAv8I6MRmZSIxOR4JCdFIj4mBCFsEEl6juOBF53FKhB5XvAW34DLRYbs0JQkXHnpEgSSIbJ50ybU19sQHBKAlNQ4DM9KIkOPKpY/pWIJQExcItKGUR2MGIEhqcPlBZqdtnaMyc7EFRcvRFNdJZ5+cgVyDxejuYMLQHvEPxh20jE1JREzpoxBaKDpUCdjs4AG+G3btiL30GGkpA9D1uhMZGSNwPDMkUhKHoqA0GBEJcZSnhnw9/OXp8LyDh9CQ22VFI/rtK2xDofzjqGkrByz5s3HhImTZF+6tTEzrJrb8apXtp8fQgIDEUJLW2MTqioq0UmdAJ9KcAwvdxV8zOh6ytJwDvdiGFEUis88dGTyfUTdrcgvKceW3BMIS0jB3PnzEam9AxZ+1gAMSRuBhRctwaIlCzAiK526Zjs66GSej2ttptkXRw8cwTtvf4C45ExMmrYA6cNSkDh0KJYuXoIbr70KlyyeQ2MlCbVaERMZCYvTjkCSQ+dprvsW+bYhP3LcHcv3PINDkJQ1HDmjctDT2Ykt67ejtUWLy3lLvzLAMWvqKc81Ro567lQYG3WoxXmHcexYPsoau1wGQFdjI+pKilFSXIo2/Q5LT31dhZDpBXa0foZ9JSc515xeJitJ1SwRnYjLGIabv3gjLlo0h07ma/H2S8/iw/fXoLRCe/rIqzz2ZOe2twbImeunvR3NTY3yxJhvcBD8yPURwaqZ65AjePMzZ2Ws884zjAIjDjvjEpxZhpHI5Cc+tO0WjemTtwh1Of66ly5ND9dcbzJaY8PDFYnwXGdRerqzRsp5BgL06PwsBZfJ1+qPmfPmYcTwdNTX1qGhoZl3mSuqLCme0zCKOT8JcMCfDKUhiUMwbuxoLFowG2lk+LTwvq6rR0encQBZUFZegTDqUKZNHofAADZVGOoSSG5HVzcCqPOIjI7Czt27sGXzbuzZk4vc/YewZu1aNLc2Y/HSRRg/cTwZw1lIG5pKRqMDPV3aaxNYq6rqGjQ2tSAqNhYTp0xCbJz2KY0+9O4cd6Q8FGixkHHoh4igQHS2taKqskqMIqN5SaPtT8bHBilr6CDWsxdM3p+4ugrFOYSbdm/z5iPTB801tcg7fhLdliCkDs9GUmyYtHvut/gqwrDs0bjkupvx1a99BTNnTqXz2wAyWnq/z8gPjBw9eBi7du3D9FkLkEUnuwYh4YFk1AzH1OnjIZci7D0i10JnY9zXHcurxe49J7Fj+2EcyC1EUWWbfCdSbr7mk2nqTxYvXij38m54/z001TdIvtw7Gt1/f7iNkecWVw+iLXrsWEvKff9738bXv/F1vLt2jcww8Jnljq1b8e+H/okH//EQKqqq9ak1HW0slAkAgUtjnKV7lk7WOYw6fnEcYXCYZyu8zWacEWadjPLzgnYqrGGIGTEWN990E5bOmYT2+uN4+b+PY/e2Xa7iSHJDB05jDIiuQGYgJSkSDV42GmWddjtCIiJoAAwW+YKbHIJFGc4r5sgEC+K45tZjROHKY8eDuWsgN8Hb5Di5OP5hP7ddpYcasnpjy+8Z4y7C3Q0GXWc3J4/xDVIAx2coun67OfnRBnUQEyZMwqWXXUrHsA81Wd2g0eHSyhMZDCVz0jHE6eYuXIxrb7gJM+fOQ1xiIm6//Uv4x9/+hAVzJiA6Qn9GnNKNmzgRY8aMQWgIdSpadlTPrLMfcsZNwZXX3ohZc+ZhxYrHsXz5RZg7Zza+ecc38eG6tRg7aiTu+tmPkJ6aRMbbDNz7wP34/ve/j7Gjs2VX2e0O+Fr8qeMajeXLliE0WDe6jPrpB3kw0lUfrIuWgL+vFxcdATt1lNXVVXyFUUI4xoUGf+NO9BqgnArFZwlu765jUfpqC+pr6lBWXIZJ4ydgaHKyFkTHhFzqlnGLIzrR0tyCzo5OMWp8fPWPY7OwpnpU1lSgtbUJ0ZGh1IdwgDv6i0porPGDg6en/azIzcvHn/72d1y8bBHmzhyD22+6As8+/SSqarv1Q5ItCz9kZGQgjgyqivwjsFFe3oYYb5iHtfOAkbMPWsm6Cw8LQfbITFTXVaO6vk4ukzElRUWorqigzjuU+nyLTG+JvvzDGpKTuLJNPxYqNPfBHEabXP/sJFwGUtrgFyeYHu1jOFiQeNqqYF438OY3EJ7xZe94erI+NGgFRpMVuwjXXDwfOQlByNu3HWveXoM9+1pk+o/hhUwSsOMym0VJoMkZyLbWEPmR9M6uTkkXGBoK/yB9XpMxZHmmNyH1yY7jGo1cPD1wi6c7hpfG45CGpzmeCdk07yqJY0T0dIPEW9T+RBhlMOhv3cCQ40WWt+gaFGKuPzGKqNBkDIRFhCA2NgpWefO1jiuqngm1AR9+dJDrxRoABPCd5RSf2rm/1Q/BgRa5Zi4SOK0cB5xOdwRnqd1u7QefkCiMnzIT37jj27jnd7/Gw//5Fx555GH86te/wu233Yr5c2di2NA4nrXW5JBulgCL2II89W0hoysxIQmJiUmw+JMn5yn5kmOMbXbcJNnf7NzwRWAAfyokkA5rJzrJmOemaxZ3IcD6aGiFuJB0Uyg+NuREzYLGugZUlVcgLXkoYqNitCDjoDD6HzlOaIUOHidbTAT/8itd6utr0UDGSmNTLXZu34xf/PxeLL3ocly8cCG+/o3v45lX16GyVZJQl+VPdoEPOqkviUtOwzXX3Yh//+Mv+PcffoWcjAS89upL+GDDFpTVsfUgCbRbL8KCEerTDVtzPdr5nJJCjPMyszOjd5fnnwB/K+JiYpGRlo4hCYly9sp1xp9hKimuhK2tmyy7TATR4M1KtTW14/Cm7cg/cAQNdfoFQR17YxM2f7AZx/JK0U0lNAwJFz5+aKyuQO6eXdi1dTO2bd6IrVs2YcvWLfK+m+1bt2PH1p3kdpHbQ9t7sGXLbpSVk6HmZk5+RPropTUmvhpqiRsqlu4XrlwGPx871rz3Ll597XU0NGg7zYWrcQ2AkY/eCHm7u6NdZorYSOJvWFn8tU9huOC4hjMwRZDGbQ4TPdjROhfDCPPcHoj+4phleToP9ENMwzOu2fWHt3BzOs/wgcK84DVY0tGP2XGdsdMJDrHC358jatFdeWle2tIUf0CMNB6wbS3nCfxDZ16h0bEYNW4cll68DLfcejNu/dItuOTi5Zg6ZaJ8LJUNIK/ougTSqZ1/ID9loPsZ+RrrhjPJ4aL3Ymz4wkIGH78Kwd7TjbaWVnS086XS3hgXCp6HtBsXmrIKxTmnd7BpIKOorLgUMZFRCA/V7m11p/eAYINIbgdwaJfP+Nzd1m5DR0enNqFEYyPHdtq70dPRhgP79+HNt1bj3TU7yHCiAIsVdorDD/jEJQzBgkVjcN3N1+JrP/sJrrh0Kcnowfadu1BYXEaRGa3TiQwPQVxUCNqaG9HW2nuLykDHcX/d3jmEsqca8I+Ihr+PBTXl1chKH4ZhSYnyRtwufqCrpBHUD9KZZwqd8QaIUlVlFfjzA3/GC8/9D0WnCrQzYJ3iqmr86e9/x9tr3kM7X3GgBNLZckl1a/R4fgFeXPkyHnt8BR559DE8+tjjeOyxR/HoI4/QNruHNffIf/Dww//GY7R++FAu7Fzr5xKve4CV7UHC6HG0Y29FZk42KsuLsHXbBtTW1vOT6BKjt0l5YAR6i8CGF1VGR0eXZhT18DtBtftwXGr00aeXnq4edNg6aVDqQmdHN52185NcHeI62LV1oJNcR2s72tvayU9b2mjbRst2DiO/XkcNn1w7x9OdjbZttjZ9ydu9YZJGz6OzjfQg10762GxUHn6iTF/y02Uc1us0HdnZZNmrg+bPMnRHZbO1s1xDPy1PkUPhHNcobyeViZ0mx9NxnF4dtTy0/I1yaWXT6sDQhx3PhnRwp6D7d5I+naQXy+DvrRn5a3VOYW20P8h1SX6UhhzLsLVRPdI658Guq6MDXZ2UhmTzlDV3OvzYfa/jMCoX6yHl0vet7G+uW229w61+yY/8e3XsoE6mVeqlm7a7qJ3I/tBlsHytTXA6/TqYAbdZ17bRiNnDIUZbZ3cHWpqbqV/QO8sLEEP9PsVQKD7L8Ew3H5RyYPrKe+v4/j+rn5WcFsXHuKJgmhXnNRmB9PR8qPCN0f6+VvLzQ0hoNGbNuQh//suv8P66d/H+pg9wx1e/jPqKSjzz6FOoKK0iwXTC5OMPB9kQfAmuk+0b6R/8MWHyFCxcvBgV1ZWoqqW4gnZABgYHIjwqTDPAqF9i28I4XM3OzPl/JF8u59gpJ39sf/NNPL3iKSRmZuHSG2/ClEnj0FTrxDdu/gba2tvw27/8DiMmjECk1Qc1hVX462/vQ9a4HCy55hIMHZauydM5dOwUgsOjEJ8YIS95k4+b6mFcSltrG+rr69HV1SU7hAvpIF18yWDQKsGH4muPiWtV4IvYuDiER4RpEzqMW81QGQb6zAfjFt8DLYte+JMPPnZ0leTjO3f/GeW2AMxfejm+8sUr5Ikuc1QXLMO1B9023HE2oeXYHtz/4MP4v0ffwORbf4offvsOXD8t2e0L5N645ze/w9/+9jfExsaJfcl1JtVDWWl1p9cfefL3rmTVpQutyUVl/te3OUQsVn7cmxbiw22CwiS5/iZTHeMJMN43/McmnVwK5fSUwEHy+S3ffjyCkm4Oh110FDgf9uZVistRGONMhJFLSBTGQRxdPsQqWxqsq5zRkOOb+iSE1jWNZVXC+LX0/BZW1pTLrBWRy0s6cXpKaVxblyBa16TxXUUch0vGE8LcDql8pBgf7Cyfv2XGZZS8OYWej6yLJoY2LMtY05EV9uEzMq43foWBEZM7JNFM8tN8NYnaPiIomhZi+HFZtPoQNC9yernoz0n69VAd8J+vL9cbB/uQcdaNqOhoPPfccxg7bjSn1tBFycsb5dZH0pOOq7u/8108tep9ROXMwoMr38P47CBEUJDxlMknB52ldNvQXZiP5TfcgVjjMx8jAvp9JF+h+ExgHKu8Iv0BHbN876MlAKtWrMCjz76OO+/5CyZNzkSw6Q4NMw1FJ/D662/gt/94Aj/87V/w7VsvgZWG04Zjubj3gb/gf6t34IlX12Hh7CHQbk1sRu62PPzpoefx9vs7sfKZf2PBjLH48IPVuP6r38N37rwXP/zRFxEjl/ZtKDh4AE+/tQmrdxzH17/8RXz9ygUUwNdbLDi4eQNWPvc/TFm0HOPmLEJSkvZOPbf7lrUeUHf0S52dq9jnFJHKP6wcZepjxdsrnsQj/3oYl9xwAy6+/jqkpQ9FWZENX7nlW3JfxD9X/A0JaREIIt3Kjpfg3p/9EhddcQlmLV+I0sYa+fK6g86CecC09fhgxKjxyEiOliLxI9naAEdI+bQCnhVea6SvUXSXbhSFGEYR4zWtAQWKWqyxBY7Gankp4eMvvIGRk+fisquvRVpioMygDRojP7fiNqP56C4xiv7w2JuY8sX/hx+QUXTd9BQxirzWDMuhgBee/x9WrVqFiHB+4SENeFSndq5XGvi0gV1PLz88WNJAK3XNjrbNRpHE0dDU1OJIPK4DzUoiX2qeJEPi8GBLjhssy3CwbMqbfTicDQ42zrTXNWlGEevAYaKHJlIWohYFsPpiFNG2GHkSmzeNP4kmP2yMyBQvxdNePa8J1NJo9SFGFfm70nLz1hSmWJpRxJnzn3F4iUHJsqjMmr7UnsiI0vwoMRtFXE6K7uCzKTGKtLSaDuwYzbAx9GE088SA/Q3HMY2a5G3tLE3b1nw4LS8ZLRdDlhaHY2h5cZs1pHKHQr9SDkpPevO9SmKckrEntz7Rdk+PHSEhofjxj39Exzp/j81IbcB9g24UlZXg7m9/RzOKsskoelkziiIpyDxL/MnARlE7GUUnyCj6NhlF6j1Fis8JRufASIMmD3lHkRWvPfE4HnnmNdz9+wcxaVImQvoxipqK8/EGGUW/eXAFfvi7v+BbX1wOK3UVnWUFuOe+/8MTL6/Foy+sxqK5I8EfRgDaUHqiCvf9dQWefG4VVr3wBJbMGocP167GjV//Ab7z89/hBz+8HdE8mNFJ2IncPXj6jXXYerQEX/3STbhl+SzqR7up3/THwU2bySh6EVMXL8W42fOQOCRCisGHrXZ8cgGNo1U/YtkoOufQqKA5Gk4dXeTayXU7n/7DH50zUoc5X3r8SWdtdZ2zxeZwrluX65w59TrnNVd+31lV0+3sFAFO5+E9h5yXzLzI+cKTK51Hjpc673nwUefv/vAn5+/u+bXzFz/9vvOGL97qfHnNRsmmg5ydV+yUn72bVnqczvZWZ1N1lbO6rNRZVVbmrKqsdFZV0XZVtbO6stpZU1lDrpZcnbOqos5ZUVbntLWxvpravWUwHMnsanE6C0ivqbOdV1/6Feeu3BZnK2fuSZ+07OiH6sDp4AQ28dy5YYvz7p/92vnDH93l/HDbfvKjLOS3F7MIr7BY3fXS7Gw8stb5s298gcYsq3P6l+5yPrut2El7gWvGO5Te3sMFVyjOPQ4+NuXAMsPHA7dKavUlBc67r7zUmUynN6Nz5jrfP2xz1lB0Ppo/efjYb3Z2H9vrXDRhhvP6L3zPufdIl7PN82A10e/xqlB8quGBgsevbudrTz3mvGTp5c51m/OcjW1aqAs+APRBqbXohPO5h/7qzMgY7fz7M+/J6CfjUEuN8y+/+plzRNpw57MvvOusrTMG0y7n3l17nV++405n+vilzm3bD5OQNufaF55zJkQmOO954BFnk2nc3fj+B87bvv5D59fv/LNz3e4Tmqddi5C7bpvzri//0Ln65TXO0opmsS9ch63oqK2a4dPIc4vZspQzZvYgs7CpATU11WhtbUVcTAz86XTy6NEjePGVl1HV2IjAiDDYOtrp7LKHYjvRZe9GSGQ4mjs6UVhShZqGdiy56GLcfNP1mD51nNwI6h9glafStHNYhtfYWXBw3x489Pe/4p7f/ga/uvtuzf3yVyb3a/zqV7/B3bT8xV2/lOXGjVvRZiM7Qj/rPzNMBXcZnbo+8o0nXufZAe3suLG8Auu3HcCeI2W4+rqbMXnCOJHg7axYapB+2LmyMZaE4a150S/PclD9WvjpJIJnJHmmot+dzQlJX1/XnbWapPOGN/Hs5+bPG1xn3jGiuyUZAIkrkd1TmLe8BAu8x86GXlG8Zjjv9B9iRm9PfdzAsgeG0xkyzgCZFeJ0g4MvDWoHlhlqdMYsGGUvFxJ9/eW49vWzyESilsPZlu1cwjoa82jar0LxuUTGdLvcq5OYnISOni60d3kepbSlz5L70THuR8eMdvTw86X6cR0ajpGjRmDMqGEoO5WLpnrjJml/7D10GJUNNRhLY31MQjgJ6aEh1EbDZzsCLA55m7VAgnbsOohNG7ZibHYOhqWkaP6+2jHa3QG0NHQhLCQCIcHaM//SC7kr68a5/yCsub8wdXj8tMvxvOPYtmMX9hzMRXFZGbrtdth7nNi5Ywd6utowdXI2UhIj4Ou0Iy8vD6vXrEF+UZE8Tr502XJMGTsS3a1NKDx+jMwKfwzPGYcUMo64gv0oG8madwSV2kqdcFRMHEZkjUTO6NEYNWo0ssmNGjUKo3JGIYeWOTk52ja70aPkJXVRtKN5+r9vpZGHxwdh5+ofhOWbzDi60WX2wr7kuBGJgch+JLytAw89vALHCksxb9FizJ8/B9Ghxr0fRjn4nww0qUNjW9/XuhcveeBgx+v6gn46EdDRit37DmLtjsMYNm4mpk+ZguwU/btVHIcRnfSEAuegO7LAThUWIXffARzcvx8nj+Whvq4RPn5BCAvTnhw0hkS35OalK0DH8B8AjqIV2QdOatFlpeU4kHsE+/cfwIkTx1FVWQ5f/wCEhYeJQcwGC98zxEm0dKwVO/FhD4HX2KiUsht1SvSuEVQfXN9tre0oLi5DWVk5/Phty+aL5SRDjFM9oZG+p7MLpcVFOEoHc1R0LKwB/AipXh5xrBMnZsOY2oDdiY2bd6CuvpHKEt77EVojAS8FWhF9Kb3eyWgRjIW+LhjrFE/imh2FmaO66onhALdASeGqRd4wMEcjI6errRWlJaXIP3ECfrRfQkKDjdz6RyIYOfCSOsrmZqx5510cL6lE7PBsXHbTTeDv5PI0N3eonyyko6Pb9EHYIYP6IOwnrbVCce6hVi0n+D5oqKlBRU0TQsKjER8fi+hw7ePm0u65z+I+iI6bXdu2Y+Vrr2P9tl0YMjQNmTkTkSgfhfWlNGEIi4jGvr37sXfvHuzduQtrVr+D3CNHkZ6RgWu/cDXGZg2Dv70L+cdPYO36zXKzdWlZHTZ+uAn/fWIFTpwswLSZM3D5FZdj2NBIuYlbGxksOLDnMDZQvgsvvghDh8XLeRnr5zmOmnGNj+cHyZ4W1LUFBGPc9Jm49Lrr4KSBpqm5EVHhofJm5ysuXYRJ4zMRbOlBELmO1no0NNYgKCIEp0oKUVFejFGZGXL9vpkG5oriCgxJTEZ0pHY/EefCXaus6QNOVHIaps6djwVLl2HJ8uW4aPkyLFt2ERlXF9E6uyXkFpNbhGUXL8LyixdiWEYS/Pk6JQvTBJ4RbslcgxJpyOsyCFjR0diKLTtysWtfrnwB/QvXXo5IvpuU4J1h7B8npWHHMtiP25hrZ7G3HpEXxqbupXkEBctX4flRZ1tzK/gpJyOInUbvmugob9ZzkOHZKB8Tff2td/H+hxtw4vgRnMrPxZYNa7Fq1VvYc7gaDdqLjcUwcUnhFTdFPDD8vcXR/Qx7xdnRhsMHcvHMM8/hw41bkHc8H/l5R7Bz41qsXf0WNu88hDo6O5GHEFwVxwpQGfgm9o4WlB/Pw7G9e1FdVgl+0bM2EeaDlvpaMqxPYO+uXDLID6O4qFKe2vIhU5slnGJD7PBxNDY2wtfOH2AxwfmQHK4pftcGLxk2YNvb2igvzUCob+qUqFI3YrUy1BZ87WhvqCZD7yAKSyvR1NpBRh3Fkn1twlUew5/v3dEzN5RwrRuuPyjMLZi1NjQ3ZLhj+Eju3kTrO4p172pvRRUdpwUn8lDX0KbtEwklzEVgxKLUPWSmidcddKbZjfpmG5wWf/lSPr9Wi48Kb1l//BgF0HTVltpxqVB8/tD6jNj4BAxLS6W+NA+1VRUSYpyoCnSAOGks7qJjOnpICo2/i5GaEA57S61IEBmpWeR/GbKzs2HvsaPwVBFKyyuRmpKCixfNw/LZkxASyI/j+yMhLRNfuOFGpKcmU35lKC09hdKKUmRlj8BXbr+ZbIREBMpQyho40NHQhIqmBtjpRC0oMkxOYERz43Duh/P/9JkJGXdpybd2amfODGkqGvBPO2ltRzl1ruu27cUxMn5qahoREx2P6VNn4ZJFc5G7fQtee+lFzFx+OXJmzEVCfIgUlM+z+UOqfToqk4eWtwnJ1wQHkh/31a5LaK44VNED3GhtROMycjK5fVU3MiSULx/Qee++nfvwn8eeQnLqUCxevhSzp46ThsT6u3TjpKQE32wrG3oTcsFe/EMDE0vnXLgtaLHI39EEtFThqX89gTvufRTx45fiJz/5Mb517QyJz/XEcX2ldei52kmKD2lCepYcO4S//utJ7M8rwoRxo3HbdRcj1NeG51a+jbc3HMLEuVfhtttuxIyx8fLNNrYjpS2axJ0eU2Qv6aoLT+C5557HH//xCG775vdw2aXLYe1uxLYP3sT7W/bBNyYTP//Do8hKA8IoPs+mSp3zkNzThpbKejz0t3/KLNPlN9yMRZddRYZ0pLw2IHfPdqx9fz22bt+H2nobbvvS9bjxxstlmra8ohE79uahpqEFN165FOEyT8tvEiSLnB8JpS3eX7xklbkejbp3tttQUXQK723cgaFZY7F4wRRt35BaPk5KxfVLhtfuTdvw7sY9WH7NrcjOSkEo73w6o9JOY6QmdSghP6VG/rpprO1jLibTp66NADOmSBwsl72ojvjbRdLIuUxanloOWtmMlssh7EQKpzfEmde7bCjKO4TdB4+hyy8cS6+6Ur5NJOkkT17RnUzXyYpWZtaDMqs8dAJfufl2HCgsw9xrb8IvH/o70iK0/crt65OF9ht/EFaePvsWYkZMxZ33/BnZI4IQxFNZXD4DvU7M1aNQfLbgfgywNdZj5+5D+O8zL+Gyq6/BNVctlS/S83HPXZpx7UMOD/rR1zT4RNE4QEzeLiSM+ygOpH7KOLHkTYmvJZJfEUU/0jlyr0X9irMbB3YdxZrN+1FOZ/Dfu+N2ZAzhkUJHS65h6KFz7i+fDQCfXGqOf3gAYMcBRiCXii+zHcP+3KOIiIzFpImTqB+348UX/ofwkGB5Z9H2nTvRSmeWyUNTkZEUJ+XjHeE2JcaY1wm3TXOlMJ5xPWVxggEunxnRe5PRr2xQOtlZfig6lof31m3CsVPluOKqKzBt2mRYSXEjmqSTDdO69mNC225r6cKatR+iprEFacmJUhzJhuGZEosdxw8exfub9iM6IROzZs7ApFHJ2kBHIuTpLUO2uS6o4FY/P0TGJGDipCmYPXMqxo0chtghsfCx++FUeQM+2LRHPg47dlyG5OkaNA3cNjzgvMx5M17i+/taEBkVgzHjx2PxRUswNicTSVFhSIgMxY49B7F9/zFkjZ+OlMRExPATC1x/IodGWB5sO+3YvH4zyitrMGX2PESnpGHfoWN48cX/kXGUgClTp2HqtBkYSm1o+pQJGD5sKMlwYM2761DXYMPo0eORmZoAdNRj7+b1+NuDD+O1d9bj7TWbsXffIYzMGo2YUKuUneGseUI0mAb5d9auQ7vDByPGjKVy0J437inzsWLP1r3IPVqI0Kg4jJ0wAbFh/lSvpG8HGbI+1JAsfmKQ2KmpOeWHjWN/dPT4aLNd3F6MsnqpN3fMETgR60CrVLddbTZs2bwNTz75FN565x1s2LAZBw8dRwUZhW+t/gCb6aSktcOB+LhEBFupELzfuPF45ivt24nI6AiczD+FQ0cLEByShMiIKO1VFUZ8Iw0rzrKkw9MdGeItdY1YufIN2KhFTZw1h46tuYig+uT6Ner4k4N05MtnNAjw5bOQqGTMXbQMsVF+fS+f6eU0iqtQfKqRY1XHaNQya0B9dCC/aNkH+/bupZN4JyJiqS+OiRCDSJsc0G5H4GRaf0U/hjPDg4iEezp9xTCgDMfxebAnJ0/pikzyM2YkOEJ3Nx57bAVKKqtx1TXXICM9RTuBMZB4JkzbLP6TgSu7j2N1/BAdn4wJE6Zg5tQZmE0D16zp02TgiogKR3pmJi667DKMHjMa0fyhOIL7JbeCcAE9C22G8+oPSufaZwPFI/pk4xlfdhZpZ6ez/foKrHlvDfJOFmD+0osxbuJk0Jgq6Vl3Y/+7cHmYnZZBXU0jPvhwK/ILS2Dr4PcwaSFaKP1yVGsgDVTRiIuKRmdTM425LeJNzVmPp0MbklZuhCVdqQEGhcdgxowZuHjpYkyeNA5+4eFAYJR8SyYlZShKSstQV1cn6Vz1bgh1E+4FVsKE5K2tauge1tAIjJkwETfddCMmjM1GUHAgAmKi5B6xyLBwNNTXiw78OQipP7MgMq4DgoLp2HWiqbEVNXVNyD1yHKU19YhLSkFyajpGjx+LOfNn4OprLsfYMTmQz2bYOrF3x2401TchOyuTGpYPCo4exOo3X8c777yLusZ2BIfFws8/UHZPO9kstY1taJevl5LFQgpYQv1JV3+0tDWjuKxWvhFmDKqt9S145c31OHS8gvb/NEREBIvuzvZmVOYfwcr/PoX7fvsHMsCex7HjRXKMV1dV4t//WYH/vfg2juVXyRvg5dyBMcrrjT5hrAebW6RrRzveeuMdvLryNRQVFSE6Ohzt5Ldx0zbK5w2cLCyjSvVHV3cPHKyEgbHvzLKNjsgahuTkZDIS/PHhmnUoLa6WYM7RFZ1XXBuUyJBHxl9reweayOoLIWNqyJAhMg0u+1WLcUFgLjZrdiHpplCcN+S47W392qw1H51+SEyIx7IlC9De2oT333sP1TU2dNFBz/2jNrmjp3M/eNwPbJFvcgayrUf0jGN2jKxzH+eLtpoarFu9Bs3NzcgeOZzGsFHyXTUjquC2QZi2je71POCZq4l+g7QKGJaZg+WXXopp06cgITGWCjUBv/71L7Fg4QIsWLIYX//2Hbjlizdh5Ih0Gfi0QmhC+VcfhmTdLas+HjrmHcTwtqefG14CPeVKXvzjA0dTI7Zu3oRNmzfTIOGDS6++EkE0ePLLfrtpIOju6kFPF3+B3C4vvOvU30rc09UFO798kl/73dEMtNWhuaYam7dsx4uvrCIjMRYZw0f0llV+aEsMKitiYuPk2mx9eQXqKiokjlE37MSDokp03qTRVl745+MHP6sVfnz3Og9rdr5LpEfeUtzd1U1nA9EIJ8NEmyI1NyISyElYride/FhfvpoiuhhwPHaslD+dictnJPTBvIfO1m0dcPTYEWQNQFREOAJ061/KIAcFJWYDz+Inl8qKi0ux/+ARHMrLx9D0Ebjjyzcjkwwera74lfER8OdX1PNTj63tKDtVIm96jtHe8YXSogKcPJ5Hqvhj0pSZuOa6m3DlVdcgKjIUVVU1JL8YbTabvC9JSuLrQMrQIZS9L4pKishfM5ZIKBkbxdi44yAqGzqQlZOBAOO6kL0TtRXFeObJFfjV7+7ET3/0E2zfvpsO6jYcO1GAe+//I1546Q2UVdRr9csY9exWeTpSNvrhpQuOSDr2tKOK2sKKx5/Cpg1bMGvGTNx5509xw/XX0f4OwMaNO5E+LAvXXncDxo0fTwYe72WC8+MdbeRv4NrupHTpGJaahk0frEdhfqH4cq7iWB35EW9KZxLUYUNVHRm5rTYEhkcgKSkJ/MUTV3Zu5fhk0VRRBpHicwg/0cKOjkx+LxljDQrC8ssvka/R84MmNVXV6KKxTAvVjxLpbHmpLc45Ipd+9Oyqa+qwfsNmTJ06DVdfdRkiaQiR2Svd9auH7q/pfl4YoNvoL+hMexqpB0pkDACy3esYN5HmAAPPbQO9gnqhiGK1mhOYIvWRQ42Hpy+cPSgoLMKjTzwtswYj0lNx8sghHNybi/179mDvvr3YvXs39uzdLet8B/6+ffuwd88+7CL/nbt2Yefuvdi4mQyhl1fhZ3f9Bvfc/wccPn5cjJ4hidGStfuO5LkzP3n6buSI4fC1d6C1oRYdND4bcSW+SWdeFWfy06CYFjZMwlFSVoX8gpPIyExDUnK8PBnEOQmSztgBxlB4ergGB47JMcggYhwWFJTWo6KmGYFWf4xMTxTjxaWyrJC0nk70tDWjkc5eqhvqUE5GwNTJUzB1fCpfbRaknOxcu9CJzm7+iG4Huim9odOEiVMxZ+4CtLU04be/+DHu+n/fQ+6+3RTHAX/5KCsZjwGheh3xoceXVKxy43ZTfT1VhaZ7e1sT8snAsoaFIC4lWW7oN/T2iYjBmHlLxNCfM24MgpzVOJV/GJt35uJoSQumz1mMm266AQvn5YixILDeRhlcmD3cAggtQTcZcIW0D6sqK2Cx+CA+Pg7d3d0ICgml9hKD2vo6NDbUUxmcSE4IRgDt4D77xy0LbklavtFkpEYFWlFx7DCKjx1FE9nxbCoyPNvtw9dsjbSij+Y62ttR29AkL2SNiI5D0pBE/QkSHSNqf5wufCCMtAM5nd7bL7XXWfaWRcdzW6H4LMDtmjtMnqKmE06+XOU6POXD6xZc/YUv4Kc/+TGyM9MREqiFaqcOnE4/MPTFafE47rxilsVx+YRLvx8zPWM4/t/Pfo7Lr7gCQ+gEi/svjqJrY1rxQPczdz0fL4Zi3pQz46WCeEJAJgUYSe8uyNjq9fFgoAhe8tPoTaQl0zpGt6hu8ng4sOPozu14fMUKrHr7Xaz94AO88Nwz+M2dP8FdP/t/uPNnP8XPaOf9/Oc/p+VP8dOf8vbPxO9n4kfuzjvx05//Ar+4+7e47/6/4hE6w99/OA8pwzLIMEmW16JzU2Cn3VPFu5SdBeGRMchIT4OlRzOKyE5w6eu1iGZkAOAykCwnDfb1tWSkHUBpeTkuvWI5srKHa9Hk14B3im7AeDYtt7rR4GOFJ6P0uQgNKYO2qunA8rRm3dHUhhdeew/dTn9cc81VGDE0TsrfqwPHI52721FUWogOvg+EMmBDjp+C4NvsNEleIHX9/P20dzWRMWvECY+Ox+LFy/C7X/0KS+bOQE1ZAVa9thInCwqwd38utu4gA8lpvPma9wIZRX5WuYykvSZCy7HV1oyjx4+Cza2gCO2GP85DMxrIQgqOw9LlF+H6qxYjPdKONW+/hn8+8jS25Zbgsi/cjAUL5iKcosk+Zox6Ite3TJyxHpEDDMfa2O0yE9nR3kZ+DgQGBZKt7yPvBrIGBMgb47u7O8j4coAvTrPh67YnDVm6+F7IMzAAUUEBsHa0oa22Cs2NTVI+1s+FrrN2EHOoUz7F09DSitYuJ0KjYvoaRX3yOkdInQwebhVsGLnOjQy9zOsKxWcJc1s3t3HzsUNjTmhUBOITouU+QrnAQOHm6O4bOoZMw3nDM8y87eavdxicb2AgIhITERTOr9eRd+9LH2aO7sKQZwp06+8+MTyUOh1cfqPPdyvUGcjwigzCZ9JT9hdXl0Mdf01tLRoamzFq3ATq7JPR1UFnxRWlqK4ok7P1SnJVVZWorKhERUU5bdO67qqqq8nVyGWaepLh9PFHRmY2DZ7LceXVV2JIcpLk5l5sqhzptX0RFhGF4RnDEGSlQbmxBnWkSw+NRTxIuQ1UA+KEvakV7773IU4UFpMxlIVLL7kIaakRmrlirgJ9vbutCXXlp1Ccn4eiE8dRlH8Sp/ILUHjyFLkinKLlKVrm55eisKQRNU2UxlDIVRit/jTr1xedDXXYsecAducexcjRY/Hl229DYkyAmCEyoytVziskoKsThw4fQXBEOHLGjUN3Tzcqy0pRxw83cnyKK3qz4/x4SWdA/sFBiI6LQWCgFWQ3CLV1TaSbD+bPn4fFC2YjLTkODXVVaGmql5eP7t1/oFd3FubgDyW2kVHkh8S4OFikodLA39mJCtqnnaSLj5+f1L+RtYYdUemZWLZ4LmZMykZu7n6sfesdFBRXYeYsyjfRqsWln7pTJaiiOrQ12eS1ALp3X9hTnBHqJMPPH9HREYiO5Kc27Whuosono44/kNtqa4OVOpJo6uBC+a5EZ4+8r6mwqAqNLfyNORIhSnvmpmdEZQ0kwzKEXHtLM9UDf97aFar/mJBLjpCP2lbV1ME3MARxScnUuca73jvGrnelH04X7g1PXQZCj6udDrlKM6CIMxGvUHxq6G3+/Tdy8j/Tw1HwTGTe5nVvQtmPO3V2Zr1MzlsyoZ8AFnVhM1Bl9FvajwevKhgeMpXnh3nLLsF/Hl+BDzZuxrZdu7Fz927s3btXu0RGyz17NMeXzvbv209unzgO30d+fGe/Fm83du3eif17d+GF55/ETdctQXyUv1s7cCE3rPsgICISIzLTERsThNbWOpRVlKCLRmMekGWA4xW3hDpSBg6kMnR141jBKfznv88iLDYWd/3i58gaGgt+nSEnZfuLY8qGWOt+OH7iJJ7734u47/cP4N77fo/f3/8A7r//ftz/e1r//X2477778Pv77sVvf/NL/Oeff8f2zevJyNDeo6RBEvnN374slGUGYN+BPLzw8ssYN2UCrr72akwYP1ye7DLUl3Fa8reiu8OBA4eOYUhaJq6+7iZMmjgRDZWlKD1ZIrNSdkNnt51HZQ0KJqMzE+ERoaitqRXfPYcO4a//fgQ//sWdePGVlYiOicA3vnorsocPRVRYAEKCefrGmPEhyIA6QQZgd1cXMoezjjzXIu9qhpXW/ajife12KRW3EHbabJg2wxY/dATmLLuGDCoyDPwciPXvgLOrVS77cR49ncDD/3wMf7z/T9i5Yyf4q/8sS/aF7gQuGwfwUhxvkBZUxrTUZORkpZEB48DJ48dJV5CBXiuGePao4cjJzkBkeAA6Guvw9z/9Hx7885+wn9qofJmasPv68KvAdIwVWtJ/NzWIdqcFtS02NLe0SfkMNbQfHTYWdZ0aautRWFiEIalDMTwrEzGh3Iq0uuEYnzykqxSTzCLR2UfaWx/bUKH4rCN9icl5Y6Cw02GkO9v0Zs5Sj4/1kfxPD/3UJN8f0sKP5L8JS0gM5i1ZjriYAL4fuHdscCXlFepALX7wobNzvnHZ3+ovH761WmmAlKU/rHLZgpwrnJfatuYojp7On9IFWH0RSPlZSbyRFS+lk9Y9jI6b73cJoNW9u7ahvacbkYnJGDF+DEJotOHLMPz+nF59GfIwHuNiGXQmv3ndejz69LPIGD0el1x+BaZOHiVPBvGAxUkNY0DGOH36LjAgAAkJScjJGY2JkyZj0qRJmEiGCb9eYeLECbQ9kfwnYvLkSZgwYRwyR6QjMiKMjADWm2GThSSLUH988NZqrNuwBUGhYaTDZZgweaLUOcfWS6oVQ5I7UVtSgn899l8MzRyNRcsuRWxkJPZs24yujjZMmz5J05kScBkETW1KT0YD1Xl7Rwfq6mowfPgwRERHIzVjGCZOnooFCxdiyZJFGD82B/5kphQUFpAp44vJM2cgjITxPmiorcXhvONISR2G6dPGUT1zGag0LS04caoaJRWNGJY2DAtmjpVsNR3Y5CHndJDRexAvvf4uIqPj4OjsRGVxARKHJCA+NROxIdSWKI8dH26D0+7AxGmTkZIx1FUPvOcYfTdo8LrZgyIGUOMZGhcuL7M8cqwQp4rJIKquR2p6Oq685irMnTkJocGB8Otpw8YPNyI0JAKzZs1FYhJ/JFgTSbaf6OIjs3N0XMjj9YEoP1WFl197D9kTxmPK7Jny7idDP2lahipcWZIGyN22HS+9tRZpoyZR/S5GTnqcROE0FwakKx37zsYGPMdvtI5K1t9orT+Sby6XCS9eCoXidJztgcPpzO4suXD6nc8Cxo7wskN46DBcv2eY7C+OfsSJr1eMIO/7nncr99YWhEeFY+6cqQikgXD/gX1yWcgltk9iDiEN+UWD7a3Yv3kTdu/aJZ+huPbGG7Bg9iSRXFVRi6LiCtQ2tEoqT8KjYjBy9BjMmDMHM+fOoeUs3c3ETFoabs682Zg8ZQJSUhIRwJaeVA5LoBUeQZvrcWTXDuzZdwBBwWG4/MqrMHPGRLluXVXXiUN5FWho6pExX7sLiMrc0iq6tdm6xLAYO34kFsyfA19nJ/IO7cPJwlKJyQ9+dXQ6cXjfEVSVVomRwZ+i4Seu0tKGku3biGIyruLJuJs5az4ZRIux5KKLxMiLTRiC7q5OtDU3oaezXd4/yKpXVdci70Q+cqjs48eP0wwevhGRKjooOByZGRnwlfu7tMfVOY0GF4B02bUXW3bsg29INK67/kZctHA22mqL8eoLT2Pn9i3guTTWnVUNCY1AbHwSikoqcPBEAY4VFMvsH++fro4eyqNVu2WH0PIxDnXKKzAQyUNTEBMXJ0/O5eUdg621Td5OOyYnk9oK7ws2dCwi02ZrQ2HhSaxZtx3bck+gsKZF9NBsLVrjDZZLhncLNbBOsrhjhyQhITFBmpgRTYunI56kU2cH7a8ylJSWYsKkCcgYMUyCpe7cEnzCUGFdN44KxpIwrSoUik83Rk+p+Ki4OkYeJLgz56GIHK3zJm8ZXbwsjQ0D3nYFmJ2OLs7w5ssXvPOMbHnmx7ztWrP4YvaMqQgPDULekcNoburWL9QQHMVwgp5Be4t8smHFisdRXHwKX7n9VqQm0QDaBeTlV+DVNz/Ahs27UFpWpSUjpMiyoi8ZXmcnutOKse3puDC8dLVG3u7BsWNH8OhjD8PWzjM80zBxwngyZIBjpAM/cvnSK6+joLhYT8GZAOXlVTh+4pR8627E8GEyK5YyNBbTp0+A1d+JNe+8hbrKeolbVFKGp194CbsP5KK9gwpHhQgkg2HE8OHIGJaOMjKKKiu019c7+c3SLiujh/Lzo/G8W+6d8e3pRFePU77LVlxaQobTBOSMTJciafjCSkbdiIw0+HY2orGiELY2p+t+IL6e56hrxsqXXse+g3n4wo234vqbbsLlly9H1vBkbN9E9b32HRScrCADxYFiyqfB1g4fazA+3LgTL7zwKjZs2EBVxrNN/BqBImzZtBmVlbUyB8X7W8vKyNCCrXsPYd+REwgICUXasKEIDrbK6/rfX/Um1q/biJMFJahrd+IUycg9moc1H6zBA//3AB5+9FHs3rNHr22CG55YRxa0NzaisqEWloggJKWSURTnp92oTdlKE+MfUYF/aIPvZapsQHl1A9mj/rTPspAQH9jbPi8wjNpTKBSfXZRRdM7gLpMcWwdygzANoPyOGj7DpP6fr7AxPJi4BggDw2AQq4YC+NKVOB44yM8Ik3DN8VjE3oKxInFdvhp+Fowck4OkhFjU19XJe3vaOrzseJHLaS04dfIE7r33d3jhpRfx0KOP4+JlSzBpbA5yskZi3vwl+Nnd96GqrgWp6Rm9OjAeWbvKKLL5xzOCDheG4WCJ64+iI4dosH8ej694Cg/84QHceNONyM4ehVEjR2PG9Fn49W9+h8DQcLmZXBDdgaPH8rF9515MmTodw4dpsw7MVVddgonjR5FxsQYP/+Mh/OSnvxbZU+fMx+gJkxAUwq/F1oiNjsb48ePJCJuAuJhY8eNLktplSc7HD3EJKbjp5i/ie3fcgaggf7mkmJk5HEuWLkVsfIzE6i0ttYHAENInFeNHpiKGLLW66gqZ8WFqK2rx6CNP4MmnnsWBg8cQEhGHgOAAeRdSVEQAOuw9WPncU3js3/8gYyVf3t/ET1jwiyMLiqqQlp6J5UuXwd/fB401VXj9lVfw/e98D6vefBtVtW2ShxgacqmL52BCEB6XjBIyRp5f+Srue+Be3PPbX+KBe36L+375S/zq7l/hqedW4lRtK9qdfhg7eRJuvvUWXHbFZUhNS0OPobiB7FsLyqsqUdtcjxmL52JY9nDZlZyb7F7D8QyUk001rh1fHC8oRUt7D0aNGYNhw1IQRlaUJr239s4I94pXKBSKM0LdU+SG0XP3Q597ivgzH/o9RS4ovYigrp1OkY/t24dNm3eiC0EICo5AsNVH7v1xy0U6cU9PHfZj19GF+qIS7Ni2E8Vl1UgaOlTeUehKYl5xrTOkR1AoGqtrUVZZhy4qQlpyKobEhLidkUsSNqhoxd7Zgbb2TmSPGo0J48dheFYWMjJGYFhGJkZmj8GkKdOw9KJFyBwe57LTXBMGIojgMhnbhl/vSv/oUXo6bLCTPglJKZg4eZrokpaajuGkR9bIkZg+czqWLVuK1KGJcmlQbEn666F6CguLwIzZs+USkb/cjW1HUHgEIsNCERAUgmQqf0RkpAzwM2fPQlJipPYYKTvS29dikfu8AgICZN2oF0HK5QtfPz+EhoUhIiKC9gPn7wOrvxXBwSGwyCUzLYkk4zQkh19EaSXDpLOrk4yVOgzPHC3tgT+E2N7WIm/bnj1/EWbNnUe6Uv4WX8THxWBUdiamT5+GMaNyEBMdhS3btuJEQSHau3swYmQOZlFdDB8aI7n5kK6N9U1obm5FMpUvKSWFjLxwaooO2kcOOFobcJQMzp17DsjTjPypk8m0P6dPnYbRVMdREZE4eOQIuux2TJwyBUeOHMTkCeOxeNFCeZGk09cfKSmpyEpLMhnWmrG4Y9suHC04hQVLlmE8GeJh/AVnox0YGO+wYiO2owdPPP0cCsursOCipZgyfToiArTIFiNRn4NlkJxNmn4hXfn1DvKV/LcQHK3uKVIoPqt8rB+EvaA5bS1QhO52oKwIl8kHYTNx1wN/R05WmPaNJ7eekTp9R5dYCk8/+BBeeuNd3HTbN7GIzuaHJIW7jBHuTyWFkbe5FzX7kbi2ykrs370bD694FqHxKfi/B/+MsCBtOBI89ed07Mdn5b5+KDl2FKve/gBrPtiKr93xLVx+2XzwU+dyJq87uWmWHcUfDHwxycjfrLrgqc8ZQYnFwjo9nA1PtMm33Ej13goxITMk5PjbYgPC8VgQORYsKngWRNfL7K179Y9LGBxtbVi/YSO27NyLa2/6IrJGpMn3zAZHBw6QMfPXhx4mw2gP0oZn449/eQiTcxL0cI3Olg6cPHES9a0tSOInutKTyVebnak4cZAMkf/h8PFCLL/kStx2+5ckDcOfWntv9Rr84c9/hF+AP777/e9h/QdrsWj+fFy05CLc98e/IyYxHQsWLsLEnES9qqnOyDirrqrGO++tlW/x3f6NOxAT5ud1V2hzVuS6ulBWXo9vfvenCI2MwW/v/R2GDE0Av0Cb07nS9lZdX/rZNYPCM+2AkL497egpyMfyG/mDsFO8fxDWlP9AaisUigsX7/2WYkC0zo7PynluwgvSSfKPBUmx0RiZkY6sYemI178dwWncKp49PAWZtrsaG+TTDPwpCnu3ncYTp1x6cfXrvGJ2brI002vo8EzMmDieznYrUX3qJBqanTI8sWHDpoAk5ctDgzSIGMOoY6dlzZJ0PMszWESgR2IWbmCUUXc84aB93JbgSjXCGFnnSBRgMoiM4F7Yx0HGlVETOn0jDh5Oa07Pejgc8A0JweSpU7F82VLs27kduQdytWBvmblk8LPw7bTvylBTXYzM7HTMXTgbGRlpyDt8ECVV/G1qah66iDIyoI/k5SE1JRnDhrJBxPCe9kFzQx22bd1CcurIlnHPk7+lt3bDemQMH4b5c2fA2dWC6PAgRJD13dPVgbLiUgT6BSI5IbF399rtqKyqxZvvrkNEdDxuvPFGRPVrEBH6u4k6mhux/9BhRA9Nx/gZs5CaloBQ2kW8l9z2vkdTcCGqu+vvrQoHDefj6dwg4XKJ1uw88OKlUCg+XajLZwZ9OkFPKILp8pkfXz5bfDHiYq2my2cUx9UxUudPm3u2bsb6Tdvg6x+AzTt2Y8+hY2jocCAmKhbB/A2FgdB1stCAHuhnQWRIELbs2ItuHysuvnI5Aihf1+BjGAQMpzPW5YYO2vC1IMTqT3ZVN8qqq9De3Y3x+n0fHJWT87qepcD+rm3D3jFHMHDl24+ReCZ4E8B+Rh6GUuJHSmnXzTRvQ0ejUiQe/2jInKgWXb8ixj8SiYNlXSuBHkm8jRWXhztevAS36LRi6EHLwKBg+XacLxlrYeFhCA0NgYX2r9faE535x4KG2ips3LqD7LsAZGZlI31oGla//Q6aGmoxlNZDQoLlMXs/ix+iIiOROCQR/txIGL7HjcXT/ufv13Z02bFvfy5WrnwNz//vFWzdtgvl5aUICgzAsmUXISM9HSdOHBdZOSNzEBAYiKf++yzJsCAtLRVDEqKlSF3tNjQ0tSAiMop0ykJycrx2KVXL1R29/tlAzT92DCue+R/GjOfH8JfIKwLMu+20SCSPmINKqOMZd8C0pLijG3b5Sj5fPhuCOQv58pm/dvnMjC7nTFRRKBQXDkY/pGC4JxuwNzMieIto3qZ1vhfC0Ym6xkbUNTWgy95FZ+9HsH7jBuzZtw9tbS2w0+hUVViAisJClBQUougku1PkinEqn1xhOeoa2mmU80dQYiKdVafQWXuoW+48zrg23DxN6C8wioiPwxXXXY3A4AAcOZSL2ga+pKJ9ysEb8kkDfd0lux84uE8Ur56ngTM0nBmWw35uMvXmq8cXbY0wj/TGphHMA7r2tWcDXmd5Zr8B4GiDjOrCMIwom7CoMIwZNw5DkobAYXeQKD1ML4s7PPLyNEoYYuNTkJ2Zg5lTp2H2zGlIjIske6cTHbYWEqslDIsMRXpmutys3StLm9eLTUrFtdffhEsuvRQJ8bHIzz+OvLzDKDpVQAaVD+bMnoWFCxZiHL+BPSkFY8ZMQHxiEjVBK6ZPm4KUlFjS1+YqO4tnY2zylPFkmCW4bHAxQD1h444MovqKShw8ki8fP54+aTwmZqf0LfJg4LzM7mw5XVoJFxPaBW99lCwVCsWFibqnyA2jKqi781Yr3Z1A2SlcesM3ERifhbvv/zudRQcjSO4pIkzJ5cvytgY8+NC/sH1PLv7w1wdxsrgCe4/k8aeFcfMVl6C9qgwfrn4LnQ4nuiktv+eY333MA2S33QlLUAimzJxNg0YmwsKsQEMN7rrzHlR3+uNPD/8V4cHaUMfIRADnazgzrJf48Yoda1a/j2N5BUhPz8TcBXMQGRUsE0GeFrJTn4nxOoNh4K2emAGS9KE/GYPFnJfIoh/dAPmoog08i8NyT1dEVxxDiT566hiRxI82jHjsRYenD1sa5vinw5DHK2zY0qrIEFiovqRwJxnMxr3MRgyvUKA8JKnH1QwwEaR7eqQ2gsVbn9ETfPDKytdw+MhRzJwxA1OmTEEUX1bmBshRPMQwLjGfBJI5Kdfdhs5TJ3DxDd9C/PAp+MU9f8LI4SEI5Bde6dUgfGKKKhSKc4GaKerD6Xo1LdzcDwqeHmSlNDY1wuLnS2fciYiOjEJbWxvaWmyIjY6Dn68fMjKzcONNN+GWW27BLbfeii+K+6Isb7v9dtx0800YM3Y0QkKp5+W7YPm+FzJq7A5ylB+PIwYDGkSGEyyYOXMGRo4cju3bN+DEiWPyRJq3hiCPoZ+2PnTM+Q8yiQvPtP25wSBxeyObk5+N+ygMmL5PJt5ju9W/OY03xxhLk0effcj1I/dZUQgt5HIXRxnIERyPjXCtrZgCTfXthps3bVAbzt23DzU1NUhJThGDKDJKu89OhHJ8z+OI6Ef6ucFLfv3Bb4BnJ+9d4qXu7+K8KqpQKD4O+hzXitPBPZ/W+3ntTw1PMopq62vgY/FBYmKCPN5dXlaO+rp6DE1JQ2BgEDrbO9DQ2EiuCQ0NtCRX39BArp5cHW03oJ3iyAdPOUv5FhjPHDjlcXw3+uuQJZ22qt1H7EQYGWhjx47CqJwR8oLEffsPoLWLxixzgbwWzgv95Xs+4Ly8uc8MXgpjeA2mnP3Fcfm7GqfJfRRY8ECKkXyJ4iuvWCg8eRKHDx1GfFw8Zs2aJTNEbJS5qTOQuPOFOX9Px+jrfPi5HHnJrV4KheIzhTKK+mMwnbNnHHMnSRZIVU21eMXFx8FisaC6sgr1tfWICA2D1R8oLi7B2rXrsOb9tXhvzRq8+957eE/cu3hn9TsUtgaFBSfRwd/m4EesujvRbe+G3dHDD/24I4OPtuoVDuPLHPKxWKe85+jmW65HZ2c78o4dIwOshR9uc2ewnf5A+SouILztKN7Jnu7cU1dXh4KCQjLwnfJizOxRI/QQgrIUg/0Ch48cMYbYnb+qUigUnyDKKHLjdKM799x8U6zhnP2eLdodvjh5qhy2TjtiYhPkZtqmxnr5fMa+ndvQ3NiGzNEjccMtt+DmL2qXzG790q340pe+RO42fPn22/HFm2/CpHGjERoWCBKEguIKnCwuJmOqAOVF5ejmFw0NBl1H+XA/w8YR4WPxx+VXXIG5s2eBP7/uVnrp+bVVxRngrT0Mti494w023UC4yfgYR3HJt1f5gIBApKamYdny5UhNS9V9dSiazBgZsJofo6qCUU9mZ4bKYidPdtrRb9zWrlAoPksoo2jQGD21YQyRgeSgLtLceRqnkgQ/Nj1hykwsvugSTJg0hTp9H1x+6aX4zre+jgljcxDEd2hS2qCYaITGRCGSXHRMJC0jEBETLpcWoqNC9BdDEn5WRCYOxZe/8U18+46vIzEmGFbDyDkTXPrSiq8/4uPjkZqchOiIEP4iiMIDY68PagA0Ig0q8ueLkNAwJPPbtRPi4M+vouivYs3bH0c98vFgHBOcn3beo60bYfoNV2IQkfXG7/MSR75ufBz6KhSK84p6+mwg3GqGespumzx9duWN34I1bgTuuu9vGD0qClZ+AsWE0Z+6wW9b5JfImOHO14hoLPvbG30E6hiZeUvnmcarYn0ZZLTPBbyLGK4P9zrxUkvmfXBBVqC3RuKNc6y8Z1WZ1TDW+8vyfNajWS9e5xMdw4+nrsx597SjvSBfnj5LGDEFd937Z2QN89eePDWXxyzvfOquUCjOC2qmaNBwL8dDpB2+Pnb4sfOlc0dTh8jmJW+y41t+tOfFdLiTNcc1DCLDGfTXkRqCTTIEjs9+ZlmG84T93NJ7CtNwS+o9ymcbLrNe7v6rs6/P55qB2om5qrzF+ySr0qUPH5C0wY/fe7thyMcPdksAuqnL7CLXw5fTPPU2b6vmoVB8KlFG0aDhDpOcr4MMmi50drSgpbEWDXVtaG1sl49w1tfbUFXbhbpGh3yJnp/mcnWtRifJHixqoE6TwwbbqRoZuDI6E/omcvP5SLI/pXiUVY1tg+CjtBOjgj+pimadZbKcHL/sq6sDXQ31aKurQXNdPR3fTWijY7uDXHVjG2w9Tth9LXCQ02/NIyhtfzcXKhSKTxXq8tlAuNUMdZh2G5ylJ3HpdV9GflkTFl1yDeLiIuHPrxHidwfBj4whO9KHDcOcuXOQlTkMfI+04FnLgxkE+tsz5rTmOGc0sHBCdppd7FXMWcv+FPNRyvypqC+zkv1xhsqfabkHiu+p3vmuR8mPftio6exAVUkJXn/jdVRW18HHPwA9dHz40xmMr9OBpvoG/PvplzF32TX43QN/Rk5GEMLkdfDGtC9zvhVWKBTnE2UUnQ6jdrivs3egtawIX/v2j/Dm6nXo8bHCx1d7FkVeq+jwgZ3iTJ0+Hz/92U+xZPFiREXoVhHLOZv+0tveMcsx63fGDEKps9X708zZ1ql5X30e6+xclvkTaHcOWyt27dqNr33tazicfxKBfv50VPvSH3/Sgx3Q1uPATbfegZ/f/StkDYtHkNxP+Hk8SBSKzybKKBoMRp9HVeXs6kTBqWLUNza57iFy/dLCbncgPCIcyUOGICIyAhbXJ9x7McQNCk20O+bEHsK8Rfdk0HkrdMy1OkDtDTKa4gKFjl1baytOniyArd0GX9/exzGd+uUx/ixKbHwikoakICjAor1KwNjvap8rFJ96lFE0WLiWzqbTO9t0Zk63h0zyB7MzVd99njBXvqrkTwcfdZ+pfa5QfKZQRtGngdPtIWUUXTjwDlAV/Omkv4NH7U+F4nODevpMoTiXqAH00wvvO29OoVB8blBGkUKhUCgUCgWhjCKFQqFQKBQKQhlFCoVCoVAoFIS60fpsMNfY+bznYKA9w/kOQo+PS9WzxlDQm3IXvPI6A5VB8enB3N4YtT8/26j9/ennPOxDZRSdCf3V1DnYEYZol6iB9ooRaZANoo9sT7zlZY5sDu9XyFkwkNzT6cQMJs5g8SaLOZ28M60bI/5g9eT4Z1smT/rL+2zL/knTn97Mmer+aa2Dzzqe++Vc7o/zKfts+Kht8HyUxyzzQjsWPmp99cNn9vIZ11dfx78XJoaOwnlQ84zbSX86nJVuWukGrH9X0JlkoMntdb2L843XsojXAAoMUjdXtEHGHxRnI8uUhlcNd0EgigygzSelqFFJZ5y/twRmYWcssC/nQIRXRD2znn0z6uuj0Z+/4C1Q9xsw3QC40p02Y915i8dl9eZ/vjDlxataT6r9fVQMKYZz46OLHzTnOit3eWcm/bMxU+RZAi8WgBFl0MZBfwn6q62PaJ32yc7s4S1Pc34c/lHy769Mp+MjlrlPvp5l8obXPI3IZ6DQ6co8WFEDlcGMl3jsNWA25jRnULQzYpD1YEQbtL7M+dKZceV1BpU0UHB/9dBfmtOVlcMHk9+AKg8q0uA40/KdCedQzT6Y9T7X8j3rRJfP3mec1UetA09dDDzkeYvmFsUcwZsuffRkj36U9sysn2iDY4B8PPHMlxmoLGY+ko4an16jaLBamyrJnGTAuvOUfV53iCHIWLIQD0HnLK/T4C0fA87PM7w/HczxTqfnQHFPp48bHPl0memckdxB0J88luUtTM/Dq8aD0M2Icjaq9mGg/BivuhqJDF9y/ck5J0p64JaXg/LQ9XCeZuK7P13ORndvaczxPcP7CxswDyMiRRooHtOfTG96mjmdXIZlDKinvmRM8Uza943jqVd/8t2EmBhIXn+y+sMjD948UxEfKX/GnN6MSVZ/URhXNM9IZl28hrGnHmmgDBizrEFhCDSWhoABBA2kwxnnfzYA/x9ZbXQfk3FbNAAAAABJRU5ErkJggg==;" vertex="1" parent="1">
          <mxGeometry x="220" y="-730" width="120" height="23.96" as="geometry" />
        </mxCell>
        <mxCell id="ViJQnv-lOq2HxlMQcMpX-10" value="" style="shape=image;verticalLabelPosition=bottom;labelBackgroundColor=default;verticalAlign=top;aspect=fixed;imageAspect=0;image=data:image/png,iVBORw0KGgoAAAANSUhEUgAAAu8AAACICAYAAABX7QWaAAAAAXNSR0IArs4c6QAAAARnQU1BAACxjwv8YQUAAAAJcEhZcwAAEnQAABJ0Ad5mH3gAADsPSURBVHhe7d0PfI1l/wfwz6KSztQRsT2mZaaFEjMhyRQRIcUo+RM9+JX8exjJeAqViWdU9GTUUPNnSy01ZckqI5tnyrCxsY2NDTM7Y/bnfH/3OefeHLM/Z3/PTn3er9fhnOucnXPf51z3dX/v676u720nChARERERUZ13i/o/ERERERHVcQzeiYiIiIhsBIN3IiIiIiIbweCdiIiIiMhGMHgnIiIiIrIRDN6JiIiIiGwEg3eyLsnEkS0LMbzLYxj4gida2z+DheFnUdP5S0X3BzZMfhz29iPgf+B3bJkzBK3t7GDfZS5CU/PUVxEREf11iO4wtvi8iC5dnsELnm1g33sJwtPz1WfJVjB4JyvSIW6jN57fdC/m/RSOb7/8FEunPArXe+5Qn68pemQnXUWbZ55EM104Vn/wIzDyE0RHLEaTA78iKvGK+joiIqK/iJwj2DhlMjY1nYmf9u/Al/5LMeXR+3HPHXbqC8hW8CJNZDWSEozx7Rfhri+/w/Knm6N2m498pAa/DsfncxGY9Am8nOrj2r534dbtd3jHfIFJbRuqryMiIrJ1eUgJnor2r2vw5eF38XTjemo52SL2vJOVFOD8wZ+xFb3Rz6NpLQfuBteQdjoRcGmL1g63Ko/zkZZ4Aqe0rXF/89tNLyEiIvpLSMfBH3YDw5+EBwN3m8fgnazkKpKO/Qld4+Zo0sgaDUkmko+cAh5rBcf6hsdXcObEcaBdazjdxYaNiIj+QvJTcWzXMTRu0QSN1CKyXQzeyboKcpFXYIWRWwXpSPj9NJzbOKKx4bFkIPHP09C634/mjN2JiOgvqOBaHgrU+2S7GLyTlTSEa6ducDj1M77/LRX5chknd3+OD4LjUCu5XjLPIuFUEzzaujluMzzOPYsT+0+h8T9uQdqRlNpZBiIiotpQ/z50et4dp3b8iN/SrkF08di9bjWC45igwRYxeCcruQWNev4fNvjUx/In/4FbG/XH23844Lm+LjCMQK9pBWdPIiqjBR66T2sab38tF9caaHDu+/04o72nVpaBiIiodtyDntPehU+DT/FkswZo1Ps9/PGPPujryuQMtojZZoiIiIiIbAR73omIiIiIbASDdyIiIiIiG8HgnYiIiIjIRjB4JyIiIiKyEQzeiYiIiIhsBIN3ql5yEZHLhsDezg52NXXr/gGirpSWJKkAlyP/g772Jfxdtd36Y1lUpvp5RBVRAF3CTqxZEYqTeRVJ9FWAjKgv8MGmA0jPZ4IwIjKRy/uxrG/LEvZT1XVrjO7LDoDZ4OsWpoqkamdoTD54YRhm/ZhsKtC+BL8tU/CYtr7pcYXkIjM1CaeORSB4jT92xOuUsl5YFPEV5nW92/SS4gwHEB+8As9ZX8PwasAVXn4r8a/HmppyuleIIC/zLBJPHUVE8Dr47TimlGnQftEP2D+vG5ghlywnyIn7Ev9afxfefOcZONavaG1UAv9D/pi9vQ3+7dMLTStemYnoL8fQYbUKL3hOx4+mHR60Xn7Y8q/HoK1MG5GXidTEkzgW8Q3W+H2DeENZ+yWI2D8HXRuy0akzDME7UfXSy9XDn8ggjRKtGCIWaMXD52e5qFefriR91nEJ9X1JXKERt/l7JFMtL9HVQ7J6kLP6+crN4x0Jv5ivPllJ+kyJD/UVL1eNwG2hhGcWqE8QlU+fuU98+02VoDO5akllXJJIZRuYHJKkbGVERAZZcni1l2gK93fwFJ/wtCq2EfmSFR8qvl4dlPfrIfPDz6vlVBdw2AzVADs0aPcilvqNhtb4OAMH3l6IpbtTjS1LZdlpWuPpmR9i68r+OL02FJGX9eozJWjwEMYuXQAv0wIAB5Zj5tLdSK/SAjRCq6enY+3W9zHodAi+jbyoPmFbRPcHNkx+HPb2I+B/IArbFzyP1obTo21mICTuCHb6vYouhmFHbSZhQ5zalUNVdAXHt63EyocH4SlHs+v35p9D1OaleGNwZ9jbOaLzwFew+Kez6pMlaYSH+jyKQ7PW4dey6j8R/Y1o0G7sfPh5uaqPd+NtZV+5Oz1ffVwZ9aBp9TRmrvXHykGnsfbbQ7isPkPWVw3BewEyInzRu3CMcZtRWBZ+BlWpMvRXoMEDL8+D38jCxuRnvPeaH35Iq2LNsLsbHcbPwgLnXQiJSCvjYEA5gHhgOBb7jbt+APGeD979IaVKBxDGBq3DS/BZ0BQbQqJwsaw3k0zEbffFzHWHam+8YO5hrHt9ATYfySxlPfXITrqKNs88iWa6cKz+IBS5Qz9GdMRiOB//DDNnfI7TD8/Bzih/DDq+C7sOZ6h/V4ZS1zMfuvNnkZqaqtzO4ryuLrQKVlqm3DiE+h9A906tYK8WGZYlLfRd9BkRiFte3Y6MvMP4YlJb5F4pa5nscFvrR/BktqUHjwXQxX2NJTM/x6FS54nYEkHukQC8PmcLjugK1LISlLsd0N+DHjnJv2LD4ikY3NlRiVHs0dpzDOas+REJZdWfukB0SI76CcHrlsF7zHRsiMtRnyhFg7Z4efECjDTrsHrt3V1Iq+IGYKfphPE+r8N5QygiLtbx76xGCPIvHUPoslF4xPununMAo/bAV1G6hM12V6qIm4wLSuTpXFLpJS8xSCYZhpkYtgBoxHVSkCTmVbWG5MqZoMniNClEzpX3VnkJEjTJUDeN+3CB61QJSryqPll5+jNBMs5pqoScy1NLislLlrDFE2SS/yHJquUNQp91SPzHvSQ+u5Kl5KXLk5Sgicr3MU4CkwxDOPSSE7FYnDFM/GNN301BrL/0RTeZH37B+LhUJa2n/pLEhiyXSZ6uxu9c495TeroY6oCreE5aKaHxmbXfRlTLMuVLVsJu8Z89WFxcfCWy+JeblyYxO/3lrWEeojHU9bEbJfaq6V31SYHihV7iG5llfGySJZG+vZRlcBJP7y8lMiX7xmXIS5fYQ0k31x/9cQkY7Cwd/aKVJSpLjqSELZWRkz6Xw1lVHDJWpyi/w+HPZNzgRbIrJUctu1n52wH9tZnqyVhXrbiOXim7YhIlJSVRYnatlNGGsrGf1e3tQp8pCaFLZIBx+On1trlsVyUxaKq4Fu7v4C6TghKqXv/1iRI0rqdMCjld+2231SjxS1aiHAjylbEeDsbv02F2WNnDdWtR9QTv+gQJHOmirNwA8Ys23zkR1VBjYrGaOoAogz5V9iwYIn1990mmlVo64/jqvkNl8d70EhpbnUT79RMUBaC5khQ4TqCdKaEXDDuzAskMmysOeEkCEkoPjkpbT1Pgr3zXrlNkc7zO9Pn6bEmJ+ETZkSq/g+tkCYzPNr62tlR9mfSSHf2pTB47VNwN7zM6SFLUZ4xBcsRnMnvYSzLbf7ckZOWJLnyBOLm+KWHqPIu8SF9xuSl4L5CsA8vFs3BuiKa7jP3PTolXA4r8mNXSw+w9rkuSoNEuopkYImlqyc3yJG3PYunTd4UcyKzDAUql5UvmgRXSt89S2VvGXJayt4O6JkfiA0aJUx0KEGxaboz4Kwe50LyoBL7m23a2xPq/qBxgO8tg/xil9avDCo6Kf19D4Ghp8K6ooQ6rvxX9BYneOEcG9Rosr872Udp2w7j/v2Lwnr1XFrVXdoDaMnoi6e9Lf0ZCp3e73phox0nAidoM3vLkXKi3uBV+PlxlZEBsDTXa6sGK21sSZgyErSVfLoS9JW5usyTkTPEA/IyETHQzC0AvScSiHoIeqyXGuMhXlZ3bMIHTAgnXlRbylLGeeSkS+e038lPspWIB03kJn698jnIA1X7RXmUXWouqa5lSgmS0WSOuz/pTAqcNk5GLQyTWrBdPn3VSDp283pufH+0nHW8K3g0Mgb+/TO3lpNZNrXT3+59cU58tmSl4v/EAwlzhAWsP8Q47ZwNBayXpz0mYdw9xmxYiZ0o9GC9rO6hjjL2bbnUqQLBderkWvVK6K9uUtoQztIUH85rB/hKbW4e3kMoE7wr9ue9lulthh5XyHYzcKCfq8nrWOXmiy8pR2051f6h8j3Vp26yWCauiu4DTZ3TAgy5wurueWkqksnNE37lvY46HOhgvYz2mztuC2BzD9lAb6uPevlPx0Zxe6uPj+HLqYmyIrf7JmHLxN3w8LxjOU73weGNrbgv10LjrIIzXbsSslb/eODa/IB0Jv5+GcxtHNDY8lgwk/nkamnYt0NS4yDqcjk0AOrmgRSmpwcpcz/oOcB/wLDzb3FUsNeedaObsoPyvw6mYJJyvrZ/foJqWqSDtNP6EFi733wOJC8bcUR8ibfh/EPDmQLTRXP8e7DTOeNi5UdFn1XNshS6aa7h8JVctKXQ7HLq+ghXfRyBizQS4IgN7oxJwLvVHLOh9PzqtPITSRpk63dcUjdT7N5B0hH/8AdY4j8Lox83To15B6pGDiIqKMrsdwslLhjH2+bh08tD18oMncalGfp8C6E7+jIDiY5BXbUVoaDA2rHkX3pOGY+DKqPLnTdk1RddhQ6D9z7tYGZ5ujFJuVsZ2UKcU4HJUMNZsNaSiparLw9lj0fgDDvDwaI0mxZqxW5o74xFls9eF/4G4jL/eOG67e5/C3I9mwEN9nPHlvzFvwxGUM2qeitTHnZrbi+0r6pZqCN4Feakn8UcGoLnvXmhvrcurS9Zi19QTsz8wa0w2/xuzP/uz9hoTOwd4zl4In6IDiABMnf0FYqr1AOIKjm9fh4+OdcLQnq1gllNEIchP3YNVk59G69bDsWzfebNgQ4/L+z7CK2PGY+63iaUEIZXQ8AF4Dm2PYx99hh0nr6mFisyzSDjVBI+2bo7bDI8LLiA58jxc2zqZgnn9eZyKToFDywLE7zmMjJsWqKz1tMytd92JBur9uqL8ZSrAxeQTyqFfSzyYtQPTZx9Fn9V+mNLNUWnqy3FPa3Tpfh5/nLpo9vsmY/ucdxESdxEFDe7FAx3c0ALOGPLUQ2jW8EH06u+KO28r4QDw2hkcDb8DA7q0KuE6A0p7fPxbrPzoKHoMfQwP3NAeK++V+h1m9eqMzp3V27ObEKc3vSY35jM8ayx/FR9GZ5W/ThWWj/Tw9zHoYU+MeetbFDz3MSIObMebbkfx/hvD0b//2wg5lo6M0wmIK36MUyI7NGz/BIZ2+AMfrdqJk6Ul3yltO6gp+RcQ8+1HmPPPwehsSOTQ2hPDx83FhpjSproVICPyE/zzxfnGPN2pS5/EXYUXyHF8Ez/VSlYhK7RP5lKDMa7zi5j/SQj2J+mq4TMu48TBQ8oh+T1oda/9zUFYg8b4x/3KviAjBWnGg1dLGCYuxuGngHcxbcxAdG7cGQPHzMSy4OgbLpwmOemI2/c9Nq2cizHjNyDmXBQ2L1EPVlv3xhifAOxLLaEeymWc3L0OPkX1RnntggD8nlGZvWR9NPV8HR/4eKqPj2Pz1HfwWUxNZA+zct35m6qW4D3nQipOQgPndi1vOsIlMqkHbY//w8e+g5WaYnAK38zywYeR5sFMzbLT9sDMj33Qx7QA0H2zCNM//B2Xq2sBjBlFvofOoS3atLgxDJSM37Fx2yk0bJSH+Phf8eMR8wYuF2eP7MH6gEPQN7yzGo/278T9Dz0MrS4MG38+qTSjJgVnTyIqowUeuk9r/CxJPYHI+Bbo0qqpIbwzbNJKy1AfqaF7kdTUCXcXX6Ay1rNs2Th3KlX5X4sHH2xx8/taRUWWKQcpCceVgOAQPp39LVrMnIwnHW5XnyvHLfej16hH8fveY2bpSm9FI/sYLH/mPtxq1xgecw+jh/8X+Hhka9x21y3Ijr+Kdi0am34TM/rEIwhvMATDujcvoa5k40hoML7WtUL3Ns2L/e3tcHhyGlb5eqnboCLnMi7p8pQ7+cjJvqqsoRYec5Zi6biHoanu3yf3ML6cuwy7DfGD9nlMmfwsunbujVGTXkZ34wuScLrFSPzn2wM4Ou2Rm9a7RLc74aFeLtBtD8HPJ0oLckreDmrGZRz6eAK6jtwDx1fW4NfLV5H+zSx0uRqNw+dKOyK5BfZuw7D4vVdhOAfkMDUIJ1JSkGK4HZyN7vY1n9HZOu2TGYcB8A14Fe2yvsfc3m3hMdwbq4L3I6myGWEkC+nJl5Q7t6NRwxJ6UOs3gEZjaLsSEHvawoA29zh2bt2PS816YNQb87B07Ti0TtqKWc8Pwqi1fyrfkoGgIOs0/rd9JSZNfQ8B/9uBgA3RgJtywDrr33jnsWsIfmcM+oz5743Zn+Qswv89Ag/3Xok451FYsS8BKb9swntjH0ezyh5F2zVFj5nvwrePk+mxbjNmTV+LyMvVe6bB6nXn70odPlMFheOBHKSv/1HhZWuoLMYJZH0Kx/dCNH1qeUKd/oIc8B18/WIWmsHie+BCtYwL1icEyGDDexaNHS+ucFtxl9lh6WqZQWG2poqNa7SEaaKkskxegZJUTUMey1/Pkukv7BJvwzjMmyaQWU+FlsmY5aWw7hb/DS2QHSV+ll6kKT9a/Dr2F79onVpQyHSRplInfRct42BZHVPK+txwATPDBO5tcuLENuOk7prcHosmDRtu5tl61HkExvIK1qnrGXucxSvwZKnbcU1sByUqnP/V119izXaGhjkQMcllbduFk8StOa629tunEhmyNoUFit+0QeKi8ZBhs/0kMDy+Ylm7isaKl7Kdlve8RfSSHblMuim/mWZkoCSaLV9RXS9WDyT7d/HtplU+1zy5R56khc42XXxw+vc3js+v5Jj360wTu/sUXTDRSfrUSCKFOlJ3asRfdsy7Oj4WjnjEuYnalS/Iif0MIxrbwc7+GSwIO20cv6hP2IDnDKeD7PtietAxXCp8jeG04pgxGDPmBXi2tofd0+sQV9Q9IshPj0bwsmkY3Lk1Og98EcM928DOrg3GBSfiauF72NmXOD5ULoZhzoPKe9q1hOf0IMRVaJiEJesRW7GhH5fD4WNYHuX9FoafNW5RJpmIWtYfdmOCYegHNBHkxW/Ci8rn2/f2RUTxsXmG02y/bMXqBdMwbsw4TPJ+F59sv/EUXqkMOWT/MB/7auHtj2ToKvIVFmPXqAteX/EWBhX2fv/4Nv7vg19LGJpRQ+wao/Prb8N3kLPpse5rzPq/j/Frlcc9Cq6cjsdBw91W90JbYrdh4bbSCg+0KOr7VCqUaZgKHFrDublxIIvFRJeCU+dLHwpQ37EVHjPciUxGWrV0uFiyniXR4ciWT/HRsSYY5OuNF9vcPOCj9lVwmTLiERWeDKc572NJjxR8F3G8Yvn7G3bEP/264KdVPyClvG30YjKOHG8Oza3XzMZ+F0B3aDP8dWPgo9TfEjvkrqTi+MFk5U5z3KstpS4ZLmC2ZK66DepwfI03vLy8sQYvY+2af6JzI4t/1AqRqzqkq/dLlZ0Lw3mA65R1Pp2E86V+Xw3g2OoB5f9TShW/cFP7X6j6t4NS1L8D9o1uBU5GI/pUdlH7bpgD0bZCZ6msofbbpxLVb4q2vb3wxoqvcTw1EFM6AQdXjYCD62BMX7kFv5y8bLbftCY7NLDXGq/boLuQDYtCi4b3o9PjrZQ7Z3Hmgho5SDJ++jwIx/EEJo/pgXurtXu6Hhp1noAVRWfbkvHjrLn44NfS5ohUVjXXHSU+OX3qglnbVxKlbUg+XHKcUubtMJLreo5/S6hBfOUVpYksdmSVFym+LhDt1FAxZYrOkTMhs8TN9VXxP6xmfLjpNXrJVY5Yh067/jgv5Qfx8XQTT++g69kc9BkSvXKieBuO8NT3MKzKzdkXClNCGZ4vJ+1daSxZjwq5IOHzuwmcF0tEzvW/1l8IlWkOynIWyx+tTwyUkZp+4ht5SS25zpTBwlkGLPpKIiIPSMT3fjLa1Vk8F/8iF8tbMPPvrSK3kvJbV1iWHPMfLdqi963tFKN6uXpsvXhpCz/fkgwf5clTc6cr71daFpBr/xO/7lqBw1wJyzTrjskMk9mG3/6GXpp8uRixUrzcHUpPCVgQJwFDnMvurSzq1ZwoQSnVkQnKgvW8SWHvj5N4+vwgKTWZptNiFV0mvSn9IzrI1NBjEunbT+C2UMLNf0eLmC45vubDXZJYVvaHtBCZqOkoY4vy5yv1IXKTLNv4u6SVtawW/97FL6fuJmMDTxTrzbegDlZEYT03fJ7ZNnC9R14jbvP33NCzVRAfIEM0Wumx+k9laUpiYX2s9u2gNGapcQ2pP32Dbs7fX6I60PNujfbJYrmS8vMSGWBss7XiPi5AYrLL+FYt7nmv2r6ntB72Unvei3qizZar8PstKVtflXveVVcPi7+X6RoXxlv3lRJ9rfxaaTGL644lbYopZaqmrLOHRoVn3dR1svhWUtavsvxVe96vnsWJP88p25Mj7r3brC/o8nmcvqiBc6vmuEs5QrocuRpjZ13CrK98Ma6dmvHB+BqgcYsmatYEO9za5hUErXhazYKRjnC/hVjV/C18+s5z17M5GK6yOWUN3uvdRH2PPhg9ugcQfgyJ1wzfserKIWxdeRFDR3VXjvxa4h/3VGJqnSXrUSEN0cy5BXAqCSlFVyu7hpM7NmKtocv9XBJSi3qBs3H0uy0IeXYshne6Sy27rl67Yfj0hyB86j0YXd07o2u/UZgwwgG7l23H7+X1JNd3x79OGFOFVux24l9wr/JMNvOrr2rgOukVDGl3p+mpWlHs6quuozFziJtp8mYNkkuncfRoBjS9OqC12ThW/dlTiFZ+e4dHnNG8qLgetB098NCFrOsTSYuza4y2L8zAmrf6oFXNdJZWgwLoYjZi6ot+yJ/hj03zn4JD/fK2mnykBk+CccKexTdPLIuydDJWZZYpC8f270Wypht6PtwKD/V5Bt2PBWL9rtPGPYLlTJccn/jak2hZ1uT+pgOxJusg1r9SOPZcqQ/uL2LmSx5oWu6yWuJOPPDMULygzt8GjuHrr/chMc98bSyogxXRqCsmrpgMw1aP1FBs2HYAScmHsN1/A34wlLm+jIVjO9+QQcdO2xYvLPTFW33vV5bGFjRAy6Hv47fITfB+4iI+m/U8Ord5GpPX/IZUS86IWlFdbJ9El4h9wavgPfwxtBm/D64LNyM84RQOrHsZbUvJhGV0SxM4P+Ko3DFkeLp28zaanwOdztDz3RCaOyzcockVpEb9iC3rVmHZYm9MGjMG497agHj16coq/H7RoCEaNqh6SFaiG66+6o5JMwei3W3V0Y6YWF53LGlT6kPbdgAWrnkNfVvdoZaVRAP3f+0uOU4p87Yb/3I3Oztgo6pcU0pLE6k/fwZHM5rhoRZa6BO2YdrLu9DtQx+MNgt4Ta9xwWOt7i3xFLAk78baj67h1QlPw6WUHZ3xPRp0xLPPdofDqSM4nlI4KSgPKaGbsLXfyzAO73RpieZ3Vnx1LVmPirkV2nubK9XuIi5lqSeFrvyB4NUXMGPRa3DWnUVahnri+MoRfBeQjAljnoBTSR9mSH/Xp5NZ4HEbGja6HcjQIdv8IKYOkmtZuJStrKfbZCyfPwAtqyUgqQDJhe6STqkl3TBt+QwMalnVU9r10NixJdTBOCUozMpUfGK3HrrTJ/AnHPDQA47qqU3VxRTEnTLUvZsnLRrZ3QP3l6Zg4tMu5WducWiMuytR/29W3nqaMwXJU55biMSR/7UwSDaoD4eha0podMu6WdogV3KZchPw21eR0DzbC52b34rbHh6IN0bmYWvALhy/IeC1ssaOaGPJj5N3AkEL38Nnec5wcTZ9byWmkyuvDlZIQ7Qa7ouwXz7H7AGX8dn4rrivZX8siWkN75XbEf3bCni1unHokp3WHS/NHI+nW5V/cO/Q/G7lkKQc1bYdlOV2NFUOtN7b/htiwz7F1M6J+GTyKEwOOFpsSFBdYuX2yZzokLQvGKu8R8Cj5TAs3y/oNCUQqce/xoo3huPx+6+nYC1dA9zzj+bK/xeQkJZ1c/CecxFnTmYA7TuibQsLJp3LRUR9OAGPdx6PNXH34LFhr2PRR/5Yv+hluKgvqdv0uKbLRHaeBm7TFmJ+acPuKqWCdafcNsXQUTECMycqB30NLNlf/D1VsRUr/NGUY6Ab0kQKrp5LwlH8A67yOxZNCoTTh2sw/8kWZhWm8DUOaOPYSHl4GQnfLsGMLafUDa0AGUcPIFTXGY8+eLex5Gbqe7jcD7dH2qMLjuHwySzTU1ei8cWyUxj1woPIP55qlsO6IixZj4pSKqZDSzRDOi4ag/cCXPxlK1Y2G4mXn++ENkhF6kXDGEFT+XJ4YdTjzSw7UFAamMSYM0CPR+B2bzlLaKUx70ZyHvtWLsCbP7XD4nWzMcDRwowd1UapW/s+xfQ398Fj8VL4DGhZDQ2ZHW5r5oQOhru/JSDlpsF6BbiUHK/UJaXRat0c1/sTcnH21AnlVzefM2KSn6IEjHAyZoUxZDqJWzcC9vYjsC4uR/n5/sCGyY8XPS5NQUYaDCMRlQ9FC011BC3lrWchpW1QDnbfqHDgXpMqu0yC3KO/YPPexnh2cBfTgbRdS/SZMBItvvbFeyHJyiuKMWxfx05XfVupqNuaoGUHQ3aJWCSklFIv5BIOrZmHCet1GPnxduz8YLypN7yEdHJl1cFKsauP+teScCBzKqKv6ZWDrhREfvsp3psyGB2amrcDhoOsTZjcxRH2/dchrtQTibnISDur/F9CcGmm+rcDC9RvjDa9x8P3k4UYrDmFsF1/IrW264PFrNM+Xaf83kn7EbzKG8M9HsHQ5fuBR6cjOCkCW95/A16Pt6pg9qM74KQE5m7Kkv8Zm4Ibz8kp2/PJGPyaqgSyA7qgzR3lv7Gk78XaBV8iXjsUM2YMR7c2TmiiqZ7w95YWD6Jne6Xmpv6hxC8VmkVjMcmIwMrp7+EnDx+s8+kPx2ptiytWd8psUyQTMRveQBf7lui/7pjyzmVR6szfeMx7FVux0tJE5isHV0lIhhbnf/HH2xENcZ9T42IBUuFrzmHX8tcxZuwrGD9tBzQOhUfVOUiOjUGGS2vc17S0jcT0HhlKYN7MwRkPO6Ug+tR55XjP0Ou+HivdXsGLHfRIjjyFZq0dTEMkKsSS9ai4evc6obPyrn8mKkc9koQfP9+P5yf1gcs99+J+TSriUi4r5Wfw8+af8ejkQehY1unBIspvcSQUn29rhMneA/BgeQcqBbHYPNQs37Olt6GbEVulep+PtB+W4ZV5Mei95N94o2sTyw5MqpGk/Yh3XnkbB3rPwYo3ukFbTQtg17Ij+vVQatnFszh/UzquHKQmnEAG7oZTUzXvsOE07L4tWL3xgPKg2EQf5XtKTzyBeDyAVo4NlNdm41ziOTi80B+POtZDdlI2nJ54FFpdJnRXS/tBDNvnWSQq9bf7gE5wrqaYpez1NDDk/d2FRRNWQuYEIah4kJx/GmEL52FTQi3k3C5SlWXKxtE9O7FX8wQGd/uHWl/robHnP+E7+U6sn/chdqSY/51y4L37fTwzdzfSajtYs3OEe79Oyp0MnD6fbSq7gVKvdq/Aq29sBQbPwcIRD8Nl0FS8N8nd9LQhndybhdc/KKsOFhuCmH8ecQePlzGxVHX5N/zn5fnYHfMTggKDEBwcbHbbgZ+iTuKS8T10SMpohid6tYDunA5XTX9dghxcSElT/u+EAe4tStmh1cx2UBJJjcC2X84o31whO9za3BkP2JtdR0AJUI5sWYRJkxZhy5FMZelulHP5SrHJj0qQcmQbFkx6HQu2HK6hA0JrtE9mUr/GlKF++N9tPTAzOBoHtryvPH4ULc0ufFYx9aB9pBcGu2mQ+s1uRBYNUVVIOn79MhB78TAG933IsvY/JxuZxtMmucit7uFPd7ig24CHlTt7sPqzn8ufzF5RygHyD+/MxrwDXbFkxavoanmWAQtVpO6U06Zkn0WGU1f00mbgnK68/cNVxG6eUnKcUuZtCjbHlt6i2AypksKB/MXTRKoTCZwWyM+x22ScViNu3rvkwg3zI66/xnQJ9jxJi/hGfkoqnFSqPl/mBEnTa1x8IyVPf1ICvZxNE0tzY8R/8BDTJE/jRCUXGR2UpP5NRViyHpWgC5f5TobvLEZ0hlRT3ZZJpGHyjXESqUY6+v1PrsaskT4OsyTUwkvs67MiZeUgV/Hw/r6OTAgsSeFl27XiOi5Q4q1xuea8BAma5C5wnSyB8dWdrrBwgnQfpe4Vn9aSJdF+A5RtxUk8Z38i27Z9JkvHjZMFP+6VbZPaK+U9ZerHa8T3kwh1srFZ/b+aLLt8hkgf80nbkitJgeMEmikSklZaHcmWmNWDlfeu2qSsm5W1noWTzJ2UZR8kUxctFV9fX7Pb2zJ1gJug/RKJKGvCWbWq4jKpk7Fuvsx6YX3WiHbYf2RviqHtypG06EDxHvy6BMTW5iTsQqZJ/4M1Gunge0BZGnN6uRq7UcYqywt0k/nhpin4xvVQ/maQsjsw7BIMaRcHrYyULH15dbDQeQmf30P5O6Vu++5Tam4ZMvfIfLPLtt9801xvG9Q2vczJsvl/yuoe2nIm4NXUdnAz40RF15fENyRKElJSJCXluOxdM0FcNQNk8d505ZtWmE3cNZ8AZ0pOoJS7jhXfb/bIAUMSgt1RkpSbpk5yVJ4rPiGw2lijfappOZKy6x3xNExK9/5SDsSfVn6PE3IgcK6pbMFuSSutyhSXGyeB4zoq34ODeExcIdvC9sqB8B2y6eMZ0t/wm7lNl8DD5+Sq8f30ci16pXQ3/F7F66X+tIQYv0/zibTKNhsfKOOM26Xy/qPflrWB2yQoaKsErPaR0e5K/VZePzHgoKRfrehvXziBuqOMC4xTfpWaUJG6U36bok8KFC+4ycSQM2qJtRnS8/ZT1gMl7AOsp4rBewkzp42SJGi0izrDWF3xm/Iom79GLbqB2uCW2VgZ3sNdDcx1SgVSPqejr/y48y3pMC5IzihfsikjSw9ZFHE9W0tetL+MHj26zNuo+aGSatF6mFj+ngp1h+OydLuEeveRIQFxpgOfogOQTfKd7wDp5vu78i2UT591SPzHdhOPSRvl8E071jqkcMa761QJSrRGztfCLDfupefJriJT3nCHErLXGALIMPH18lCCXlfxnLRcvjl8XlmGTIle/aK4uPSTqWt+NTvwUute/2kyf6ynjPb/s1ie40sSsUgJmDr6SXRpP3muUs/6OInr5G8kpZobnNLX8/rM/LJutdsIVmWZ9JIdsUQ6eEyVL0sMxvMlKyZQpvVS87+79JVJvl9JdFolMltVF/05CfPufnPgkLVPfA0HMMb1VYLk2bvkovEJw/djnnnGcOsgLwWGy9Yy62AhpQ77DTH9fZmdLQVyNSVKAmd7Fvus4jc1y0ROhCxy1khHv+hSMs0oQY+hk0PZnieHJCmPSlGD20Fx+pRQWTB6gLgX5tV2Ub437w8lxLitq/SpEr7keWWbf16WhKdeX279JYkNWS6TPJU2UuMug6auUNuIPEkL95VBLu1l0JKfLQ84K8QK7VOtMBxMfyW+U4eov4mr9Bo9V1bvPF5KXS6dPuuohPhOF69e3aSX11RZ9PluSbhwTIKmD5Jeg6aKb+Dvxu8nN/EHWeLVQa3LHcRryQ+mzFL6CxIdMEN6qXVD02uGBEQXXmNEaUcSdov//LHSy0UJ4pV2ZOKijfLLqQPi/+IwmTJ/hfgH7ZaY9Iq0K4VZ1QzXcgiSxBrr1KtI3Smv3uiVzX6xOKOfcqBd/BoXVqA/L5H+U4p+M8PvOWzBDkmwRsdjMVUL3gvTRGpekcBEs114vuECIxpTL7jyUH8m6OZe62KvuVlh6qye4hN+Xq3gxRjfo6camOfLhdCZSmDmpFSWnuIddk75m8KySqaJtGQ9KsVUgTUd3aVj+7ckrKh3XT0Y6t5LejlZdiEbU+De/cZ0d3kXJOW8FYOHkhRdHKmXzAlLKfn3rFGFqQG14jHnxxraARqoPR1u5r9rJah1z+XN92VRNyfx8Pn5xvSf5fZK5svF8HfEo8YOlKppPakGFJ4R6KG2g5VUXh0sRn8pTLwHld4ZE79tungoO0Ht2M0lBBK5cj50jjgZd5CmtHjl9sDp0yTcp085gUlNbwd/U1Vun6imFV0Q0cNHwtJqoquqEsptU+rCGRvbUPHRf/k6nD+vM43py0pGzP/OQfPkY+joYDYGMvMsEk7pilJA2jk+idfe7IFjH32KLUfUqSPFXnOzW9Co6wuY0+cklvu8iw27j5nGUxpmou//FX+cV5bA+B5OaNnMMJKwHu6+vy08DKPo24/BK483hR3ycP5MEjIqmybSkvWoFC3ue8gJuv8loMGYQejauHAM2h245x9Ngb0/49CAkRjoWvyiMTrEbV+FZSFxMEwBMkwKWj9lLKYmPoXX+mmRcuggoiJ/RuBb07HmSEnjXa3FMM7WD/836yC6+b6HuZ4O6rjh2iPpu/Hu/72NiG4++HiuJ5rW2AI0QMvn5mCt12G8vy4Slw3H65VhvEhPMzzm/jxentoHR5f/F18dN5vMlHsWJ/afLzXdllyOhP+iKDyzdg6eq3ImnZJU03pSDbBD/ZaD8Pba/jj4/heIquzl0MurgzcoQNbRo9CP6Y3WJe1VCo7j28Wf4oDSbGqaNcFd9YptgIYxsqdOGycWakcOxhP334bcM/HYD2e0dbo5Ta7h8y5HbcKiiF5Y+/agUrNV1fx28DdVxfaJapikYve7czArohN8P54Kz1LnDdayctuUKzhz4jjg2hpORXERlUgN4i2jT5KQye7KUdEw8dt7VKIDXhNX14k3ju3Un5W9S4YaL8Cj9Vovx0yDwNRea4jGc7HsOXf6+msG+creUo8KDadjfha/sd2LTrNqPMbKosBISbuWqr5HRxkbECPGPhXjWMLuam+TYXznNvV0diV6ey1Zj0ofzRYeXRY7YyF56gVHSr4okxSclKBX3MX1lW2SWFD42sLTOWY37UyLx8rXvMJeQM0N32OV5aVLbFScpFtyKrBwnLt2tPgfq64xrzmSHntIYks7jZlnGM83VqZtPlbh07MGpuFepotJmIaoaMVt2hY5GPGLHLqo/LbqXI5Ra7+TXw7deGbKeDZm3EvisytZqVE1rIrrSTXJMOZ3kQyZtlVOVGI4Xbl10Iw+ZYcsXPKj2bCKYoy95J5qG+UmA6atkIBtQRIUtE0C/X1l1jDDKXeNuHqtkD3GuQOF7ds4Wbvz12Kfly9Zhz+TcYMXyS7ja0tWq9vB30xV2qcSFV1Ey9JbTV9sy5YVjnN3FS//w6bYqMqU/Xh6nETFpldpWyq/TVGH1YxaIzt/OVzmmb6/uwoG7+kS4TfaOHZM4z5EphjGZCXpKhYU099L0Tj36pwgqjROgRPFYWSgJJZb+QrHuVfnhB3DAclmGetQ/OCrGP0liQlcKNP9D1k0d+G6fEkLmaIEM4U7qMIJoh3Ea9kvxiE/+rTvZZph4q+X340Hv9nR4j9jqXwVW5mr/1ZSpdeTap5hTP5mmTP9czlcoQnC5dfBCss7J9FfrRafqaNlgLvhqpGGIMxVeg2bKLN910tIxAnJKAr+8yQtdLYSgBT/PL1SxT+TGYu3lzBx1ow1toO/jSq0T1TDzMa5V2dSiLwTEji2m4wMTKjC9mRBm6JPkdBpHkq88JIs23uW224Z7Az/KI0oUfWTi4j84BV4zkrDhJBA+A6sjnzqBdAdXo8JPT9Aw7U74T+0ZRlDcAxXxF2FFzznI3nClwjzHVAt+W1Fdwj/nTAMcxu+h8P+Q+FYY0NwiIiILCOX9+ODF4ZhVvIIhIS9g4HVcQ0VycTh/76OnnPtsfawH4YWTxNLVlGDGW/p7+36OPdquxCSXMbJnz7Ga0OnYzOextAejmWOnS8a515tF6ZQDhxOhmHVa+MwafPt8Br6KBwYuBMRkbUVjXN/uNoufii6ePy0ajqGTtoIeD2DHuZzG8mq2PNONUCQn/QVpjw1BmswAqtXT4DH3ZUN3QV5mSk4HnsQv239Ap/sPm4sdZgdhmPv9y5lsrMi/ySCpwzD82v0GLv6PbzmcU/lJ8nmZSLl+FFE/vYNNn3yA+INZQ5zEXZsEXo34vEvERFZUw6Sgufgqef9gbFLsfq1Lri70ju8XGSmJCA2cg+2bvoSu+MN08jdMTssFO/3bmJ6CVkdg3eqfjkxWDf2OYzfbAq0q18vLIr4CvO63q0+Lk6H2HWvodv4AGSoJdVLg/aLfsD+ed1QPB8QERFR7RHkxH6Osd3GYXPN7PCA9ksQsX8Oulp0tXeqDew2pOplGOf+4TxMrbHAXdFtIPo9XFL6OAPDOPe1mDK1pgJ3gx4Y068tA3ciIrIqufw7PpziU3OBO7ToNuYpPMzAvU5hzzsRERERkY1gzzsRERERkY1g8E5EREREZCMYvBMRERER2QgG70RERERENoLBO9WwAuhOJ+F8PudFExER1SjR4fSpC8hXH9JfE4N3qlH6hC/w8oOP4Lm1MUoYXwlyGQk7/TCuy+sITrW0OSpAxr5VGNHZEfaTvkW6WlollVoOIiKi2nINCRsn48H7x2PtkStqWcWI7gR2+r2KLuOCkaqWUd3D4J1qlJ22LV5Y6Iu3+t6PemqZZbKVYPkjTH/2Ubj0m4bPDlQkYK4HbUcPPHQhC65tndBYLa2cqiwHERFRbakPbdsBWLjmNfRtdYdaZqGceOxcNQPPPtIR/aatxQG9Wk51EoN3qlF2Wne8NHM8nm51p1piqfpo1Ko/5m3/EylBE9WyCriYgrhTzfBQi8YVPGgororLQUREVCvqQes+AjMn9kGrBhW8qFL9u9Cq35vYfuIIgka7qIVUVzF4pxpSAF3MJkzu4gj7/usQV+ExM7ejiWsrNKmvPqyg/JQE/AYnPHSfVnmUg7h1I2BvPwLr4nJML7BY1ZaDiIioxkkmYja8gS72LdF/3bGKD1Ot3wSurk3AXZ1tYPBONUSHpIxmeKJXC+jO6XBVLa0d+UhPPIF4PIBWjg2URi0b5xLPweGF/njU8Vb1NURERH8R2WeR4dQVvbQZOKe7phbSXxWDd6ohd6HtY61hl5QOTZdWcKza2JUKykFKQizg0hr3ac8ibOEEvHNtCr5dNQrtNLW6IERERDVP8wAec6mHpOQW6NKqaRWHi1JdZycK9T5R9bq2D4vd+iBo+q848EZrHF43F8v3ZKpPlkLfBi/6euPp5oUn7/KRGvw6HJ8HglI+xFAHS07qJSN4jCeeT38W85sdQuLjK/HRuPbQGIcAZuNQrS0HERFRbRBll/su3Lr9gunR2/BGu3isG++LPeX00ervexG+bz+N5urjov0nliLl86FwUEupbmHwTjVGkjdjZMuFuDskDGsGOqqlFVWJoLngEFZ69MDK/vMxbveH+LrPBuxc+AS0FZy/cyMG70REVFflIXnzRLScoEFIwgoMbFrZvncG77aAw2aohghyz8RjP5zR1ukutayWXEzGkePN8Jj783h5ah8cXf5ffHW8cjlviYiI6r4rOHPiOODaGk6NOWjmr44971RDCnuqc7F253h4eDwE+eqtWhmuUnBoJTwe+QovRoZg5v37MfexYfi63yf4wssB9R54uNaWg4iIqHaoPeb6Wdg5sQc8Hi3AVxM4bOYvyxC8E1W/PEkLnS2u6CBey36RNL1aXCF6uRr/nSz26qAcYCrvs/g7ib9a3hvlS1rIFNFgogSl5CmPsyXW/0XlcW0vBxERUS3Rp0joNA+B60uybO9ZZa9VGTqJ//598XLVKO/zoiz+/oRcVZ+huoU970RERERENoJj3omIiIiIbASDdyIiIiIiG8HgnYiIiIjIRjB4JyIiIiKyEQzeiYiIiIhsBIN3IiIiIiIbweCdiIiIiMhGMHgnIiIiIrIRDN6JiIiIiGwEg3ciIiIiIhvB4J2IiIiIyEYweCciIiIishEM3omIiIiIbASDdyIiIiKqQwqgO7IVb87ZgMO6ArWstl1D6g8rMGfNb0jNF7WsbmDwTkRERER1hBK4x2zElCGzse82LRqqpaW7hvRDW7Fg8BAsi9KpZeb0yEk9iB3rlsF70nB4traHnZ0d7DsPxj/nrMSWfUnIKSU2r99Yg3PLR+Gld3bVqQCewTsRERER1QmS9iN8XpiLmKGrsclnAFpp6qnPFJeHS3E/YZ23F7o9Mhxvf5Oplt9IUndgxhNPYOD4f+Orq49ixvowREbux3cLeuJa8Dx4dRuCyev/gO6m2Px2NO38ClZtnQX75f/EpLV/Ikd9xtoYvBMRERFRHZCJgwF+WKGdhpVv9oFDfTu13Ez+RcSFB8J3XC84PfAkxi/9GvHqUyXRZ6XjZKoO8PCG/3+m4dnHu8DdvQsef3YaVgXMRzf8D59N9cOO5Fz1L8zVg6bDWCz/2BO/vLkG36XkqeXWxeCdiIiIiKxOUsLw0ZJTGPevEXi0USk97tlncTLzXjw+bT2OZlyFPikQXupTJanXZjS2xp1A3Ncz0ENr/p710OihbnjKSbmri0LE0QxT8U0awuX5yXjT7Vss+yIaV9RSa2LwTkRERERWlovkX3Zga4PnMOqpFiihz93krrZ4+tne6NqhDVrc3QB29W/F7epTJasPjYMLXB0a3vyetzdEo9sMd3TIyC6p513VsC2eGe2BiI17cPSa9ce+M3gnIiIiIivLwNGIKNi//BQ6N6ql8PTyeZy+aLjTHt3c7jEWlexOPNCzD3oc+hUH4q+qZdbD4J2IiIiIrKvgLGLDdejZqRXs1aKalYOkH79CQIYGrpPHY/CDZee1qXdfO3g6xSI64ZJaYj0M3omIiIjIui4m48hxBzx0n7b0ITPVIh+61BiErZ6BFybsweM+G/Dt0mfgUN6HNnRCu+55+D0hHdbKPF+IwTsRERERWZXkZOOS7j60bNZALalumdi3+HHY2d0Ke8f2eOqDY2i34F28PaF3Gekozdhp0PS+u5GRdVUJ/62LwTsRERERWVVBWjIiocGdDSwIpCvlVtz3nB8iIyMRGRGGb3z6Alv+D4+07IlRy3624CJMDXBXU3ucikuBcZi8FTF4JyIiIqK/uIZwaNsJ7u7ucO/aG8+O9sanX6+Dt0cSNs+ajHnfJKPuXEO1bAzeiYiIiOhvxg71HXpi9Cs9lfvHsD5gD07ZSPTO4J2IiIiI/oZug/be5qa7h8/horVnolqIwTsRERERWVW9e53QGRdxKas2p4PmI+uSOoLdpTHsy4yKc5CZngXnNo5orJZYC4N3IiIiIrIquwZ34m5NKlIvXlNLakHOUYRu/FW5o0H7ng+iRVlRseiQnngJWvs7UF8tshYG70RERERkXY2d0NY1FX8mZlTbxFHJPIszupJ68vXISY3E5oVvYt7uVMD1Zbw1sgPKvEzTlWTE7L0VXVo1RU3lw7EUg3ciIiIisq56zfFATw3CDyYgSy0qXwEuJ57AceP9s4g5ce7GHOx5iQieMggDx0yDj+8yLFum3BZ7Y9LwJ9He0QMj3g8FPKYg4Kt3MbxV2VdYLUiMwe7kB/BIq7vVEuuxE4V6n4iIiIjICvKRGjwFbV7X4utji9C7UXn9y5dwaMMSzPv3auyI15mKNN0x+s2FWOTdB06Ff55/EXF7wxAW9hv2Rf2K4B1R0Ln0gtfAXniimyeefLob2tx9q/ri0uQgbt1oPLCyCyL3z4T77TV7DdjyMHgnIiIiIquTlGCMbz8PWLsT/kNbwrohspkrB7Dsqefx1YhvsPuNR3CbWmwtHDZDRERERFZn5/gkXnvTGevfC8CvGXUlb2MOkkL8seTYQMx8oZ3VA3cDBu9EREREVAfchU7j58AH/8XM939Ear61B4cUQHd4I2ZP/gn9/KbhWcfyhtfUDgbvRERERFQn2Gl7YNb6d9AueDJeensHEnTW6oG/hvTIdZgydDHSpnyED0a6om6E7gzeiYiIiKjOqAdNu1FYtX0puuZm4Ipaag35F3VoNmMjNs1/Cg7168wIfE5YJSIiIiKyFex5JyIiIiKyEQzeiYiIiIhsBIN3IiIiIiIbweCdiIiIiMhGMHgnIiIiIrIRDN6JiIiIiGwEg3ciIiIiIhvB4J2IiIiIyEYweCciIiIishEM3omIiIiIbASDdyIiIiIiG8HgnYiIiIjIRjB4JyIiIiKyEQzeiYiIiIhsBIN3IiIiIiIbweCdiIiIiMhGMHgnIiIiIrIRDN6JiIiIiGwEg3ciIiIiIhvB4J2IiIiIyEYweCciIiIishEM3omIiIiIbASDdyIiIiIiG8HgnYiIiIjIRjB4JyIiIiKyEQzeiYiIiIhsBIN3IiIiIiIbweCdiIiIiMhGMHgnIiIiIrIRDN6JiIiIiGwC8P/QmtBembTNYQAAAABJRU5ErkJggg==;" vertex="1" parent="1">
          <mxGeometry x="410" y="-753.4799999999999" width="200.5" height="36.31" as="geometry" />
        </mxCell>
      </root>
    </mxGraphModel>
  </diagram>
  <diagram name="Aprendizado Supervisionado" id="wMA-zINm8iZKSOKeJqFr">
    <mxGraphModel dx="610" dy="1999" grid="1" gridSize="10" guides="1" tooltips="1" connect="1" arrows="1" fold="1" page="1" pageScale="1" pageWidth="1169" pageHeight="827" background="#ffffff" math="0" shadow="0">
      <root>
        <mxCell id="QmGBp-RanCkezi0eh3ST-0" />
        <mxCell id="QmGBp-RanCkezi0eh3ST-1" parent="QmGBp-RanCkezi0eh3ST-0" />
        <mxCell id="QmGBp-RanCkezi0eh3ST-3" value="" style="whiteSpace=wrap;shadow=0;fontColor=#FFFFFF;fontFamily=Helvetica;fontStyle=0;html=1;fontSize=12;plain-purple;strokeColor=#2f5b7c;fillColor=#2f5b7c;gradientColor=none;spacing=6;verticalAlign=middle;" parent="QmGBp-RanCkezi0eh3ST-1" vertex="1">
          <mxGeometry x="40" y="-760" width="120" height="80" as="geometry" />
        </mxCell>
        <mxCell id="QmGBp-RanCkezi0eh3ST-4" value="" style="whiteSpace=wrap;shadow=0;fontColor=#FFFFFF;fontFamily=Helvetica;fontStyle=0;html=1;fontSize=12;plain-purple;strokeColor=#2f5b7c;fillColor=none;gradientColor=none;spacing=6;verticalAlign=middle;" parent="QmGBp-RanCkezi0eh3ST-1" vertex="1">
          <mxGeometry x="40" y="-730" width="120" height="50" as="geometry" />
        </mxCell>
        <mxCell id="QmGBp-RanCkezi0eh3ST-5" value="Multiple features Datasets" style="text;whiteSpace=wrap;align=center;fontStyle=1;fontSize=10;fontColor=#FCFCFC;verticalAlign=middle;" parent="QmGBp-RanCkezi0eh3ST-1" vertex="1">
          <mxGeometry x="50" y="-760" width="100" height="30" as="geometry" />
        </mxCell>
        <mxCell id="Vr8kKUC3R0I8C9bzWMIY-0" style="edgeStyle=orthogonalEdgeStyle;rounded=0;orthogonalLoop=1;jettySize=auto;html=1;entryX=0;entryY=0.5;entryDx=0;entryDy=0;exitX=1;exitY=0.25;exitDx=0;exitDy=0;" parent="QmGBp-RanCkezi0eh3ST-1" source="QmGBp-RanCkezi0eh3ST-6" target="a2VeLt4sAJzUC4c1aXeF-0" edge="1">
          <mxGeometry relative="1" as="geometry">
            <Array as="points">
              <mxPoint x="160" y="-720" />
            </Array>
          </mxGeometry>
        </mxCell>
        <mxCell id="QmGBp-RanCkezi0eh3ST-6" value="mfeat-fac&#xa;mfeat-fou&#xa;mfeat-zer" style="text;whiteSpace=wrap;align=center;fontSize=10;fillColor=default;" parent="QmGBp-RanCkezi0eh3ST-1" vertex="1">
          <mxGeometry x="40" y="-730" width="120" height="50" as="geometry" />
        </mxCell>
        <mxCell id="QmGBp-RanCkezi0eh3ST-8" value="Bayesiano Gaussiano&lt;br&gt; " style="shape=document;whiteSpace=wrap;verticalAlign=middle;strokeColor=none;fillColor=#12aab5;shadow=0;fontColor=#FFFFFF;fontFamily=Helvetica;fontStyle=0;html=1;fontSize=12;spacing=6;spacingBottom=22;" parent="QmGBp-RanCkezi0eh3ST-1" vertex="1">
          <mxGeometry x="40" y="-600" width="120" height="60" as="geometry" />
        </mxCell>
        <mxCell id="WrviBTLChHE0-DwZ_AGi-1" style="edgeStyle=orthogonalEdgeStyle;rounded=0;orthogonalLoop=1;jettySize=auto;html=1;" parent="QmGBp-RanCkezi0eh3ST-1" target="WrviBTLChHE0-DwZ_AGi-0" edge="1">
          <mxGeometry relative="1" as="geometry">
            <mxPoint x="590" y="-720" as="sourcePoint" />
          </mxGeometry>
        </mxCell>
        <mxCell id="vV-SnWOgi41VIhIGjSkO-0" style="edgeStyle=orthogonalEdgeStyle;rounded=0;orthogonalLoop=1;jettySize=auto;html=1;entryX=0.5;entryY=0;entryDx=0;entryDy=0;" parent="QmGBp-RanCkezi0eh3ST-1" source="WrviBTLChHE0-DwZ_AGi-0" target="a2VeLt4sAJzUC4c1aXeF-0" edge="1">
          <mxGeometry relative="1" as="geometry">
            <mxPoint x="310" y="-760" as="targetPoint" />
            <Array as="points">
              <mxPoint x="720" y="-780" />
              <mxPoint x="320" y="-780" />
            </Array>
          </mxGeometry>
        </mxCell>
        <mxCell id="EV_kx7o6zVxPxufCSPBD-0" style="edgeStyle=orthogonalEdgeStyle;rounded=0;orthogonalLoop=1;jettySize=auto;html=1;entryX=0;entryY=0.5;entryDx=0;entryDy=0;" parent="QmGBp-RanCkezi0eh3ST-1" source="WrviBTLChHE0-DwZ_AGi-0" target="a2VeLt4sAJzUC4c1aXeF-5" edge="1">
          <mxGeometry relative="1" as="geometry" />
        </mxCell>
        <mxCell id="WrviBTLChHE0-DwZ_AGi-0" value="&lt;font color=&quot;#fcfcfc&quot;&gt;Salvar conjuntos de dados&lt;/font&gt;" style="rounded=1;whiteSpace=wrap;html=1;fillColor=#2f5b7c;strokeColor=none;" parent="QmGBp-RanCkezi0eh3ST-1" vertex="1">
          <mxGeometry x="660" y="-750" width="120" height="60" as="geometry" />
        </mxCell>
        <mxCell id="R8haTZHToqv9gSfaOT-Q-0" value="&lt;span style=&quot;color: rgb(0, 0, 0); font-family: Helvetica; font-size: 12px; font-style: normal; font-variant-ligatures: normal; font-variant-caps: normal; font-weight: 700; letter-spacing: normal; orphans: 2; text-indent: 0px; text-transform: none; widows: 2; word-spacing: 0px; -webkit-text-stroke-width: 0px; background-color: rgb(251, 251, 251); text-decoration-thickness: initial; text-decoration-style: initial; text-decoration-color: initial; float: none; display: inline !important;&quot;&gt;Repetir 30 vezes&lt;/span&gt;&lt;br style=&quot;border-color: var(--border-color); color: rgb(0, 0, 0); font-family: Helvetica; font-size: 12px; font-style: normal; font-variant-ligatures: normal; font-variant-caps: normal; font-weight: 700; letter-spacing: normal; orphans: 2; text-indent: 0px; text-transform: none; widows: 2; word-spacing: 0px; -webkit-text-stroke-width: 0px; background-color: rgb(251, 251, 251); text-decoration-thickness: initial; text-decoration-style: initial; text-decoration-color: initial;&quot;&gt;&lt;span style=&quot;color: rgb(0, 0, 0); font-family: Helvetica; font-size: 12px; font-style: normal; font-variant-ligatures: normal; font-variant-caps: normal; font-weight: 700; letter-spacing: normal; orphans: 2; text-indent: 0px; text-transform: none; widows: 2; word-spacing: 0px; -webkit-text-stroke-width: 0px; background-color: rgb(251, 251, 251); text-decoration-thickness: initial; text-decoration-style: initial; text-decoration-color: initial; float: none; display: inline !important;&quot;&gt;Para cada dataset&lt;/span&gt;" style="text;whiteSpace=wrap;html=1;align=center;" parent="QmGBp-RanCkezi0eh3ST-1" vertex="1">
          <mxGeometry x="430" y="-830" width="140" height="50" as="geometry" />
        </mxCell>
        <mxCell id="a2VeLt4sAJzUC4c1aXeF-2" value="" style="edgeStyle=orthogonalEdgeStyle;rounded=0;orthogonalLoop=1;jettySize=auto;html=1;" parent="QmGBp-RanCkezi0eh3ST-1" target="WrviBTLChHE0-DwZ_AGi-0" edge="1">
          <mxGeometry relative="1" as="geometry">
            <mxPoint x="620" y="-720" as="sourcePoint" />
          </mxGeometry>
        </mxCell>
        <mxCell id="Vr8kKUC3R0I8C9bzWMIY-1" style="edgeStyle=orthogonalEdgeStyle;rounded=0;orthogonalLoop=1;jettySize=auto;html=1;" parent="QmGBp-RanCkezi0eh3ST-1" source="a2VeLt4sAJzUC4c1aXeF-0" target="a2VeLt4sAJzUC4c1aXeF-1" edge="1">
          <mxGeometry relative="1" as="geometry" />
        </mxCell>
        <mxCell id="a2VeLt4sAJzUC4c1aXeF-0" value="&lt;font color=&quot;#ffffff&quot;&gt;Divisão de 10 folds com 200 amostras aleatórias (20 amostras de cada classe)&lt;/font&gt;" style="shape=step;perimeter=stepPerimeter;whiteSpace=wrap;html=1;fixedSize=1;fillColor=#2f5b7c;strokeColor=none;size=10;" parent="QmGBp-RanCkezi0eh3ST-1" vertex="1">
          <mxGeometry x="230" y="-760" width="180" height="80" as="geometry" />
        </mxCell>
        <mxCell id="a2VeLt4sAJzUC4c1aXeF-1" value="&lt;font color=&quot;#ffffff&quot;&gt;Para cada fold separar dois conjuntos: 20% Teste, 60% Treino e 20% Validação.&lt;/font&gt;" style="shape=step;perimeter=stepPerimeter;whiteSpace=wrap;html=1;fixedSize=1;fillColor=#2f5b7c;strokeColor=none;size=10;" parent="QmGBp-RanCkezi0eh3ST-1" vertex="1">
          <mxGeometry x="440" y="-760" width="180" height="80" as="geometry" />
        </mxCell>
        <mxCell id="XwrcPA4Z9JuxZBMi4fpt-1" style="edgeStyle=orthogonalEdgeStyle;rounded=0;orthogonalLoop=1;jettySize=auto;html=1;entryX=0.5;entryY=0;entryDx=0;entryDy=0;dashed=1;dashPattern=8 8;" edge="1" parent="QmGBp-RanCkezi0eh3ST-1" source="a2VeLt4sAJzUC4c1aXeF-5" target="3Ed0P-2_0irsGqZ7WiJA-2">
          <mxGeometry relative="1" as="geometry">
            <Array as="points">
              <mxPoint x="890" y="-660" />
              <mxPoint x="320" y="-660" />
            </Array>
          </mxGeometry>
        </mxCell>
        <mxCell id="XwrcPA4Z9JuxZBMi4fpt-2" value="Conjunto de Validação (20%)" style="edgeLabel;html=1;align=center;verticalAlign=middle;resizable=0;points=[];" vertex="1" connectable="0" parent="XwrcPA4Z9JuxZBMi4fpt-1">
          <mxGeometry x="-0.0059" y="2" relative="1" as="geometry">
            <mxPoint as="offset" />
          </mxGeometry>
        </mxCell>
        <mxCell id="XwrcPA4Z9JuxZBMi4fpt-3" style="edgeStyle=orthogonalEdgeStyle;rounded=0;orthogonalLoop=1;jettySize=auto;html=1;entryX=0.5;entryY=0;entryDx=0;entryDy=0;dashed=1;dashPattern=8 8;" edge="1" parent="QmGBp-RanCkezi0eh3ST-1" source="a2VeLt4sAJzUC4c1aXeF-5" target="oZuPQm7PUtdGFxAvLLvL-0">
          <mxGeometry relative="1" as="geometry">
            <Array as="points">
              <mxPoint x="890" y="-610" />
              <mxPoint x="545" y="-610" />
            </Array>
          </mxGeometry>
        </mxCell>
        <mxCell id="XwrcPA4Z9JuxZBMi4fpt-4" value="Conjunto de Treino (60%)" style="edgeLabel;html=1;align=center;verticalAlign=middle;resizable=0;points=[];" vertex="1" connectable="0" parent="XwrcPA4Z9JuxZBMi4fpt-3">
          <mxGeometry x="0.0338" y="2" relative="1" as="geometry">
            <mxPoint as="offset" />
          </mxGeometry>
        </mxCell>
        <mxCell id="XwrcPA4Z9JuxZBMi4fpt-5" style="edgeStyle=orthogonalEdgeStyle;rounded=0;orthogonalLoop=1;jettySize=auto;html=1;dashed=1;dashPattern=8 8;" edge="1" parent="QmGBp-RanCkezi0eh3ST-1" source="a2VeLt4sAJzUC4c1aXeF-5">
          <mxGeometry relative="1" as="geometry">
            <mxPoint x="890" y="-510" as="targetPoint" />
            <Array as="points">
              <mxPoint x="890" y="-510" />
            </Array>
          </mxGeometry>
        </mxCell>
        <mxCell id="XwrcPA4Z9JuxZBMi4fpt-6" value="Conjunto de Teste (20%)" style="edgeLabel;html=1;align=center;verticalAlign=middle;resizable=0;points=[];" vertex="1" connectable="0" parent="XwrcPA4Z9JuxZBMi4fpt-5">
          <mxGeometry x="-0.0305" y="1" relative="1" as="geometry">
            <mxPoint x="-1" y="7" as="offset" />
          </mxGeometry>
        </mxCell>
        <mxCell id="a2VeLt4sAJzUC4c1aXeF-5" value="&lt;font color=&quot;#ffffff&quot;&gt;Três conjuntos de Validação Estratificada&lt;/font&gt;" style="ellipse;whiteSpace=wrap;html=1;fillColor=#2f5b7c;strokeColor=none;" parent="QmGBp-RanCkezi0eh3ST-1" vertex="1">
          <mxGeometry x="830" y="-760" width="120" height="80" as="geometry" />
        </mxCell>
        <mxCell id="XwrcPA4Z9JuxZBMi4fpt-23" style="edgeStyle=orthogonalEdgeStyle;rounded=0;orthogonalLoop=1;jettySize=auto;html=1;entryX=0;entryY=0.5;entryDx=0;entryDy=0;" edge="1" parent="QmGBp-RanCkezi0eh3ST-1" source="0HtgARKvGPiCNf6i8ZT1-0" target="XwrcPA4Z9JuxZBMi4fpt-22">
          <mxGeometry relative="1" as="geometry" />
        </mxCell>
        <mxCell id="0HtgARKvGPiCNf6i8ZT1-0" value="Janela de Parzen&lt;br&gt; " style="shape=document;whiteSpace=wrap;verticalAlign=middle;strokeColor=none;fillColor=#12aab5;shadow=0;fontColor=#FFFFFF;fontFamily=Helvetica;fontStyle=0;html=1;fontSize=12;spacing=6;spacingBottom=22;" parent="QmGBp-RanCkezi0eh3ST-1" vertex="1">
          <mxGeometry x="40" y="-443.5" width="120" height="60" as="geometry" />
        </mxCell>
        <mxCell id="XwrcPA4Z9JuxZBMi4fpt-21" style="edgeStyle=orthogonalEdgeStyle;rounded=0;orthogonalLoop=1;jettySize=auto;html=1;entryX=0;entryY=0.5;entryDx=0;entryDy=0;" edge="1" parent="QmGBp-RanCkezi0eh3ST-1" source="AQGgwyQ5WDRJix-BfOLW-0" target="XwrcPA4Z9JuxZBMi4fpt-20">
          <mxGeometry relative="1" as="geometry" />
        </mxCell>
        <mxCell id="AQGgwyQ5WDRJix-BfOLW-0" value="K-Vizinhos&lt;br&gt; " style="shape=document;whiteSpace=wrap;verticalAlign=middle;strokeColor=none;fillColor=#12aab5;shadow=0;fontColor=#FFFFFF;fontFamily=Helvetica;fontStyle=0;html=1;fontSize=12;spacing=6;spacingBottom=22;" parent="QmGBp-RanCkezi0eh3ST-1" vertex="1">
          <mxGeometry x="40" y="-520" width="120" height="60" as="geometry" />
        </mxCell>
        <mxCell id="AQGgwyQ5WDRJix-BfOLW-2" value="Regressão Logística&lt;br&gt; " style="shape=document;whiteSpace=wrap;verticalAlign=middle;strokeColor=none;fillColor=#12aab5;shadow=0;fontColor=#FFFFFF;fontFamily=Helvetica;fontStyle=0;html=1;fontSize=12;spacing=6;spacingBottom=22;" parent="QmGBp-RanCkezi0eh3ST-1" vertex="1">
          <mxGeometry x="40" y="-360" width="120" height="60" as="geometry" />
        </mxCell>
        <mxCell id="1UXfB6b7Ss9nSpzmCFKQ-1" style="edgeStyle=orthogonalEdgeStyle;rounded=0;orthogonalLoop=1;jettySize=auto;html=1;entryX=0;entryY=0.5;entryDx=0;entryDy=0;" parent="QmGBp-RanCkezi0eh3ST-1" source="3Ed0P-2_0irsGqZ7WiJA-0" target="oZuPQm7PUtdGFxAvLLvL-0" edge="1">
          <mxGeometry relative="1" as="geometry" />
        </mxCell>
        <mxCell id="3Ed0P-2_0irsGqZ7WiJA-0" value="" style="rounded=1;whiteSpace=wrap;html=1;fillColor=none;dashed=1;dashPattern=8 8;" parent="QmGBp-RanCkezi0eh3ST-1" vertex="1">
          <mxGeometry x="230" y="-640" width="180" height="340" as="geometry" />
        </mxCell>
        <mxCell id="3Ed0P-2_0irsGqZ7WiJA-2" value="Hiper-parametrização" style="rounded=1;whiteSpace=wrap;html=1;" parent="QmGBp-RanCkezi0eh3ST-1" vertex="1">
          <mxGeometry x="230" y="-640" width="180" height="40" as="geometry" />
        </mxCell>
        <mxCell id="1UXfB6b7Ss9nSpzmCFKQ-0" style="edgeStyle=orthogonalEdgeStyle;rounded=0;orthogonalLoop=1;jettySize=auto;html=1;entryX=0;entryY=0.5;entryDx=0;entryDy=0;" parent="QmGBp-RanCkezi0eh3ST-1" source="oZuPQm7PUtdGFxAvLLvL-0" target="T7PF0qgqxy5PVwsyF57j-0" edge="1">
          <mxGeometry relative="1" as="geometry" />
        </mxCell>
        <mxCell id="oZuPQm7PUtdGFxAvLLvL-0" value="&lt;font color=&quot;#fcfcfc&quot;&gt;Treinamento dos classificadores&lt;/font&gt;" style="shape=step;perimeter=stepPerimeter;whiteSpace=wrap;html=1;fixedSize=1;fillColor=#2f5b7c;strokeColor=none;size=10;" parent="QmGBp-RanCkezi0eh3ST-1" vertex="1">
          <mxGeometry x="480" y="-510" width="130" height="80" as="geometry" />
        </mxCell>
        <mxCell id="1FCvlNv1y0hhVMKOcWqR-1" style="edgeStyle=orthogonalEdgeStyle;rounded=0;orthogonalLoop=1;jettySize=auto;html=1;entryX=0.75;entryY=0;entryDx=0;entryDy=0;exitX=0.308;exitY=-0.003;exitDx=0;exitDy=0;exitPerimeter=0;" parent="QmGBp-RanCkezi0eh3ST-1" source="nn54WXRiqqCFeyMyGar2-0" target="oZuPQm7PUtdGFxAvLLvL-0" edge="1">
          <mxGeometry relative="1" as="geometry">
            <Array as="points">
              <mxPoint x="860" y="-530" />
              <mxPoint x="578" y="-530" />
            </Array>
            <mxPoint x="890" y="-510" as="sourcePoint" />
            <mxPoint x="549.9999999999999" y="-510" as="targetPoint" />
          </mxGeometry>
        </mxCell>
        <mxCell id="smkUsOxvvADgJMJthgpQ-0" style="edgeStyle=orthogonalEdgeStyle;rounded=0;orthogonalLoop=1;jettySize=auto;html=1;entryX=0;entryY=0.5;entryDx=0;entryDy=0;" parent="QmGBp-RanCkezi0eh3ST-1" source="nn54WXRiqqCFeyMyGar2-0" target="1FCvlNv1y0hhVMKOcWqR-0" edge="1">
          <mxGeometry relative="1" as="geometry" />
        </mxCell>
        <mxCell id="XwrcPA4Z9JuxZBMi4fpt-12" style="edgeStyle=orthogonalEdgeStyle;rounded=0;orthogonalLoop=1;jettySize=auto;html=1;entryX=0;entryY=0.5;entryDx=0;entryDy=0;exitX=0.033;exitY=0.99;exitDx=0;exitDy=0;exitPerimeter=0;" edge="1" parent="QmGBp-RanCkezi0eh3ST-1" source="nn54WXRiqqCFeyMyGar2-0" target="XwrcPA4Z9JuxZBMi4fpt-8">
          <mxGeometry relative="1" as="geometry" />
        </mxCell>
        <mxCell id="nn54WXRiqqCFeyMyGar2-0" value="&lt;font color=&quot;#ffffff&quot;&gt;Teste dos classificadores&amp;nbsp;&lt;/font&gt;" style="shape=step;perimeter=stepPerimeter;whiteSpace=wrap;html=1;fixedSize=1;fillColor=#2f5b7c;strokeColor=none;size=10;" parent="QmGBp-RanCkezi0eh3ST-1" vertex="1">
          <mxGeometry x="820" y="-510" width="130" height="80" as="geometry" />
        </mxCell>
        <mxCell id="C0BgFE8RKxaybBoZ5CvV-0" style="edgeStyle=orthogonalEdgeStyle;rounded=0;orthogonalLoop=1;jettySize=auto;html=1;entryX=0;entryY=0.5;entryDx=0;entryDy=0;" parent="QmGBp-RanCkezi0eh3ST-1" source="T7PF0qgqxy5PVwsyF57j-0" target="nn54WXRiqqCFeyMyGar2-0" edge="1">
          <mxGeometry relative="1" as="geometry" />
        </mxCell>
        <mxCell id="T7PF0qgqxy5PVwsyF57j-0" value="Regra do Voto Marjoritário" style="rhombus;whiteSpace=wrap;html=1;fillColor=#dae8fc;strokeColor=none;" parent="QmGBp-RanCkezi0eh3ST-1" vertex="1">
          <mxGeometry x="650" y="-525" width="110" height="110" as="geometry" />
        </mxCell>
        <mxCell id="XwrcPA4Z9JuxZBMi4fpt-18" style="edgeStyle=orthogonalEdgeStyle;rounded=0;orthogonalLoop=1;jettySize=auto;html=1;exitX=0.097;exitY=0.996;exitDx=0;exitDy=0;entryX=0;entryY=0.5;entryDx=0;entryDy=0;exitPerimeter=0;" edge="1" parent="QmGBp-RanCkezi0eh3ST-1" source="1FCvlNv1y0hhVMKOcWqR-0" target="XwrcPA4Z9JuxZBMi4fpt-16">
          <mxGeometry relative="1" as="geometry">
            <Array as="points">
              <mxPoint x="1000" y="-430" />
              <mxPoint x="1000" y="-400" />
            </Array>
          </mxGeometry>
        </mxCell>
        <mxCell id="1FCvlNv1y0hhVMKOcWqR-0" value="&lt;font color=&quot;#ffffff&quot;&gt;Teste&amp;nbsp;Estatístico&lt;/font&gt;" style="shape=step;perimeter=stepPerimeter;whiteSpace=wrap;html=1;fixedSize=1;fillColor=#2f5b7c;strokeColor=none;size=10;" parent="QmGBp-RanCkezi0eh3ST-1" vertex="1">
          <mxGeometry x="990" y="-510" width="130" height="80" as="geometry" />
        </mxCell>
        <mxCell id="1FCvlNv1y0hhVMKOcWqR-2" value="&lt;span style=&quot;font-family: Helvetica; font-size: 12px; font-style: normal; font-variant-ligatures: normal; font-variant-caps: normal; letter-spacing: normal; orphans: 2; text-indent: 0px; text-transform: none; widows: 2; word-spacing: 0px; -webkit-text-stroke-width: 0px; background-color: rgb(251, 251, 251); text-decoration-thickness: initial; text-decoration-style: initial; text-decoration-color: initial; float: none; display: inline !important;&quot;&gt;&lt;b style=&quot;&quot;&gt;Repetir para cada dataset&lt;/b&gt;&lt;/span&gt;" style="text;whiteSpace=wrap;html=1;align=center;" parent="QmGBp-RanCkezi0eh3ST-1" vertex="1">
          <mxGeometry x="635" y="-565" width="170" height="40" as="geometry" />
        </mxCell>
        <mxCell id="XwrcPA4Z9JuxZBMi4fpt-8" value="&lt;font color=&quot;#ffffff&quot;&gt;Taxa de Erro&lt;/font&gt;" style="ellipse;whiteSpace=wrap;html=1;fillColor=#2f5b7c;strokeColor=none;" vertex="1" parent="QmGBp-RanCkezi0eh3ST-1">
          <mxGeometry x="850" y="-420" width="100" height="40" as="geometry" />
        </mxCell>
        <mxCell id="XwrcPA4Z9JuxZBMi4fpt-9" value="&lt;font color=&quot;#ffffff&quot;&gt;Precisão&lt;/font&gt;" style="ellipse;whiteSpace=wrap;html=1;fillColor=#2f5b7c;strokeColor=none;" vertex="1" parent="QmGBp-RanCkezi0eh3ST-1">
          <mxGeometry x="850" y="-380" width="100" height="40" as="geometry" />
        </mxCell>
        <mxCell id="XwrcPA4Z9JuxZBMi4fpt-10" value="&lt;font color=&quot;#ffffff&quot;&gt;Cobertura&lt;/font&gt;" style="ellipse;whiteSpace=wrap;html=1;fillColor=#2f5b7c;strokeColor=none;" vertex="1" parent="QmGBp-RanCkezi0eh3ST-1">
          <mxGeometry x="850" y="-340" width="100" height="40" as="geometry" />
        </mxCell>
        <mxCell id="XwrcPA4Z9JuxZBMi4fpt-11" value="&lt;font color=&quot;#ffffff&quot;&gt;F-measure&lt;/font&gt;" style="ellipse;whiteSpace=wrap;html=1;fillColor=#2f5b7c;strokeColor=none;" vertex="1" parent="QmGBp-RanCkezi0eh3ST-1">
          <mxGeometry x="850" y="-300" width="100" height="40" as="geometry" />
        </mxCell>
        <mxCell id="XwrcPA4Z9JuxZBMi4fpt-13" style="edgeStyle=orthogonalEdgeStyle;rounded=0;orthogonalLoop=1;jettySize=auto;html=1;entryX=0;entryY=0.5;entryDx=0;entryDy=0;exitX=0.038;exitY=0.979;exitDx=0;exitDy=0;exitPerimeter=0;" edge="1" parent="QmGBp-RanCkezi0eh3ST-1" source="nn54WXRiqqCFeyMyGar2-0" target="XwrcPA4Z9JuxZBMi4fpt-9">
          <mxGeometry relative="1" as="geometry">
            <mxPoint x="834" y="-421" as="sourcePoint" />
            <mxPoint x="860" y="-370" as="targetPoint" />
          </mxGeometry>
        </mxCell>
        <mxCell id="XwrcPA4Z9JuxZBMi4fpt-14" style="edgeStyle=orthogonalEdgeStyle;rounded=0;orthogonalLoop=1;jettySize=auto;html=1;entryX=0;entryY=0.5;entryDx=0;entryDy=0;exitX=0.038;exitY=0.999;exitDx=0;exitDy=0;exitPerimeter=0;" edge="1" parent="QmGBp-RanCkezi0eh3ST-1" source="nn54WXRiqqCFeyMyGar2-0" target="XwrcPA4Z9JuxZBMi4fpt-10">
          <mxGeometry relative="1" as="geometry">
            <mxPoint x="834" y="-420" as="sourcePoint" />
            <mxPoint x="860" y="-330" as="targetPoint" />
          </mxGeometry>
        </mxCell>
        <mxCell id="XwrcPA4Z9JuxZBMi4fpt-15" style="edgeStyle=orthogonalEdgeStyle;rounded=0;orthogonalLoop=1;jettySize=auto;html=1;entryX=0;entryY=0.5;entryDx=0;entryDy=0;exitX=0.035;exitY=1.003;exitDx=0;exitDy=0;exitPerimeter=0;" edge="1" parent="QmGBp-RanCkezi0eh3ST-1" source="nn54WXRiqqCFeyMyGar2-0" target="XwrcPA4Z9JuxZBMi4fpt-11">
          <mxGeometry relative="1" as="geometry">
            <mxPoint x="835" y="-420" as="sourcePoint" />
            <mxPoint x="860" y="-290" as="targetPoint" />
          </mxGeometry>
        </mxCell>
        <mxCell id="XwrcPA4Z9JuxZBMi4fpt-16" value="&lt;font color=&quot;#ffffff&quot;&gt;Friedman test&lt;/font&gt;" style="ellipse;whiteSpace=wrap;html=1;fillColor=#2f5b7c;strokeColor=none;" vertex="1" parent="QmGBp-RanCkezi0eh3ST-1">
          <mxGeometry x="1010" y="-420" width="100" height="40" as="geometry" />
        </mxCell>
        <mxCell id="XwrcPA4Z9JuxZBMi4fpt-17" value="&lt;font color=&quot;#ffffff&quot;&gt;Nemenyi test&lt;/font&gt;" style="ellipse;whiteSpace=wrap;html=1;fillColor=#2f5b7c;strokeColor=none;" vertex="1" parent="QmGBp-RanCkezi0eh3ST-1">
          <mxGeometry x="1010" y="-380" width="100" height="40" as="geometry" />
        </mxCell>
        <mxCell id="XwrcPA4Z9JuxZBMi4fpt-19" style="edgeStyle=orthogonalEdgeStyle;rounded=0;orthogonalLoop=1;jettySize=auto;html=1;exitX=0.075;exitY=0.993;exitDx=0;exitDy=0;entryX=0;entryY=0.5;entryDx=0;entryDy=0;exitPerimeter=0;" edge="1" parent="QmGBp-RanCkezi0eh3ST-1" source="1FCvlNv1y0hhVMKOcWqR-0" target="XwrcPA4Z9JuxZBMi4fpt-17">
          <mxGeometry relative="1" as="geometry">
            <mxPoint x="1013" y="-420" as="sourcePoint" />
            <mxPoint x="1020" y="-390" as="targetPoint" />
            <Array as="points">
              <mxPoint x="1000" y="-420" />
              <mxPoint x="1000" y="-420" />
              <mxPoint x="1000" y="-360" />
            </Array>
          </mxGeometry>
        </mxCell>
        <mxCell id="XwrcPA4Z9JuxZBMi4fpt-20" value="&lt;font style=&quot;font-size: 10px;&quot;&gt;Número de Vizinhos k&lt;/font&gt;" style="rounded=1;whiteSpace=wrap;html=1;fillColor=#dae8fc;strokeColor=none;verticalAlign=middle;" vertex="1" parent="QmGBp-RanCkezi0eh3ST-1">
          <mxGeometry x="260" y="-500" width="120" height="20" as="geometry" />
        </mxCell>
        <mxCell id="XwrcPA4Z9JuxZBMi4fpt-22" value="&lt;font style=&quot;font-size: 10px;&quot;&gt;Parâmetro h&lt;/font&gt;" style="rounded=1;whiteSpace=wrap;html=1;fillColor=#dae8fc;strokeColor=none;verticalAlign=middle;" vertex="1" parent="QmGBp-RanCkezi0eh3ST-1">
          <mxGeometry x="260" y="-423" width="120" height="20" as="geometry" />
        </mxCell>
      </root>
    </mxGraphModel>
  </diagram>
</mxfile>
